{
.appVersion = "963";
classes = (
{
automatic = 1;

glyphs = (
{
glyphname = A;
layers = (
{
layerId = "44398CD6-F961-4ECB-B01A-EEBF1DAB2450";
paths = (
{
closed = 1;
nodes = (
"585 127 OFFCURVE",
"577 150 OFFCURVE",
"562 161 CURVE",
"573 176 OFFCURVE",
"560 208 OFFCURVE",
"546 222 CURVE",
"552 244 OFFCURVE",
"537 253 OFFCURVE",
"527 267 CURVE",
"537 294 OFFCURVE",
"513 320 OFFCURVE",
"499 339 CURVE",
"503 351 OFFCURVE",
"492 410 OFFCURVE",
"464 430 CURVE",
"469 446 OFFCURVE",
"458 472 OFFCURVE",
"447 483 CURVE",
"452 504 OFFCURVE",
"440 544 OFFCURVE",
"423 558 CURVE",
"424 572 OFFCURVE",
"418 587 OFFCURVE",
"406 595 CURVE",
"407 610 OFFCURVE",
"402 632 OFFCURVE",
"390 647 CURVE",
"384 668 OFFCURVE",
"372 691 OFFCURVE",
"348 692 CURVE",
"320 705 OFFCURVE",
"303 695 OFFCURVE",
"287 673 CURVE",
"271 664 OFFCURVE",
"253 628 OFFCURVE",
"259 602 CURVE",
"250 594 OFFCURVE",
"246 581 OFFCURVE",
"248 569 CURVE",
"232 556 OFFCURVE",
"230 539 OFFCURVE",
"233 522 CURVE",
"221 519 OFFCURVE",
"210 499 OFFCURVE",
"218 469 CURVE",
"205 453 OFFCURVE",
"193 425 OFFCURVE",
"191 399 CURVE",
"164 385 OFFCURVE",
"159 349 OFFCURVE",
"159 326 CURVE",
"141 300 OFFCURVE",
"128 272 OFFCURVE",
"130 237 CURVE",
"114 232 OFFCURVE",
"100 179 OFFCURVE",
"105 163 CURVE",
"86 155 OFFCURVE",
"75 123 OFFCURVE",
"79 103 CURVE",
"63 91 OFFCURVE",
"56 79 OFFCURVE",
"60 56 CURVE",
"49 32 OFFCURVE",
"57 6 OFFCURVE",
"82 6 CURVE",
"131 -5 OFFCURVE",
"168 59 OFFCURVE",
"151 98 CURVE",
"171 101 OFFCURVE",
"207 145 OFFCURVE",
"191 181 CURVE",
"216 199 OFFCURVE",
"218 218 OFFCURVE",
"208 255 CURVE",
"210 256 OFFCURVE",
"211 257 OFFCURVE",
"213 257 CURVE",
"226 244 OFFCURVE",
"260 236 OFFCURVE",
"277 247 CURVE",
"292 238 OFFCURVE",
"311 241 OFFCURVE",
"324 253 CURVE",
"339 236 OFFCURVE",
"380 237 OFFCURVE",
"397 254 CURVE",
"411 244 OFFCURVE",
"433 238 OFFCURVE",
"451 245 CURVE",
"449 226 OFFCURVE",
"458 184 OFFCURVE",
"477 175 CURVE",
"475 163 OFFCURVE",
"484 108 OFFCURVE",
"507 98 CURVE",
"498 72 OFFCURVE",
"523 39 OFFCURVE",
"539 37 CURVE",
"538 -25 OFFCURVE",
"639 -3 OFFCURVE",
"614 54 CURVE",
"618 99 OFFCURVE",
"584 107 OFFCURVE",
"583 108 CURVE"
);
},
{
closed = 1;
nodes = (
"389 332 OFFCURVE",
"375 335 OFFCURVE",
"361 320 CURVE",
"345 337 OFFCURVE",
"307 341 OFFCURVE",
"289 326 CURVE",
"285 330 OFFCURVE",
"272 330 OFFCURVE",
"268 324 CURVE",
"261 331 OFFCURVE",
"247 329 OFFCURVE",
"245 328 CURVE",
"248 334 OFFCURVE",
"249 340 OFFCURVE",
"249 346 CURVE",
"264 358 OFFCURVE",
"268 385 OFFCURVE",
"277 401 CURVE",
"288 423 OFFCURVE",
"300 449 OFFCURVE",
"295 475 CURVE",
"305 484 OFFCURVE",
"312 507 OFFCURVE",
"311 521 CURVE",
"323 529 OFFCURVE",
"330 542 OFFCURVE",
"329 557 CURVE",
"332 550 OFFCURVE",
"336 545 OFFCURVE",
"342 542 CURVE",
"341 520 OFFCURVE",
"350 513 OFFCURVE",
"361 510 CURVE",
"360 499 OFFCURVE",
"368 497 OFFCURVE",
"369 494 CURVE",
"362 459 OFFCURVE",
"370 443 OFFCURVE",
"387 432 CURVE",
"380 414 OFFCURVE",
"392 396 OFFCURVE",
"403 392 CURVE",
"401 377 OFFCURVE",
"410 361 OFFCURVE",
"422 352 CURVE",
"417 346 OFFCURVE",
"417 337 OFFCURVE",
"420 331 CURVE",
"414 335 OFFCURVE",
"402 333 OFFCURVE",
"399 325 CURVE"
);
}
);
width = 649;
}
);
note = A;
unicode = 0041;
},
{
glyphname = AE;
layers = (
{
layerId = "44398CD6-F961-4ECB-B01A-EEBF1DAB2450";
paths = (
{
closed = 1;
nodes = (
"773 670 OFFCURVE",
"742 676 OFFCURVE",
"725 664 CURVE",
"707 671 OFFCURVE",
"690 670 OFFCURVE",
"678 659 CURVE",
"657 670 OFFCURVE",
"617 670 OFFCURVE",
"606 662 CURVE",
"596 670 OFFCURVE",
"584 668 OFFCURVE",
"570 663 CURVE",
"550 678 OFFCURVE",
"523 676 OFFCURVE",
"500 670 CURVE",
"489 679 OFFCURVE",
"472 680 OFFCURVE",
"457 676 CURVE",
"451 678 OFFCURVE",
"445 680 OFFCURVE",
"438 679 CURVE",
"405 677 OFFCURVE",
"395 638 OFFCURVE",
"401 623 CURVE",
"381 622 OFFCURVE",
"352 596 OFFCURVE",
"352 568 CURVE",
"342 562 OFFCURVE",
"336 553 OFFCURVE",
"334 542 CURVE",
"320 536 OFFCURVE",
"305 513 OFFCURVE",
"303 497 CURVE",
"282 488 OFFCURVE",
"279 466 OFFCURVE",
"277 446 CURVE",
"266 441 OFFCURVE",
"259 430 OFFCURVE",
"257 417 CURVE",
"227 403 OFFCURVE",
"207 366 OFFCURVE",
"207 330 CURVE",
"184 326 OFFCURVE",
"152 290 OFFCURVE",
"158 265 CURVE",
"148 257 OFFCURVE",
"141 244 OFFCURVE",
"143 235 CURVE",
"131 234 OFFCURVE",
"119 219 OFFCURVE",
"120 198 CURVE",
"105 187 OFFCURVE",
"89 160 OFFCURVE",
"87 141 CURVE",
"72 134 OFFCURVE",
"63 118 OFFCURVE",
"65 102 CURVE",
"51 102 OFFCURVE",
"32 65 OFFCURVE",
"38 48 CURVE",
"25 -7 OFFCURVE",
"116 -15 OFFCURVE",
"112 42 CURVE",
"128 49 OFFCURVE",
"141 67 OFFCURVE",
"141 85 CURVE",
"160 96 OFFCURVE",
"168 119 OFFCURVE",
"164 133 CURVE",
"185 144 OFFCURVE",
"194 157 OFFCURVE",
"193 181 CURVE",
"207 190 OFFCURVE",
"212 205 OFFCURVE",
"216 218 CURVE",
"227 222 OFFCURVE",
"233 227 OFFCURVE",
"239 236 CURVE",
"250 232 OFFCURVE",
"267 234 OFFCURVE",
"276 243 CURVE",
"285 234 OFFCURVE",
"298 228 OFFCURVE",
"317 236 CURVE",
"332 225 OFFCURVE",
"375 229 OFFCURVE",
"392 237 CURVE",
"397 234 OFFCURVE",
"405 232 OFFCURVE",
"414 231 CURVE",
"414 223 OFFCURVE",
"417 215 OFFCURVE",
"422 208 CURVE",
"418 197 OFFCURVE",
"420 186 OFFCURVE",
"425 176 CURVE",
"413 161 OFFCURVE",
"410 112 OFFCURVE",
"428 95 CURVE",
"425 80 OFFCURVE",
"427 55 OFFCURVE",
"438 43 CURVE",
"430 4 OFFCURVE",
"483 -19 OFFCURVE",
"506 15 CURVE",
"528 -1 OFFCURVE",
"553 9 OFFCURVE",
"569 19 CURVE",
"583 11 OFFCURVE",
"616 7 OFFCURVE",
"623 22 CURVE",
"633 14 OFFCURVE",
"680 10 OFFCURVE",
"694 19 CURVE",
"711 4 OFFCURVE",
"747 8 OFFCURVE",
"756 22 CURVE",
"802 38 OFFCURVE",
"776 111 OFFCURVE",
"729 93 CURVE",
"713 104 OFFCURVE",
"677 101 OFFCURVE",
"663 88 CURVE",
"648 104 OFFCURVE",
"621 101 OFFCURVE",
"601 91 CURVE",
"587 96 OFFCURVE",
"548 99 OFFCURVE",
"533 88 CURVE",
"525 95 OFFCURVE",
"515 98 OFFCURVE",
"504 97 CURVE",
"507 111 OFFCURVE",
"508 126 OFFCURVE",
"498 135 CURVE",
"502 139 OFFCURVE",
"506 148 OFFCURVE",
"499 157 CURVE",
"507 173 OFFCURVE",
"510 175 OFFCURVE",
"501 193 CURVE",
"509 205 OFFCURVE",
"509 220 OFFCURVE",
"502 233 CURVE",
"508 244 OFFCURVE",
"507 258 OFFCURVE",
"500 270 CURVE",
"509 288 OFFCURVE",
"503 300 OFFCURVE",
"497 316 CURVE",
"505 314 OFFCURVE",
"510 316 OFFCURVE",
"517 320 CURVE",
"528 313 OFFCURVE",
"541 313 OFFCURVE",
"553 318 CURVE",
"569 312 OFFCURVE",
"592 311 OFFCURVE",
"606 322 CURVE",
"613 317 OFFCURVE",
"627 319 OFFCURVE",
"631 324 CURVE",
"645 314 OFFCURVE",
"673 314 OFFCURVE",
"686 326 CURVE",
"703 315 OFFCURVE",
"731 312 OFFCURVE",
"746 328 CURVE",
"811 333 OFFCURVE",
"774 419 OFFCURVE",
"718 390 CURVE",
"704 395 OFFCURVE",
"700 396 OFFCURVE",
"687 390 CURVE",
"683 396 OFFCURVE",
"667 398 OFFCURVE",
"656 390 CURVE",
"646 399 OFFCURVE",
"631 400 OFFCURVE",
"617 397 CURVE",
"604 399 OFFCURVE",
"595 399 OFFCURVE",
"582 395 CURVE",
"568 407 OFFCURVE",
"548 408 OFFCURVE",
"534 398 CURVE",
"523 402 OFFCURVE",
"510 401 OFFCURVE",
"500 395 CURVE",
"508 409 OFFCURVE",
"508 429 OFFCURVE",
"497 442 CURVE",
"512 469 OFFCURVE",
"506 497 OFFCURVE",
"495 517 CURVE",
"509 535 OFFCURVE",
"506 570 OFFCURVE",
"499 588 CURVE",
"507 589 OFFCURVE",
"522 596 OFFCURVE",
"529 600 CURVE",
"548 589 OFFCURVE",
"568 590 OFFCURVE",
"583 596 CURVE",
"601 590 OFFCURVE",
"618 590 OFFCURVE",
"636 599 CURVE",
"654 589 OFFCURVE",
"688 587 OFFCURVE",
"707 595 CURVE",
"722 585 OFFCURVE",
"743 581 OFFCURVE",
"755 594 CURVE",
"820 557 OFFCURVE",
"835 657 OFFCURVE",
"793 656 CURVE"
);
},
{
closed = 1;
nodes = (
"333 314 OFFCURVE",
"319 315 OFFCURVE",
"307 311 CURVE",
"300 316 OFFCURVE",
"290 318 OFFCURVE",
"281 317 CURVE",
"293 329 OFFCURVE",
"298 341 OFFCURVE",
"296 352 CURVE",
"318 356 OFFCURVE",
"330 363 OFFCURVE",
"331 390 CURVE",
"351 400 OFFCURVE",
"348 417 OFFCURVE",
"352 435 CURVE",
"368 441 OFFCURVE",
"379 458 OFFCURVE",
"376 475 CURVE",
"397 477 OFFCURVE",
"413 496 OFFCURVE",
"410 517 CURVE",
"413 519 OFFCURVE",
"415 521 OFFCURVE",
"417 523 CURVE",
"416 505 OFFCURVE",
"421 490 OFFCURVE",
"426 466 CURVE",
"402 445 OFFCURVE",
"416 383 OFFCURVE",
"427 360 CURVE",
"417 345 OFFCURVE",
"414 328 OFFCURVE",
"416 310 CURVE",
"391 313 OFFCURVE",
"364 315 OFFCURVE",
"343 306 CURVE"
);
}
);
width = 872;
}
);
unicode = 00C6;
},
{
glyphname = B;
layers = (
{
layerId = "44398CD6-F961-4ECB-B01A-EEBF1DAB2450";
paths = (
{
closed = 1;
nodes = (
"479 358 OFFCURVE",
"462 370 OFFCURVE",
"440 370 CURVE",
"437 376 OFFCURVE",
"434 387 OFFCURVE",
"405 387 CURVE",
"428 386 OFFCURVE",
"439 387 OFFCURVE",
"446 394 CURVE",
"465 400 OFFCURVE",
"472 411 OFFCURVE",
"479 428 CURVE",
"487 437 OFFCURVE",
"492 448 OFFCURVE",
"489 457 CURVE",
"499 467 OFFCURVE",
"510 494 OFFCURVE",
"496 515 CURVE",
"503 521 OFFCURVE",
"501 529 OFFCURVE",
"498 539 CURVE",
"513 555 OFFCURVE",
"501 604 OFFCURVE",
"485 603 CURVE",
"485 618 OFFCURVE",
"473 644 OFFCURVE",
"459 651 CURVE",
"446 675 OFFCURVE",
"416 679 OFFCURVE",
"398 665 CURVE",
"382 688 OFFCURVE",
"354 696 OFFCURVE",
"330 694 CURVE",
"319 702 OFFCURVE",
"300 716 OFFCURVE",
"276 703 CURVE",
"259 718 OFFCURVE",
"221 705 OFFCURVE",
"210 698 CURVE",
"189 710 OFFCURVE",
"167 707 OFFCURVE",
"143 696 CURVE",
"132 726 OFFCURVE",
"92 731 OFFCURVE",
"72 706 CURVE",
"59 686 OFFCURVE",
"67 649 OFFCURVE",
"84 632 CURVE",
"70 610 OFFCURVE",
"63 554 OFFCURVE",
"86 534 CURVE",
"82 517 OFFCURVE",
"76 476 OFFCURVE",
"90 461 CURVE",
"86 451 OFFCURVE",
"87 441 OFFCURVE",
"90 431 CURVE",
"79 419 OFFCURVE",
"78 398 OFFCURVE",
"89 385 CURVE",
"82 370 OFFCURVE",
"87 352 OFFCURVE",
"97 341 CURVE",
"74 320 OFFCURVE",
"88 246 OFFCURVE",
"98 224 CURVE",
"87 205 OFFCURVE",
"89 163 OFFCURVE",
"98 136 CURVE",
"95 106 OFFCURVE",
"95 62 OFFCURVE",
"131 51 CURVE",
"126 9 OFFCURVE",
"185 -10 OFFCURVE",
"215 11 CURVE",
"226 0 OFFCURVE",
"253 -1 OFFCURVE",
"270 9 CURVE",
"282 3 OFFCURVE",
"296 3 OFFCURVE",
"307 10 CURVE",
"340 0 OFFCURVE",
"384 23 OFFCURVE",
"388 37 CURVE",
"418 33 OFFCURVE",
"432 42 OFFCURVE",
"443 68 CURVE",
"464 66 OFFCURVE",
"498 104 OFFCURVE",
"487 124 CURVE",
"497 126 OFFCURVE",
"506 132 OFFCURVE",
"502 148 CURVE",
"517 165 OFFCURVE",
"518 207 OFFCURVE",
"509 220 CURVE",
"522 234 OFFCURVE",
"523 277 OFFCURVE",
"506 292 CURVE",
"511 308 OFFCURVE",
"497 325 OFFCURVE",
"483 333 CURVE"
);
},
{
closed = 1;
nodes = (
"309 101 OFFCURVE",
"296 100 OFFCURVE",
"285 92 CURVE",
"271 100 OFFCURVE",
"253 98 OFFCURVE",
"241 87 CURVE",
"237 96 OFFCURVE",
"218 99 OFFCURVE",
"208 95 CURVE",
"205 110 OFFCURVE",
"193 123 OFFCURVE",
"178 125 CURVE",
"183 145 OFFCURVE",
"186 173 OFFCURVE",
"172 190 CURVE",
"180 213 OFFCURVE",
"185 282 OFFCURVE",
"172 299 CURVE",
"200 292 OFFCURVE",
"221 298 OFFCURVE",
"244 309 CURVE",
"268 301 OFFCURVE",
"283 306 OFFCURVE",
"299 316 CURVE",
"325 308 OFFCURVE",
"343 311 OFFCURVE",
"369 321 CURVE",
"376 307 OFFCURVE",
"390 290 OFFCURVE",
"408 290 CURVE",
"403 268 OFFCURVE",
"417 226 OFFCURVE",
"426 221 CURVE",
"425 205 OFFCURVE",
"417 193 OFFCURVE",
"429 178 CURVE",
"416 172 OFFCURVE",
"410 163 OFFCURVE",
"408 149 CURVE",
"389 143 OFFCURVE",
"378 130 OFFCURVE",
"376 112 CURVE",
"361 118 OFFCURVE",
"332 114 OFFCURVE",
"322 96 CURVE"
);
},
{
closed = 1;
nodes = (
"308 608 OFFCURVE",
"335 605 OFFCURVE",
"353 610 CURVE",
"362 595 OFFCURVE",
"383 587 OFFCURVE",
"398 593 CURVE",
"396 576 OFFCURVE",
"404 544 OFFCURVE",
"416 527 CURVE",
"408 515 OFFCURVE",
"402 479 OFFCURVE",
"415 460 CURVE",
"403 458 OFFCURVE",
"369 438 OFFCURVE",
"355 419 CURVE",
"340 422 OFFCURVE",
"301 414 OFFCURVE",
"284 400 CURVE",
"261 409 OFFCURVE",
"236 414 OFFCURVE",
"224 398 CURVE",
"210 407 OFFCURVE",
"192 407 OFFCURVE",
"175 387 CURVE",
"175 393 OFFCURVE",
"174 401 OFFCURVE",
"170 408 CURVE",
"177 420 OFFCURVE",
"177 435 OFFCURVE",
"170 448 CURVE",
"178 464 OFFCURVE",
"176 504 OFFCURVE",
"165 517 CURVE",
"170 537 OFFCURVE",
"169 596 OFFCURVE",
"151 610 CURVE",
"168 605 OFFCURVE",
"194 604 OFFCURVE",
"207 616 CURVE",
"235 599 OFFCURVE",
"284 596 OFFCURVE",
"299 616 CURVE"
);
}
);
width = 566;
}
);
note = B;
unicode = 0042;
},
{
glyphname = C;
layers = (
{
layerId = "44398CD6-F961-4ECB-B01A-EEBF1DAB2450";
paths = (
{
closed = 1;
nodes = (
"480 249 OFFCURVE",
"467 217 OFFCURVE",
"473 199 CURVE",
"466 191 OFFCURVE",
"458 173 OFFCURVE",
"457 162 CURVE",
"451 154 OFFCURVE",
"446 145 OFFCURVE",
"445 133 CURVE",
"427 129 OFFCURVE",
"417 121 OFFCURVE",
"399 106 CURVE",
"384 110 OFFCURVE",
"367 104 OFFCURVE",
"356 90 CURVE",
"344 99 OFFCURVE",
"303 92 OFFCURVE",
"291 82 CURVE",
"281 102 OFFCURVE",
"251 113 OFFCURVE",
"230 112 CURVE",
"225 120 OFFCURVE",
"208 131 OFFCURVE",
"201 134 CURVE",
"196 170 OFFCURVE",
"187 182 OFFCURVE",
"158 198 CURVE",
"166 212 OFFCURVE",
"162 242 OFFCURVE",
"146 251 CURVE",
"158 268 OFFCURVE",
"152 293 OFFCURVE",
"133 304 CURVE",
"135 328 OFFCURVE",
"153 345 OFFCURVE",
"138 368 CURVE",
"144 380 OFFCURVE",
"143 395 OFFCURVE",
"137 406 CURVE",
"141 412 OFFCURVE",
"142 420 OFFCURVE",
"142 427 CURVE",
"166 442 OFFCURVE",
"160 465 OFFCURVE",
"157 487 CURVE",
"165 493 OFFCURVE",
"171 504 OFFCURVE",
"172 514 CURVE",
"186 523 OFFCURVE",
"196 539 OFFCURVE",
"193 556 CURVE",
"208 559 OFFCURVE",
"216 581 OFFCURVE",
"218 600 CURVE",
"227 601 OFFCURVE",
"233 605 OFFCURVE",
"239 610 CURVE",
"253 606 OFFCURVE",
"266 608 OFFCURVE",
"278 616 CURVE",
"286 613 OFFCURVE",
"297 613 OFFCURVE",
"305 615 CURVE",
"316 607 OFFCURVE",
"344 600 OFFCURVE",
"360 604 CURVE",
"367 596 OFFCURVE",
"378 593 OFFCURVE",
"388 593 CURVE",
"387 580 OFFCURVE",
"393 566 OFFCURVE",
"405 558 CURVE",
"404 540 OFFCURVE",
"414 522 OFFCURVE",
"430 517 CURVE",
"432 494 OFFCURVE",
"445 474 OFFCURVE",
"461 457 CURVE",
"490 428 OFFCURVE",
"539 456 OFFCURVE",
"529 495 CURVE",
"534 515 OFFCURVE",
"527 537 OFFCURVE",
"511 551 CURVE",
"507 563 OFFCURVE",
"505 573 OFFCURVE",
"495 581 CURVE",
"498 594 OFFCURVE",
"491 614 OFFCURVE",
"471 624 CURVE",
"475 647 OFFCURVE",
"446 673 OFFCURVE",
"419 678 CURVE",
"414 691 OFFCURVE",
"369 706 OFFCURVE",
"355 697 CURVE",
"346 710 OFFCURVE",
"329 712 OFFCURVE",
"314 708 CURVE",
"307 718 OFFCURVE",
"280 721 OFFCURVE",
"259 702 CURVE",
"241 712 OFFCURVE",
"207 701 OFFCURVE",
"197 684 CURVE",
"175 681 OFFCURVE",
"150 661 OFFCURVE",
"146 630 CURVE",
"127 622 OFFCURVE",
"107 595 OFFCURVE",
"109 576 CURVE",
"99 569 OFFCURVE",
"92 557 OFFCURVE",
"92 543 CURVE",
"73 540 OFFCURVE",
"66 495 OFFCURVE",
"74 481 CURVE",
"57 468 OFFCURVE",
"46 406 OFFCURVE",
"58 389 CURVE",
"51 377 OFFCURVE",
"51 361 OFFCURVE",
"60 348 CURVE",
"45 329 OFFCURVE",
"44 287 OFFCURVE",
"63 266 CURVE",
"57 253 OFFCURVE",
"60 238 OFFCURVE",
"69 228 CURVE",
"66 213 OFFCURVE",
"70 204 OFFCURVE",
"76 197 CURVE",
"82 167 OFFCURVE",
"92 147 OFFCURVE",
"117 130 CURVE",
"116 98 OFFCURVE",
"128 76 OFFCURVE",
"153 64 CURVE",
"157 54 OFFCURVE",
"164 50 OFFCURVE",
"171 46 CURVE",
"184 36 OFFCURVE",
"197 34 OFFCURVE",
"211 35 CURVE",
"237 0 OFFCURVE",
"304 -2 OFFCURVE",
"326 7 CURVE",
"345 -6 OFFCURVE",
"383 0 OFFCURVE",
"398 17 CURVE",
"432 5 OFFCURVE",
"452 31 OFFCURVE",
"458 51 CURVE",
"483 58 OFFCURVE",
"496 64 OFFCURVE",
"513 86 CURVE",
"525 103 OFFCURVE",
"534 117 OFFCURVE",
"538 140 CURVE",
"554 158 OFFCURVE",
"563 183 OFFCURVE",
"557 204 CURVE",
"578 229 OFFCURVE",
"591 273 OFFCURVE",
"548 285 CURVE",
"528 291 OFFCURVE",
"502 280 OFFCURVE",
"495 261 CURVE"
);
}
);
width = 617;
}
);
note = C;
unicode = 0043;
},
{
glyphname = D;
layers = (
{
layerId = "44398CD6-F961-4ECB-B01A-EEBF1DAB2450";
paths = (
{
closed = 1;
nodes = (
"500 628 OFFCURVE",
"483 640 OFFCURVE",
"467 640 CURVE",
"457 656 OFFCURVE",
"430 670 OFFCURVE",
"406 658 CURVE",
"400 684 OFFCURVE",
"368 698 OFFCURVE",
"344 691 CURVE",
"332 704 OFFCURVE",
"309 707 OFFCURVE",
"294 697 CURVE",
"271 708 OFFCURVE",
"238 707 OFFCURVE",
"213 700 CURVE",
"212 713 OFFCURVE",
"161 716 OFFCURVE",
"151 701 CURVE",
"130 716 OFFCURVE",
"101 710 OFFCURVE",
"91 687 CURVE",
"62 673 OFFCURVE",
"60 634 OFFCURVE",
"87 617 CURVE",
"86 605 OFFCURVE",
"86 587 OFFCURVE",
"92 575 CURVE",
"87 567 OFFCURVE",
"86 555 OFFCURVE",
"88 546 CURVE",
"73 526 OFFCURVE",
"80 481 OFFCURVE",
"96 461 CURVE",
"76 435 OFFCURVE",
"88 383 OFFCURVE",
"100 363 CURVE",
"82 326 OFFCURVE",
"81 290 OFFCURVE",
"96 257 CURVE",
"81 237 OFFCURVE",
"80 196 OFFCURVE",
"98 164 CURVE",
"90 152 OFFCURVE",
"89 142 OFFCURVE",
"96 127 CURVE",
"83 109 OFFCURVE",
"88 85 OFFCURVE",
"105 71 CURVE",
"101 43 OFFCURVE",
"101 7 OFFCURVE",
"140 7 CURVE",
"163 -9 OFFCURVE",
"196 5 OFFCURVE",
"207 21 CURVE",
"240 8 OFFCURVE",
"285 35 OFFCURVE",
"301 48 CURVE",
"322 53 OFFCURVE",
"336 54 OFFCURVE",
"347 71 CURVE",
"369 79 OFFCURVE",
"387 93 OFFCURVE",
"389 118 CURVE",
"410 118 OFFCURVE",
"421 123 OFFCURVE",
"429 145 CURVE",
"444 148 OFFCURVE",
"456 158 OFFCURVE",
"460 172 CURVE",
"478 177 OFFCURVE",
"484 185 OFFCURVE",
"487 200 CURVE",
"504 205 OFFCURVE",
"516 216 OFFCURVE",
"515 229 CURVE",
"521 231 OFFCURVE",
"526 236 OFFCURVE",
"530 240 CURVE",
"540 249 OFFCURVE",
"542 263 OFFCURVE",
"540 277 CURVE",
"548 284 OFFCURVE",
"560 305 OFFCURVE",
"561 319 CURVE",
"590 331 OFFCURVE",
"597 381 OFFCURVE",
"583 410 CURVE",
"590 428 OFFCURVE",
"588 458 OFFCURVE",
"584 469 CURVE",
"600 489 OFFCURVE",
"582 535 OFFCURVE",
"560 547 CURVE",
"561 570 OFFCURVE",
"529 599 OFFCURVE",
"504 605 CURVE"
);
},
{
closed = 1;
nodes = (
"222 116 OFFCURVE",
"202 121 OFFCURVE",
"184 110 CURVE",
"189 123 OFFCURVE",
"178 143 OFFCURVE",
"175 147 CURVE",
"182 163 OFFCURVE",
"175 181 OFFCURVE",
"173 198 CURVE",
"171 217 OFFCURVE",
"177 232 OFFCURVE",
"176 251 CURVE",
"173 278 OFFCURVE",
"174 305 OFFCURVE",
"165 329 CURVE",
"180 348 OFFCURVE",
"181 390 OFFCURVE",
"170 411 CURVE",
"184 437 OFFCURVE",
"176 512 OFFCURVE",
"164 528 CURVE",
"177 543 OFFCURVE",
"177 613 OFFCURVE",
"165 624 CURVE",
"165 624 OFFCURVE",
"165 625 OFFCURVE",
"166 625 CURVE",
"171 625 OFFCURVE",
"176 626 OFFCURVE",
"180 628 CURVE",
"201 613 OFFCURVE",
"230 618 OFFCURVE",
"249 625 CURVE",
"264 616 OFFCURVE",
"288 610 OFFCURVE",
"308 618 CURVE",
"318 611 OFFCURVE",
"332 609 OFFCURVE",
"343 612 CURVE",
"349 588 OFFCURVE",
"384 581 OFFCURVE",
"396 584 CURVE",
"404 573 OFFCURVE",
"424 567 OFFCURVE",
"433 568 CURVE",
"435 547 OFFCURVE",
"451 530 OFFCURVE",
"472 530 CURVE",
"478 522 OFFCURVE",
"480 517 OFFCURVE",
"489 514 CURVE",
"489 505 OFFCURVE",
"496 499 OFFCURVE",
"501 493 CURVE",
"495 479 OFFCURVE",
"497 433 OFFCURVE",
"505 422 CURVE",
"502 411 OFFCURVE",
"502 401 OFFCURVE",
"506 391 CURVE",
"492 386 OFFCURVE",
"484 355 OFFCURVE",
"482 335 CURVE",
"472 329 OFFCURVE",
"463 310 OFFCURVE",
"461 293 CURVE",
"450 287 OFFCURVE",
"444 277 OFFCURVE",
"442 265 CURVE",
"431 260 OFFCURVE",
"424 251 OFFCURVE",
"420 240 CURVE",
"412 237 OFFCURVE",
"404 231 OFFCURVE",
"399 224 CURVE",
"381 225 OFFCURVE",
"361 205 OFFCURVE",
"358 183 CURVE",
"340 176 OFFCURVE",
"315 166 OFFCURVE",
"315 144 CURVE",
"302 144 OFFCURVE",
"293 137 OFFCURVE",
"285 125 CURVE",
"266 125 OFFCURVE",
"240 118 OFFCURVE",
"231 106 CURVE"
);
}
);
width = 627;
}
);
note = D;
unicode = 0044;
},
{
glyphname = Eth;
layers = (
{
layerId = "44398CD6-F961-4ECB-B01A-EEBF1DAB2450";
paths = (
{
closed = 1;
nodes = (
"628 487 OFFCURVE",
"610 533 OFFCURVE",
"588 545 CURVE",
"589 568 OFFCURVE",
"557 597 OFFCURVE",
"532 603 CURVE",
"528 626 OFFCURVE",
"511 638 OFFCURVE",
"495 638 CURVE",
"485 654 OFFCURVE",
"458 668 OFFCURVE",
"434 656 CURVE",
"428 682 OFFCURVE",
"396 696 OFFCURVE",
"372 689 CURVE",
"360 702 OFFCURVE",
"337 705 OFFCURVE",
"322 695 CURVE",
"299 706 OFFCURVE",
"266 705 OFFCURVE",
"241 698 CURVE",
"240 711 OFFCURVE",
"189 714 OFFCURVE",
"179 699 CURVE",
"158 714 OFFCURVE",
"129 708 OFFCURVE",
"119 685 CURVE",
"90 671 OFFCURVE",
"88 632 OFFCURVE",
"115 615 CURVE",
"114 603 OFFCURVE",
"114 585 OFFCURVE",
"120 573 CURVE",
"115 565 OFFCURVE",
"114 553 OFFCURVE",
"116 544 CURVE",
"101 524 OFFCURVE",
"108 479 OFFCURVE",
"124 459 CURVE",
"115 447 OFFCURVE",
"113 430 OFFCURVE",
"114 413 CURVE",
"99 418 OFFCURVE",
"80 419 OFFCURVE",
"68 408 CURVE",
"6 403 OFFCURVE",
"21 331 OFFCURVE",
"75 334 CURVE",
"87 335 OFFCURVE",
"88 337 OFFCURVE",
"94 341 CURVE",
"104 338 OFFCURVE",
"111 336 OFFCURVE",
"119 335 CURVE",
"111 307 OFFCURVE",
"113 280 OFFCURVE",
"124 255 CURVE",
"109 235 OFFCURVE",
"108 194 OFFCURVE",
"126 162 CURVE",
"118 150 OFFCURVE",
"117 140 OFFCURVE",
"124 125 CURVE",
"111 107 OFFCURVE",
"116 83 OFFCURVE",
"133 69 CURVE",
"129 41 OFFCURVE",
"129 5 OFFCURVE",
"168 5 CURVE",
"191 -11 OFFCURVE",
"224 3 OFFCURVE",
"235 19 CURVE",
"268 6 OFFCURVE",
"313 33 OFFCURVE",
"329 46 CURVE",
"350 51 OFFCURVE",
"364 52 OFFCURVE",
"375 69 CURVE",
"397 77 OFFCURVE",
"415 91 OFFCURVE",
"417 116 CURVE",
"438 116 OFFCURVE",
"449 121 OFFCURVE",
"457 143 CURVE",
"472 146 OFFCURVE",
"484 156 OFFCURVE",
"488 170 CURVE",
"506 175 OFFCURVE",
"512 183 OFFCURVE",
"515 198 CURVE",
"532 203 OFFCURVE",
"544 214 OFFCURVE",
"543 227 CURVE",
"549 229 OFFCURVE",
"554 234 OFFCURVE",
"558 238 CURVE",
"568 247 OFFCURVE",
"570 261 OFFCURVE",
"568 275 CURVE",
"576 282 OFFCURVE",
"588 303 OFFCURVE",
"589 317 CURVE",
"618 329 OFFCURVE",
"625 379 OFFCURVE",
"611 408 CURVE",
"618 426 OFFCURVE",
"616 456 OFFCURVE",
"612 467 CURVE"
);
},
{
closed = 1;
nodes = (
"500 327 OFFCURVE",
"491 308 OFFCURVE",
"489 291 CURVE",
"478 285 OFFCURVE",
"472 275 OFFCURVE",
"470 263 CURVE",
"459 258 OFFCURVE",
"452 249 OFFCURVE",
"448 238 CURVE",
"440 235 OFFCURVE",
"432 229 OFFCURVE",
"427 222 CURVE",
"409 223 OFFCURVE",
"389 203 OFFCURVE",
"386 181 CURVE",
"368 174 OFFCURVE",
"343 164 OFFCURVE",
"343 142 CURVE",
"330 142 OFFCURVE",
"321 135 OFFCURVE",
"313 123 CURVE",
"294 123 OFFCURVE",
"268 116 OFFCURVE",
"259 104 CURVE",
"250 114 OFFCURVE",
"230 119 OFFCURVE",
"212 108 CURVE",
"217 121 OFFCURVE",
"206 141 OFFCURVE",
"203 145 CURVE",
"210 161 OFFCURVE",
"203 179 OFFCURVE",
"201 196 CURVE",
"199 215 OFFCURVE",
"205 230 OFFCURVE",
"204 249 CURVE",
"201 276 OFFCURVE",
"202 303 OFFCURVE",
"193 327 CURVE",
"197 330 OFFCURVE",
"199 335 OFFCURVE",
"201 341 CURVE",
"215 337 OFFCURVE",
"226 334 OFFCURVE",
"250 347 CURVE",
"300 351 OFFCURVE",
"321 417 OFFCURVE",
"247 415 CURVE",
"233 420 OFFCURVE",
"218 423 OFFCURVE",
"204 415 CURVE",
"203 415 OFFCURVE",
"202 416 OFFCURVE",
"201 416 CURVE",
"211 446 OFFCURVE",
"203 511 OFFCURVE",
"192 526 CURVE",
"205 541 OFFCURVE",
"205 611 OFFCURVE",
"193 622 CURVE",
"193 622 OFFCURVE",
"193 623 OFFCURVE",
"194 623 CURVE",
"199 623 OFFCURVE",
"204 624 OFFCURVE",
"208 626 CURVE",
"229 611 OFFCURVE",
"258 616 OFFCURVE",
"277 623 CURVE",
"292 614 OFFCURVE",
"316 608 OFFCURVE",
"336 616 CURVE",
"346 609 OFFCURVE",
"360 607 OFFCURVE",
"371 610 CURVE",
"377 586 OFFCURVE",
"412 579 OFFCURVE",
"424 582 CURVE",
"432 571 OFFCURVE",
"452 565 OFFCURVE",
"461 566 CURVE",
"463 545 OFFCURVE",
"479 528 OFFCURVE",
"500 528 CURVE",
"506 520 OFFCURVE",
"508 515 OFFCURVE",
"517 512 CURVE",
"517 503 OFFCURVE",
"524 497 OFFCURVE",
"529 491 CURVE",
"523 477 OFFCURVE",
"525 431 OFFCURVE",
"533 420 CURVE",
"530 409 OFFCURVE",
"530 399 OFFCURVE",
"534 389 CURVE",
"520 384 OFFCURVE",
"512 353 OFFCURVE",
"510 333 CURVE"
);
}
);
width = 671;
}
);
unicode = 00D0;
},
{
glyphname = E;
layers = (
{
layerId = "44398CD6-F961-4ECB-B01A-EEBF1DAB2450";
paths = (
{
closed = 1;
nodes = (
"379 710 OFFCURVE",
"361 709 OFFCURVE",
"348 696 CURVE",
"326 709 OFFCURVE",
"283 709 OFFCURVE",
"272 701 CURVE",
"262 709 OFFCURVE",
"248 707 OFFCURVE",
"234 702 CURVE",
"214 717 OFFCURVE",
"184 715 OFFCURVE",
"161 708 CURVE",
"142 724 OFFCURVE",
"104 717 OFFCURVE",
"88 701 CURVE",
"57 693 OFFCURVE",
"46 654 OFFCURVE",
"69 632 CURVE",
"67 622 OFFCURVE",
"73 595 OFFCURVE",
"79 586 CURVE",
"66 546 OFFCURVE",
"75 532 OFFCURVE",
"83 493 CURVE",
"57 471 OFFCURVE",
"71 406 OFFCURVE",
"83 381 CURVE",
"67 358 OFFCURVE",
"67 331 OFFCURVE",
"78 306 CURVE",
"70 295 OFFCURVE",
"69 280 OFFCURVE",
"76 267 CURVE",
"66 254 OFFCURVE",
"67 233 OFFCURVE",
"78 221 CURVE",
"75 210 OFFCURVE",
"76 197 OFFCURVE",
"81 187 CURVE",
"68 172 OFFCURVE",
"65 120 OFFCURVE",
"84 102 CURVE",
"81 86 OFFCURVE",
"84 59 OFFCURVE",
"95 47 CURVE",
"87 6 OFFCURVE",
"143 -18 OFFCURVE",
"168 17 CURVE",
"189 1 OFFCURVE",
"217 11 OFFCURVE",
"233 21 CURVE",
"256 17 OFFCURVE",
"278 20 OFFCURVE",
"294 37 CURVE",
"314 18 OFFCURVE",
"356 26 OFFCURVE",
"372 45 CURVE",
"393 33 OFFCURVE",
"429 43 OFFCURVE",
"436 59 CURVE",
"481 87 OFFCURVE",
"439 155 OFFCURVE",
"395 129 CURVE",
"375 137 OFFCURVE",
"338 128 OFFCURVE",
"326 110 CURVE",
"309 124 OFFCURVE",
"268 122 OFFCURVE",
"253 104 CURVE",
"237 107 OFFCURVE",
"211 107 OFFCURVE",
"195 95 CURVE",
"187 102 OFFCURVE",
"177 106 OFFCURVE",
"166 104 CURVE",
"168 119 OFFCURVE",
"170 135 OFFCURVE",
"158 144 CURVE",
"164 148 OFFCURVE",
"167 159 OFFCURVE",
"160 167 CURVE",
"169 184 OFFCURVE",
"171 187 OFFCURVE",
"162 206 CURVE",
"171 218 OFFCURVE",
"171 234 OFFCURVE",
"162 247 CURVE",
"169 260 OFFCURVE",
"169 275 OFFCURVE",
"160 286 CURVE",
"170 306 OFFCURVE",
"165 318 OFFCURVE",
"157 335 CURVE",
"167 333 OFFCURVE",
"171 335 OFFCURVE",
"179 340 CURVE",
"190 332 OFFCURVE",
"203 331 OFFCURVE",
"216 338 CURVE",
"233 330 OFFCURVE",
"258 330 OFFCURVE",
"272 342 CURVE",
"279 335 OFFCURVE",
"293 339 OFFCURVE",
"299 344 CURVE",
"314 333 OFFCURVE",
"342 332 OFFCURVE",
"356 346 CURVE",
"374 334 OFFCURVE",
"405 330 OFFCURVE",
"420 348 CURVE",
"489 353 OFFCURVE",
"450 445 OFFCURVE",
"391 413 CURVE",
"375 418 OFFCURVE",
"372 419 OFFCURVE",
"358 414 CURVE",
"354 420 OFFCURVE",
"337 422 OFFCURVE",
"325 414 CURVE",
"315 423 OFFCURVE",
"299 424 OFFCURVE",
"283 420 CURVE",
"270 423 OFFCURVE",
"261 423 OFFCURVE",
"246 419 CURVE",
"232 432 OFFCURVE",
"212 433 OFFCURVE",
"196 422 CURVE",
"185 426 OFFCURVE",
"172 425 OFFCURVE",
"160 419 CURVE",
"169 435 OFFCURVE",
"169 454 OFFCURVE",
"158 468 CURVE",
"173 497 OFFCURVE",
"167 527 OFFCURVE",
"155 546 CURVE",
"171 567 OFFCURVE",
"168 603 OFFCURVE",
"159 623 CURVE",
"168 624 OFFCURVE",
"184 631 OFFCURVE",
"191 635 CURVE",
"211 623 OFFCURVE",
"232 625 OFFCURVE",
"248 631 CURVE",
"267 625 OFFCURVE",
"284 625 OFFCURVE",
"304 634 CURVE",
"323 624 OFFCURVE",
"359 621 OFFCURVE",
"379 630 CURVE",
"395 619 OFFCURVE",
"416 615 OFFCURVE",
"429 628 CURVE",
"498 590 OFFCURVE",
"514 694 OFFCURVE",
"470 694 CURVE",
"448 709 OFFCURVE",
"416 714 OFFCURVE",
"398 702 CURVE"
);
}
);
width = 520;
}
);
note = E;
unicode = 0045;
},
{
glyphname = F;
layers = (
{
layerId = "44398CD6-F961-4ECB-B01A-EEBF1DAB2450";
paths = (
{
closed = 1;
nodes = (
"444 724 OFFCURVE",
"416 721 OFFCURVE",
"403 713 CURVE",
"390 719 OFFCURVE",
"375 718 OFFCURVE",
"363 710 CURVE",
"353 715 OFFCURVE",
"341 715 OFFCURVE",
"330 711 CURVE",
"309 725 OFFCURVE",
"270 719 OFFCURVE",
"249 709 CURVE",
"233 720 OFFCURVE",
"196 713 OFFCURVE",
"182 701 CURVE",
"161 709 OFFCURVE",
"133 705 OFFCURVE",
"120 692 CURVE",
"98 689 OFFCURVE",
"90 674 OFFCURVE",
"97 647 CURVE",
"90 629 OFFCURVE",
"84 596 OFFCURVE",
"98 582 CURVE",
"82 562 OFFCURVE",
"79 529 OFFCURVE",
"100 505 CURVE",
"87 490 OFFCURVE",
"88 461 OFFCURVE",
"97 452 CURVE",
"87 438 OFFCURVE",
"89 405 OFFCURVE",
"98 391 CURVE",
"85 381 OFFCURVE",
"85 351 OFFCURVE",
"99 333 CURVE",
"93 319 OFFCURVE",
"97 289 OFFCURVE",
"107 278 CURVE",
"97 268 OFFCURVE",
"97 221 OFFCURVE",
"108 204 CURVE",
"97 195 OFFCURVE",
"94 154 OFFCURVE",
"106 136 CURVE",
"98 119 OFFCURVE",
"101 85 OFFCURVE",
"115 71 CURVE",
"100 54 OFFCURVE",
"97 23 OFFCURVE",
"126 6 CURVE",
"151 -9 OFFCURVE",
"195 5 OFFCURVE",
"188 49 CURVE",
"202 68 OFFCURVE",
"203 95 OFFCURVE",
"185 112 CURVE",
"197 125 OFFCURVE",
"200 145 OFFCURVE",
"191 160 CURVE",
"204 185 OFFCURVE",
"194 222 OFFCURVE",
"179 242 CURVE",
"193 257 OFFCURVE",
"193 293 OFFCURVE",
"181 306 CURVE",
"190 309 OFFCURVE",
"196 311 OFFCURVE",
"202 318 CURVE",
"221 301 OFFCURVE",
"240 306 OFFCURVE",
"257 313 CURVE",
"273 306 OFFCURVE",
"292 304 OFFCURVE",
"310 315 CURVE",
"329 306 OFFCURVE",
"370 308 OFFCURVE",
"388 318 CURVE",
"401 311 OFFCURVE",
"417 311 OFFCURVE",
"430 320 CURVE",
"482 296 OFFCURVE",
"514 381 OFFCURVE",
"459 397 CURVE",
"446 410 OFFCURVE",
"412 406 OFFCURVE",
"401 393 CURVE",
"383 403 OFFCURVE",
"354 402 OFFCURVE",
"338 392 CURVE",
"325 403 OFFCURVE",
"291 406 OFFCURVE",
"279 392 CURVE",
"267 395 OFFCURVE",
"246 397 OFFCURVE",
"234 392 CURVE",
"220 402 OFFCURVE",
"202 400 OFFCURVE",
"186 398 CURVE",
"185 404 OFFCURVE",
"184 409 OFFCURVE",
"181 414 CURVE",
"194 435 OFFCURVE",
"190 447 OFFCURVE",
"176 464 CURVE",
"183 480 OFFCURVE",
"199 521 OFFCURVE",
"174 542 CURVE",
"187 564 OFFCURVE",
"194 593 OFFCURVE",
"176 617 CURVE",
"198 616 OFFCURVE",
"212 618 OFFCURVE",
"224 631 CURVE",
"251 613 OFFCURVE",
"277 625 OFFCURVE",
"291 636 CURVE",
"305 627 OFFCURVE",
"323 620 OFFCURVE",
"345 631 CURVE",
"359 622 OFFCURVE",
"377 623 OFFCURVE",
"390 633 CURVE",
"407 626 OFFCURVE",
"424 627 OFFCURVE",
"437 638 CURVE",
"452 625 OFFCURVE",
"476 624 OFFCURVE",
"492 638 CURVE",
"578 615 OFFCURVE",
"583 720 OFFCURVE",
"523 715 CURVE",
"512 725 OFFCURVE",
"472 731 OFFCURVE",
"459 718 CURVE"
);
}
);
width = 602;
}
);
note = F;
unicode = 0046;
},
{
glyphname = G;
layers = (
{
layerId = "44398CD6-F961-4ECB-B01A-EEBF1DAB2450";
paths = (
{
closed = 1;
nodes = (
"600 361 OFFCURVE",
"591 389 OFFCURVE",
"560 395 CURVE",
"548 413 OFFCURVE",
"526 418 OFFCURVE",
"501 409 CURVE",
"478 421 OFFCURVE",
"432 414 OFFCURVE",
"414 403 CURVE",
"384 420 OFFCURVE",
"306 406 OFFCURVE",
"299 367 CURVE",
"295 345 OFFCURVE",
"311 316 OFFCURVE",
"334 315 CURVE",
"345 314 OFFCURVE",
"373 311 OFFCURVE",
"390 324 CURVE",
"400 313 OFFCURVE",
"427 311 OFFCURVE",
"437 322 CURVE",
"448 316 OFFCURVE",
"473 318 OFFCURVE",
"479 329 CURVE",
"495 317 OFFCURVE",
"502 317 OFFCURVE",
"513 320 CURVE",
"510 307 OFFCURVE",
"513 295 OFFCURVE",
"526 287 CURVE",
"518 280 OFFCURVE",
"518 271 OFFCURVE",
"526 263 CURVE",
"508 246 OFFCURVE",
"516 230 OFFCURVE",
"519 210 CURVE",
"505 198 OFFCURVE",
"500 177 OFFCURVE",
"508 162 CURVE",
"489 156 OFFCURVE",
"484 135 OFFCURVE",
"485 115 CURVE",
"474 116 OFFCURVE",
"464 111 OFFCURVE",
"454 105 CURVE",
"442 111 OFFCURVE",
"426 110 OFFCURVE",
"414 101 CURVE",
"405 104 OFFCURVE",
"384 106 OFFCURVE",
"375 102 CURVE",
"361 111 OFFCURVE",
"330 123 OFFCURVE",
"316 115 CURVE",
"306 134 OFFCURVE",
"283 151 OFFCURVE",
"262 152 CURVE",
"263 166 OFFCURVE",
"230 191 OFFCURVE",
"216 188 CURVE",
"210 217 OFFCURVE",
"200 227 OFFCURVE",
"174 247 CURVE",
"176 258 OFFCURVE",
"173 287 OFFCURVE",
"156 304 CURVE",
"156 323 OFFCURVE",
"160 336 OFFCURVE",
"139 347 CURVE",
"151 372 OFFCURVE",
"153 397 OFFCURVE",
"146 421 CURVE",
"160 438 OFFCURVE",
"172 467 OFFCURVE",
"167 489 CURVE",
"188 507 OFFCURVE",
"191 523 OFFCURVE",
"196 544 CURVE",
"211 549 OFFCURVE",
"223 557 OFFCURVE",
"227 571 CURVE",
"241 575 OFFCURVE",
"249 592 OFFCURVE",
"256 608 CURVE",
"275 601 OFFCURVE",
"298 609 OFFCURVE",
"307 629 CURVE",
"321 622 OFFCURVE",
"327 625 OFFCURVE",
"341 626 CURVE",
"351 617 OFFCURVE",
"367 612 OFFCURVE",
"379 618 CURVE",
"383 609 OFFCURVE",
"397 600 OFFCURVE",
"414 606 CURVE",
"414 593 OFFCURVE",
"426 577 OFFCURVE",
"435 569 CURVE",
"433 549 OFFCURVE",
"445 529 OFFCURVE",
"464 524 CURVE",
"473 493 OFFCURVE",
"526 491 OFFCURVE",
"534 522 CURVE",
"558 538 OFFCURVE",
"542 576 OFFCURVE",
"522 590 CURVE",
"530 604 OFFCURVE",
"518 641 OFFCURVE",
"492 637 CURVE",
"488 670 OFFCURVE",
"461 691 OFFCURVE",
"430 682 CURVE",
"422 703 OFFCURVE",
"365 719 OFFCURVE",
"343 707 CURVE",
"333 719 OFFCURVE",
"270 717 OFFCURVE",
"260 696 CURVE",
"239 701 OFFCURVE",
"206 692 OFFCURVE",
"196 672 CURVE",
"176 670 OFFCURVE",
"158 645 OFFCURVE",
"157 622 CURVE",
"120 621 OFFCURVE",
"98 574 OFFCURVE",
"101 548 CURVE",
"83 535 OFFCURVE",
"70 502 OFFCURVE",
"76 471 CURVE",
"61 466 OFFCURVE",
"53 435 OFFCURVE",
"64 415 CURVE",
"53 402 OFFCURVE",
"51 376 OFFCURVE",
"56 354 CURVE",
"55 334 OFFCURVE",
"59 309 OFFCURVE",
"72 297 CURVE",
"72 277 OFFCURVE",
"77 251 OFFCURVE",
"91 236 CURVE",
"85 219 OFFCURVE",
"90 203 OFFCURVE",
"104 192 CURVE",
"104 182 OFFCURVE",
"118 170 OFFCURVE",
"130 166 CURVE",
"131 134 OFFCURVE",
"159 107 OFFCURVE",
"190 103 CURVE",
"195 82 OFFCURVE",
"218 68 OFFCURVE",
"240 71 CURVE",
"242 60 OFFCURVE",
"261 37 OFFCURVE",
"287 39 CURVE",
"300 23 OFFCURVE",
"318 14 OFFCURVE",
"332 21 CURVE",
"337 22 OFFCURVE",
"343 22 OFFCURVE",
"347 19 CURVE",
"362 10 OFFCURVE",
"383 7 OFFCURVE",
"393 12 CURVE",
"408 0 OFFCURVE",
"429 -9 OFFCURVE",
"449 14 CURVE",
"465 11 OFFCURVE",
"502 29 OFFCURVE",
"510 42 CURVE",
"543 43 OFFCURVE",
"561 69 OFFCURVE",
"561 98 CURVE",
"585 106 OFFCURVE",
"599 146 OFFCURVE",
"592 168 CURVE",
"605 180 OFFCURVE",
"609 211 OFFCURVE",
"604 227 CURVE",
"615 239 OFFCURVE",
"616 257 OFFCURVE",
"610 273 CURVE",
"614 286 OFFCURVE",
"612 311 OFFCURVE",
"599 330 CURVE"
);
}
);
width = 663;
}
);
note = G;
unicode = 0047;
},
{
glyphname = H;
layers = (
{
layerId = "44398CD6-F961-4ECB-B01A-EEBF1DAB2450";
paths = (
{
closed = 1;
nodes = (
"560 460 OFFCURVE",
"562 472 OFFCURVE",
"556 488 CURVE",
"563 496 OFFCURVE",
"564 512 OFFCURVE",
"557 518 CURVE",
"562 529 OFFCURVE",
"564 552 OFFCURVE",
"558 563 CURVE",
"564 575 OFFCURVE",
"563 610 OFFCURVE",
"556 621 CURVE",
"565 642 OFFCURVE",
"571 675 OFFCURVE",
"551 690 CURVE",
"536 744 OFFCURVE",
"450 714 OFFCURVE",
"482 659 CURVE",
"477 644 OFFCURVE",
"477 636 OFFCURVE",
"481 622 CURVE",
"472 617 OFFCURVE",
"467 602 OFFCURVE",
"476 585 CURVE",
"469 572 OFFCURVE",
"470 554 OFFCURVE",
"479 542 CURVE",
"476 534 OFFCURVE",
"475 520 OFFCURVE",
"478 511 CURVE",
"470 502 OFFCURVE",
"470 483 OFFCURVE",
"478 467 CURVE",
"472 465 OFFCURVE",
"471 435 OFFCURVE",
"476 423 CURVE",
"456 441 OFFCURVE",
"420 443 OFFCURVE",
"400 429 CURVE",
"384 444 OFFCURVE",
"343 434 OFFCURVE",
"328 427 CURVE",
"305 442 OFFCURVE",
"279 436 OFFCURVE",
"254 427 CURVE",
"243 440 OFFCURVE",
"209 441 OFFCURVE",
"186 429 CURVE",
"193 441 OFFCURVE",
"190 464 OFFCURVE",
"180 476 CURVE",
"187 491 OFFCURVE",
"193 509 OFFCURVE",
"174 528 CURVE",
"190 544 OFFCURVE",
"188 572 OFFCURVE",
"171 586 CURVE",
"182 592 OFFCURVE",
"190 617 OFFCURVE",
"179 631 CURVE",
"188 647 OFFCURVE",
"185 664 OFFCURVE",
"169 679 CURVE",
"152 741 OFFCURVE",
"58 690 OFFCURVE",
"101 642 CURVE",
"96 637 OFFCURVE",
"96 628 OFFCURVE",
"101 620 CURVE",
"85 602 OFFCURVE",
"91 559 OFFCURVE",
"99 546 CURVE",
"93 531 OFFCURVE",
"92 507 OFFCURVE",
"103 493 CURVE",
"97 477 OFFCURVE",
"97 452 OFFCURVE",
"106 433 CURVE",
"93 420 OFFCURVE",
"95 372 OFFCURVE",
"105 347 CURVE",
"102 331 OFFCURVE",
"101 315 OFFCURVE",
"105 299 CURVE",
"103 285 OFFCURVE",
"104 271 OFFCURVE",
"111 256 CURVE",
"101 244 OFFCURVE",
"102 211 OFFCURVE",
"117 200 CURVE",
"107 190 OFFCURVE",
"113 138 OFFCURVE",
"123 122 CURVE",
"108 114 OFFCURVE",
"99 84 OFFCURVE",
"120 57 CURVE",
"99 1 OFFCURVE",
"195 -16 OFFCURVE",
"196 44 CURVE",
"205 61 OFFCURVE",
"200 93 OFFCURVE",
"194 105 CURVE",
"211 132 OFFCURVE",
"204 150 OFFCURVE",
"192 175 CURVE",
"202 190 OFFCURVE",
"200 223 OFFCURVE",
"191 237 CURVE",
"201 260 OFFCURVE",
"197 279 OFFCURVE",
"186 295 CURVE",
"192 317 OFFCURVE",
"192 338 OFFCURVE",
"182 354 CURVE",
"205 342 OFFCURVE",
"228 341 OFFCURVE",
"254 351 CURVE",
"267 341 OFFCURVE",
"294 345 OFFCURVE",
"310 351 CURVE",
"320 344 OFFCURVE",
"353 345 OFFCURVE",
"364 350 CURVE",
"375 342 OFFCURVE",
"393 343 OFFCURVE",
"409 350 CURVE",
"420 340 OFFCURVE",
"431 341 OFFCURVE",
"443 349 CURVE",
"448 342 OFFCURVE",
"461 340 OFFCURVE",
"471 346 CURVE",
"469 339 OFFCURVE",
"471 302 OFFCURVE",
"475 289 CURVE",
"469 280 OFFCURVE",
"470 250 OFFCURVE",
"475 245 CURVE",
"461 230 OFFCURVE",
"463 192 OFFCURVE",
"478 170 CURVE",
"466 142 OFFCURVE",
"465 110 OFFCURVE",
"475 81 CURVE",
"470 56 OFFCURVE",
"467 18 OFFCURVE",
"493 5 CURVE",
"529 -12 OFFCURVE",
"549 19 OFFCURVE",
"550 48 CURVE",
"559 61 OFFCURVE",
"556 80 OFFCURVE",
"547 94 CURVE",
"556 107 OFFCURVE",
"559 140 OFFCURVE",
"551 154 CURVE",
"558 162 OFFCURVE",
"557 197 OFFCURVE",
"547 210 CURVE",
"562 223 OFFCURVE",
"565 277 OFFCURVE",
"551 293 CURVE",
"561 299 OFFCURVE",
"561 334 OFFCURVE",
"556 346 CURVE",
"587 344 OFFCURVE",
"608 424 OFFCURVE",
"548 424 CURVE",
"548 424 OFFCURVE",
"556 435 OFFCURVE",
"549 447 CURVE"
);
}
);
width = 633;
}
);
note = H;
unicode = 0048;
},
{
glyphname = Hbar;
layers = (
{
components = (
{
name = H;
}
);
layerId = "44398CD6-F961-4ECB-B01A-EEBF1DAB2450";
paths = (
{
closed = 1;
nodes = (
"538 601 OFFCURVE",
"522 593 CURVE",
"502 607 OFFCURVE",
"479 605 OFFCURVE",
"457 595 CURVE",
"444 600 OFFCURVE",
"428 601 OFFCURVE",
"414 596 CURVE",
"398 607 OFFCURVE",
"376 608 OFFCURVE",
"359 598 CURVE",
"339 608 OFFCURVE",
"313 604 OFFCURVE",
"299 590 CURVE",
"279 594 OFFCURVE",
"256 596 OFFCURVE",
"241 591 CURVE",
"228 598 OFFCURVE",
"214 599 OFFCURVE",
"195 595 CURVE",
"170 606 OFFCURVE",
"136 601 OFFCURVE",
"119 588 CURVE",
"113 589 OFFCURVE",
"106 589 OFFCURVE",
"99 587 CURVE",
"29 624 OFFCURVE",
"16 523 OFFCURVE",
"65 523 CURVE",
"86 498 OFFCURVE",
"152 503 OFFCURVE",
"180 516 CURVE",
"197 507 OFFCURVE",
"216 508 OFFCURVE",
"233 516 CURVE",
"253 506 OFFCURVE",
"274 505 OFFCURVE",
"288 514 CURVE",
"313 500 OFFCURVE",
"334 497 OFFCURVE",
"362 514 CURVE",
"377 508 OFFCURVE",
"395 510 OFFCURVE",
"409 518 CURVE",
"421 513 OFFCURVE",
"434 512 OFFCURVE",
"446 516 CURVE",
"466 500 OFFCURVE",
"500 502 OFFCURVE",
"518 520 CURVE",
"534 501 OFFCURVE",
"588 504 OFFCURVE",
"601 517 CURVE",
"645 526 OFFCURVE",
"646 595 OFFCURVE",
"586 596 CURVE",
"571 601 OFFCURVE"
);
}
);
width = 663;
}
);
unicode = 0126;
},
{
glyphname = I;
layers = (
{
layerId = "44398CD6-F961-4ECB-B01A-EEBF1DAB2450";
paths = (
{
closed = 1;
nodes = (
"190 583 OFFCURVE",
"184 615 OFFCURVE",
"172 636 CURVE",
"184 659 OFFCURVE",
"190 691 OFFCURVE",
"163 707 CURVE",
"139 723 OFFCURVE",
"105 706 OFFCURVE",
"102 675 CURVE",
"90 664 OFFCURVE",
"93 630 OFFCURVE",
"103 613 CURVE",
"94 602 OFFCURVE",
"94 558 OFFCURVE",
"105 541 CURVE",
"96 533 OFFCURVE",
"97 511 OFFCURVE",
"106 499 CURVE",
"97 493 OFFCURVE",
"99 472 OFFCURVE",
"108 460 CURVE",
"100 449 OFFCURVE",
"100 443 OFFCURVE",
"106 427 CURVE",
"94 409 OFFCURVE",
"93 383 OFFCURVE",
"103 360 CURVE",
"94 347 OFFCURVE",
"99 326 OFFCURVE",
"108 308 CURVE",
"95 301 OFFCURVE",
"96 269 OFFCURVE",
"102 254 CURVE",
"95 242 OFFCURVE",
"94 226 OFFCURVE",
"105 214 CURVE",
"95 200 OFFCURVE",
"94 180 OFFCURVE",
"102 166 CURVE",
"100 158 OFFCURVE",
"100 150 OFFCURVE",
"103 141 CURVE",
"91 127 OFFCURVE",
"91 91 OFFCURVE",
"103 75 CURVE",
"88 39 OFFCURVE",
"123 -20 OFFCURVE",
"165 7 CURVE",
"194 26 OFFCURVE",
"190 80 OFFCURVE",
"174 109 CURVE",
"190 126 OFFCURVE",
"186 141 OFFCURVE",
"181 156 CURVE",
"190 169 OFFCURVE",
"190 177 OFFCURVE",
"180 194 CURVE",
"186 206 OFFCURVE",
"187 218 OFFCURVE",
"181 229 CURVE",
"191 243 OFFCURVE",
"191 261 OFFCURVE",
"181 275 CURVE",
"188 292 OFFCURVE",
"193 314 OFFCURVE",
"182 333 CURVE",
"190 358 OFFCURVE",
"187 382 OFFCURVE",
"180 399 CURVE",
"190 412 OFFCURVE",
"192 429 OFFCURVE",
"184 443 CURVE",
"191 455 OFFCURVE",
"190 490 OFFCURVE",
"184 502 CURVE",
"187 528 OFFCURVE",
"186 541 OFFCURVE",
"181 560 CURVE"
);
}
);
width = 282;
}
);
note = I;
unicode = 0049;
},
{
glyphname = J;
layers = (
{
layerId = "44398CD6-F961-4ECB-B01A-EEBF1DAB2450";
paths = (
{
closed = 1;
nodes = (
"446 458 OFFCURVE",
"436 497 OFFCURVE",
"425 503 CURVE",
"438 517 OFFCURVE",
"434 571 OFFCURVE",
"415 585 CURVE",
"425 602 OFFCURVE",
"418 634 OFFCURVE",
"409 647 CURVE",
"414 665 OFFCURVE",
"409 685 OFFCURVE",
"392 696 CURVE",
"370 746 OFFCURVE",
"295 702 OFFCURVE",
"322 656 CURVE",
"313 639 OFFCURVE",
"321 618 OFFCURVE",
"336 607 CURVE",
"330 596 OFFCURVE",
"335 573 OFFCURVE",
"343 565 CURVE",
"331 546 OFFCURVE",
"342 505 OFFCURVE",
"352 488 CURVE",
"344 478 OFFCURVE",
"345 436 OFFCURVE",
"355 420 CURVE",
"340 408 OFFCURVE",
"345 367 OFFCURVE",
"348 355 CURVE",
"335 341 OFFCURVE",
"335 321 OFFCURVE",
"346 306 CURVE",
"338 291 OFFCURVE",
"340 275 OFFCURVE",
"341 260 CURVE",
"333 247 OFFCURVE",
"321 215 OFFCURVE",
"331 196 CURVE",
"322 187 OFFCURVE",
"319 166 OFFCURVE",
"320 158 CURVE",
"299 152 OFFCURVE",
"282 118 OFFCURVE",
"283 95 CURVE",
"270 96 OFFCURVE",
"252 89 OFFCURVE",
"244 77 CURVE",
"226 90 OFFCURVE",
"194 100 OFFCURVE",
"180 87 CURVE",
"173 107 OFFCURVE",
"146 120 OFFCURVE",
"133 118 CURVE",
"133 138 OFFCURVE",
"116 157 OFFCURVE",
"93 162 CURVE",
"45 207 OFFCURVE",
"-8 111 OFFCURVE",
"55 94 CURVE",
"63 68 OFFCURVE",
"75 60 OFFCURVE",
"92 51 CURVE",
"96 34 OFFCURVE",
"121 16 OFFCURVE",
"135 17 CURVE",
"148 -6 OFFCURVE",
"202 -11 OFFCURVE",
"213 5 CURVE",
"232 -11 OFFCURVE",
"287 -6 OFFCURVE",
"294 17 CURVE",
"307 16 OFFCURVE",
"317 26 OFFCURVE",
"329 34 CURVE",
"344 38 OFFCURVE",
"361 64 OFFCURVE",
"362 80 CURVE",
"379 87 OFFCURVE",
"388 106 OFFCURVE",
"387 120 CURVE",
"400 130 OFFCURVE",
"406 150 OFFCURVE",
"406 167 CURVE",
"421 181 OFFCURVE",
"425 203 OFFCURVE",
"413 222 CURVE",
"419 236 OFFCURVE",
"422 250 OFFCURVE",
"418 263 CURVE",
"427 277 OFFCURVE",
"435 302 OFFCURVE",
"428 323 CURVE",
"440 335 OFFCURVE",
"439 365 OFFCURVE",
"429 375 CURVE",
"438 383 OFFCURVE",
"441 432 OFFCURVE",
"430 441 CURVE"
);
}
);
width = 479;
}
);
note = J;
unicode = 004A;
},
{
glyphname = K;
layers = (
{
layerId = "44398CD6-F961-4ECB-B01A-EEBF1DAB2450";
paths = (
{
closed = 1;
nodes = (
"565 81 OFFCURVE",
"553 101 OFFCURVE",
"542 107 CURVE",
"541 129 OFFCURVE",
"529 157 OFFCURVE",
"509 164 CURVE",
"506 175 OFFCURVE",
"488 199 OFFCURVE",
"476 204 CURVE",
"473 227 OFFCURVE",
"446 249 OFFCURVE",
"431 254 CURVE",
"434 276 OFFCURVE",
"403 312 OFFCURVE",
"382 319 CURVE",
"386 339 OFFCURVE",
"369 359 OFFCURVE",
"350 367 CURVE",
"352 381 OFFCURVE",
"347 396 OFFCURVE",
"327 403 CURVE",
"355 419 OFFCURVE",
"360 422 OFFCURVE",
"378 451 CURVE",
"398 451 OFFCURVE",
"423 480 OFFCURVE",
"429 500 CURVE",
"452 502 OFFCURVE",
"480 529 OFFCURVE",
"482 543 CURVE",
"499 546 OFFCURVE",
"514 561 OFFCURVE",
"517 576 CURVE",
"538 585 OFFCURVE",
"550 601 OFFCURVE",
"553 629 CURVE",
"605 671 OFFCURVE",
"508 726 OFFCURVE",
"488 658 CURVE",
"468 660 OFFCURVE",
"443 632 OFFCURVE",
"446 616 CURVE",
"434 611 OFFCURVE",
"409 591 OFFCURVE",
"406 580 CURVE",
"389 575 OFFCURVE",
"367 553 OFFCURVE",
"366 537 CURVE",
"341 529 OFFCURVE",
"335 523 OFFCURVE",
"318 497 CURVE",
"307 499 OFFCURVE",
"283 480 OFFCURVE",
"276 457 CURVE",
"242 457 OFFCURVE",
"231 430 OFFCURVE",
"230 412 CURVE",
"210 415 OFFCURVE",
"192 400 OFFCURVE",
"189 379 CURVE",
"185 378 OFFCURVE",
"172 375 OFFCURVE",
"166 362 CURVE",
"172 375 OFFCURVE",
"169 390 OFFCURVE",
"161 396 CURVE",
"163 410 OFFCURVE",
"172 427 OFFCURVE",
"163 439 CURVE",
"172 451 OFFCURVE",
"171 471 OFFCURVE",
"158 486 CURVE",
"166 505 OFFCURVE",
"169 529 OFFCURVE",
"160 543 CURVE",
"174 551 OFFCURVE",
"174 591 OFFCURVE",
"166 599 CURVE",
"174 613 OFFCURVE",
"180 646 OFFCURVE",
"163 663 CURVE",
"175 746 OFFCURVE",
"41 729 OFFCURVE",
"81 632 CURVE",
"72 613 OFFCURVE",
"73 558 OFFCURVE",
"90 540 CURVE",
"76 519 OFFCURVE",
"73 472 OFFCURVE",
"86 456 CURVE",
"79 441 OFFCURVE",
"79 427 OFFCURVE",
"87 412 CURVE",
"79 396 OFFCURVE",
"68 365 OFFCURVE",
"93 349 CURVE",
"79 334 OFFCURVE",
"76 299 OFFCURVE",
"93 274 CURVE",
"87 252 OFFCURVE",
"87 243 OFFCURVE",
"95 212 CURVE",
"89 192 OFFCURVE",
"86 155 OFFCURVE",
"101 140 CURVE",
"92 125 OFFCURVE",
"96 102 OFFCURVE",
"102 85 CURVE",
"92 65 OFFCURVE",
"87 3 OFFCURVE",
"134 3 CURVE",
"195 3 OFFCURVE",
"181 76 OFFCURVE",
"177 102 CURVE",
"186 116 OFFCURVE",
"186 155 OFFCURVE",
"174 174 CURVE",
"183 203 OFFCURVE",
"185 249 OFFCURVE",
"172 276 CURVE",
"188 277 OFFCURVE",
"206 283 OFFCURVE",
"210 299 CURVE",
"223 302 OFFCURVE",
"240 314 OFFCURVE",
"247 328 CURVE",
"253 328 OFFCURVE",
"269 340 OFFCURVE",
"271 348 CURVE",
"276 328 OFFCURVE",
"290 312 OFFCURVE",
"305 308 CURVE",
"302 282 OFFCURVE",
"327 251 OFFCURVE",
"352 248 CURVE",
"346 220 OFFCURVE",
"369 189 OFFCURVE",
"400 181 CURVE",
"400 161 OFFCURVE",
"418 144 OFFCURVE",
"432 139 CURVE",
"435 125 OFFCURVE",
"449 105 OFFCURVE",
"462 101 CURVE",
"465 70 OFFCURVE",
"473 56 OFFCURVE",
"491 46 CURVE",
"494 29 OFFCURVE",
"508 11 OFFCURVE",
"527 3 CURVE",
"588 -20 OFFCURVE",
"583 54 OFFCURVE",
"569 68 CURVE"
);
}
);
width = 603;
}
);
note = K;
unicode = 004B;
},
{
glyphname = L;
layers = (
{
layerId = "44398CD6-F961-4ECB-B01A-EEBF1DAB2450";
paths = (
{
closed = 1;
nodes = (
"378 110 OFFCURVE",
"350 100 OFFCURVE",
"339 85 CURVE",
"318 96 OFFCURVE",
"297 90 OFFCURVE",
"290 78 CURVE",
"276 91 OFFCURVE",
"254 93 OFFCURVE",
"239 82 CURVE",
"233 93 OFFCURVE",
"216 96 OFFCURVE",
"201 95 CURVE",
"205 113 OFFCURVE",
"192 130 OFFCURVE",
"177 142 CURVE",
"179 151 OFFCURVE",
"177 168 OFFCURVE",
"173 176 CURVE",
"183 194 OFFCURVE",
"182 229 OFFCURVE",
"167 244 CURVE",
"182 262 OFFCURVE",
"188 309 OFFCURVE",
"167 334 CURVE",
"179 352 OFFCURVE",
"182 401 OFFCURVE",
"169 424 CURVE",
"175 434 OFFCURVE",
"178 469 OFFCURVE",
"166 489 CURVE",
"187 513 OFFCURVE",
"184 546 OFFCURVE",
"163 565 CURVE",
"175 577 OFFCURVE",
"177 598 OFFCURVE",
"167 613 CURVE",
"184 642 OFFCURVE",
"179 672 OFFCURVE",
"165 684 CURVE",
"149 734 OFFCURVE",
"67 704 OFFCURVE",
"96 649 CURVE",
"82 637 OFFCURVE",
"83 609 OFFCURVE",
"89 596 CURVE",
"79 581 OFFCURVE",
"77 532 OFFCURVE",
"89 510 CURVE",
"81 492 OFFCURVE",
"81 461 OFFCURVE",
"94 446 CURVE",
"84 429 OFFCURVE",
"85 405 OFFCURVE",
"97 390 CURVE",
"82 366 OFFCURVE",
"82 327 OFFCURVE",
"93 303 CURVE",
"81 283 OFFCURVE",
"80 248 OFFCURVE",
"97 230 CURVE",
"82 216 OFFCURVE",
"82 168 OFFCURVE",
"95 152 CURVE",
"84 130 OFFCURVE",
"94 104 OFFCURVE",
"117 96 CURVE",
"104 65 OFFCURVE",
"125 43 OFFCURVE",
"146 33 CURVE",
"146 11 OFFCURVE",
"177 -9 OFFCURVE",
"206 9 CURVE",
"223 -5 OFFCURVE",
"245 -5 OFFCURVE",
"261 3 CURVE",
"277 -7 OFFCURVE",
"306 -4 OFFCURVE",
"323 6 CURVE",
"340 -3 OFFCURVE",
"366 1 OFFCURVE",
"374 13 CURVE",
"404 -6 OFFCURVE",
"437 18 OFFCURVE",
"448 31 CURVE",
"527 -5 OFFCURVE",
"556 121 OFFCURVE",
"468 104 CURVE",
"453 118 OFFCURVE",
"410 110 OFFCURVE",
"400 93 CURVE"
);
}
);
width = 564;
}
);
note = L;
unicode = 004C;
},
{
glyphname = Lcaron;
layers = (
{
components = (
{
name = L;
}
);
layerId = "44398CD6-F961-4ECB-B01A-EEBF1DAB2450";
paths = (
{
closed = 1;
nodes = (
"406 646 OFFCURVE",
"401 671 OFFCURVE",
"384 683 CURVE",
"366 737 OFFCURVE",
"282 700 OFFCURVE",
"311 650 CURVE",
"304 636 OFFCURVE",
"306 618 OFFCURVE",
"316 606 CURVE",
"309 586 OFFCURVE",
"314 556 OFFCURVE",
"314 535 CURVE",
"305 516 OFFCURVE",
"293 498 OFFCURVE",
"306 476 CURVE",
"309 415 OFFCURVE",
"407 437 OFFCURVE",
"383 494 CURVE",
"396 512 OFFCURVE",
"393 537 OFFCURVE",
"393 558 CURVE",
"392 579 OFFCURVE",
"402 608 OFFCURVE",
"394 628 CURVE"
);
}
);
width = 572;
}
);
unicode = 013D;
},
{
glyphname = Lslash;
layers = (
{
components = (
{
name = L;
}
);
layerId = "44398CD6-F961-4ECB-B01A-EEBF1DAB2450";
paths = (
{
closed = 1;
nodes = (
"252 455 OFFCURVE",
"250 439 CURVE",
"231 440 OFFCURVE",
"212 430 OFFCURVE",
"202 412 CURVE",
"180 410 OFFCURVE",
"160 393 OFFCURVE",
"156 374 CURVE",
"136 367 OFFCURVE",
"116 356 OFFCURVE",
"106 344 CURVE",
"91 343 OFFCURVE",
"79 337 OFFCURVE",
"64 323 CURVE",
"33 320 OFFCURVE",
"12 299 OFFCURVE",
"-3 266 CURVE",
"-82 261 OFFCURVE",
"-59 164 OFFCURVE",
"11 206 CURVE",
"36 203 OFFCURVE",
"67 228 OFFCURVE",
"76 254 CURVE",
"95 255 OFFCURVE",
"111 266 OFFCURVE",
"121 282 CURVE",
"144 284 OFFCURVE",
"162 294 OFFCURVE",
"169 309 CURVE",
"198 311 OFFCURVE",
"217 319 OFFCURVE",
"232 348 CURVE",
"248 351 OFFCURVE",
"262 362 OFFCURVE",
"270 376 CURVE",
"298 380 OFFCURVE",
"325 402 OFFCURVE",
"341 417 CURVE",
"397 458 OFFCURVE",
"328 512 OFFCURVE",
"290 462 CURVE",
"276 465 OFFCURVE"
);
}
);
width = 572;
}
);
unicode = 0141;
},
{
glyphname = M;
layers = (
{
layerId = "44398CD6-F961-4ECB-B01A-EEBF1DAB2450";
paths = (
{
closed = 1;
nodes = (
"565 705 OFFCURVE",
"553 676 OFFCURVE",
"553 651 CURVE",
"529 636 OFFCURVE",
"513 579 OFFCURVE",
"526 557 CURVE",
"511 557 OFFCURVE",
"497 540 OFFCURVE",
"497 516 CURVE",
"470 502 OFFCURVE",
"470 462 OFFCURVE",
"470 436 CURVE",
"444 422 OFFCURVE",
"437 374 OFFCURVE",
"444 359 CURVE",
"431 345 OFFCURVE",
"402 313 OFFCURVE",
"418 286 CURVE",
"402 286 OFFCURVE",
"388 251 OFFCURVE",
"395 231 CURVE",
"383 225 OFFCURVE",
"377 203 OFFCURVE",
"376 178 CURVE",
"370 200 OFFCURVE",
"365 207 OFFCURVE",
"349 219 CURVE",
"355 246 OFFCURVE",
"337 291 OFFCURVE",
"322 301 CURVE",
"329 328 OFFCURVE",
"322 369 OFFCURVE",
"309 381 CURVE",
"309 396 OFFCURVE",
"296 427 OFFCURVE",
"281 436 CURVE",
"291 446 OFFCURVE",
"281 475 OFFCURVE",
"271 475 CURVE",
"281 502 OFFCURVE",
"271 530 OFFCURVE",
"256 543 CURVE",
"256 557 OFFCURVE",
"246 580 OFFCURVE",
"229 582 CURVE",
"236 600 OFFCURVE",
"229 625 OFFCURVE",
"215 636 CURVE",
"215 661 OFFCURVE",
"189 691 OFFCURVE",
"162 691 CURVE",
"134 719 OFFCURVE",
"80 705 OFFCURVE",
"80 663 CURVE",
"65 649 OFFCURVE",
"59 565 OFFCURVE",
"80 543 CURVE",
"61 524 OFFCURVE",
"61 471 OFFCURVE",
"75 449 CURVE",
"65 436 OFFCURVE",
"67 396 OFFCURVE",
"80 381 CURVE",
"67 369 OFFCURVE",
"67 328 OFFCURVE",
"80 301 CURVE",
"67 286 OFFCURVE",
"67 234 OFFCURVE",
"80 219 CURVE",
"67 193 OFFCURVE",
"67 142 OFFCURVE",
"83 91 CURVE",
"38 -11 OFFCURVE",
"178 -36 OFFCURVE",
"162 72 CURVE",
"178 83 OFFCURVE",
"173 155 OFFCURVE",
"162 166 CURVE",
"173 193 OFFCURVE",
"173 207 OFFCURVE",
"162 234 CURVE",
"173 260 OFFCURVE",
"177 320 OFFCURVE",
"162 343 CURVE",
"171 365 OFFCURVE",
"164 434 OFFCURVE",
"147 449 CURVE",
"162 462 OFFCURVE",
"171 502 OFFCURVE",
"162 530 CURVE",
"162 516 OFFCURVE",
"173 489 OFFCURVE",
"189 489 CURVE",
"189 475 OFFCURVE",
"189 449 OFFCURVE",
"202 436 CURVE",
"202 422 OFFCURVE",
"215 392 OFFCURVE",
"229 381 CURVE",
"215 369 OFFCURVE",
"232 315 OFFCURVE",
"256 313 CURVE",
"236 275 OFFCURVE",
"256 229 OFFCURVE",
"271 219 CURVE",
"265 198 OFFCURVE",
"291 139 OFFCURVE",
"309 139 CURVE",
"309 113 OFFCURVE",
"322 84 OFFCURVE",
"336 84 CURVE",
"322 16 OFFCURVE",
"418 16 OFFCURVE",
"418 72 CURVE",
"431 84 OFFCURVE",
"444 98 OFFCURVE",
"444 125 CURVE",
"457 137 OFFCURVE",
"465 166 OFFCURVE",
"457 193 CURVE",
"470 193 OFFCURVE",
"485 219 OFFCURVE",
"485 234 CURVE",
"497 234 OFFCURVE",
"509 289 OFFCURVE",
"509 315 CURVE",
"529 324 OFFCURVE",
"534 357 OFFCURVE",
"534 392 CURVE",
"565 415 OFFCURVE",
"579 491 OFFCURVE",
"579 516 CURVE",
"579 489 OFFCURVE",
"571 475 OFFCURVE",
"579 462 CURVE",
"556 441 OFFCURVE",
"565 400 OFFCURVE",
"579 381 CURVE",
"565 369 OFFCURVE",
"565 313 OFFCURVE",
"579 286 CURVE",
"565 274 OFFCURVE",
"565 234 OFFCURVE",
"579 207 CURVE",
"565 193 OFFCURVE",
"565 166 OFFCURVE",
"579 152 CURVE",
"563 137 OFFCURVE",
"560 91 OFFCURVE",
"579 58 CURVE",
"556 -17 OFFCURVE",
"681 -21 OFFCURVE",
"646 84 CURVE",
"663 110 OFFCURVE",
"657 167 OFFCURVE",
"646 178 CURVE",
"658 193 OFFCURVE",
"658 248 OFFCURVE",
"646 260 CURVE",
"658 274 OFFCURVE",
"667 313 OFFCURVE",
"658 340 CURVE",
"674 364 OFFCURVE",
"675 403 OFFCURVE",
"657 427 CURVE",
"669 440 OFFCURVE",
"670 482 OFFCURVE",
"658 496 CURVE",
"670 523 OFFCURVE",
"670 550 OFFCURVE",
"658 564 CURVE",
"670 605 OFFCURVE",
"670 616 OFFCURVE",
"658 658 CURVE",
"658 670 OFFCURVE",
"646 719 OFFCURVE",
"605 705 CURVE"
);
}
);
width = 720;
}
);
note = M;
unicode = 004D;
},
{
glyphname = N;
layers = (
{
layerId = "44398CD6-F961-4ECB-B01A-EEBF1DAB2450";
paths = (
{
closed = 1;
nodes = (
"619 124 OFFCURVE",
"617 132 OFFCURVE",
"612 145 CURVE",
"622 161 OFFCURVE",
"621 191 OFFCURVE",
"609 201 CURVE",
"611 209 OFFCURVE",
"608 233 OFFCURVE",
"604 241 CURVE",
"613 254 OFFCURVE",
"610 280 OFFCURVE",
"601 293 CURVE",
"608 311 OFFCURVE",
"604 351 OFFCURVE",
"589 364 CURVE",
"602 378 OFFCURVE",
"594 419 OFFCURVE",
"584 435 CURVE",
"591 449 OFFCURVE",
"589 482 OFFCURVE",
"582 496 CURVE",
"590 512 OFFCURVE",
"588 553 OFFCURVE",
"580 569 CURVE",
"589 586 OFFCURVE",
"582 635 OFFCURVE",
"566 646 CURVE",
"571 668 OFFCURVE",
"566 718 OFFCURVE",
"515 700 CURVE",
"490 690 OFFCURVE",
"492 669 OFFCURVE",
"500 649 CURVE",
"491 636 OFFCURVE",
"493 603 OFFCURVE",
"504 588 CURVE",
"497 566 OFFCURVE",
"496 546 OFFCURVE",
"508 535 CURVE",
"496 521 OFFCURVE",
"499 481 OFFCURVE",
"512 463 CURVE",
"501 447 OFFCURVE",
"502 400 OFFCURVE",
"515 386 CURVE",
"512 369 OFFCURVE",
"513 347 OFFCURVE",
"521 332 CURVE",
"516 321 OFFCURVE",
"518 294 OFFCURVE",
"528 285 CURVE",
"521 272 OFFCURVE",
"522 256 OFFCURVE",
"530 244 CURVE",
"524 230 OFFCURVE",
"526 206 OFFCURVE",
"537 194 CURVE",
"531 189 OFFCURVE",
"531 182 OFFCURVE",
"535 160 CURVE",
"531 175 OFFCURVE",
"513 198 OFFCURVE",
"499 203 CURVE",
"495 221 OFFCURVE",
"475 246 OFFCURVE",
"459 244 CURVE",
"455 263 OFFCURVE",
"441 274 OFFCURVE",
"429 279 CURVE",
"432 290 OFFCURVE",
"421 314 OFFCURVE",
"410 317 CURVE",
"410 333 OFFCURVE",
"394 359 OFFCURVE",
"380 365 CURVE",
"378 383 OFFCURVE",
"357 423 OFFCURVE",
"339 425 CURVE",
"338 453 OFFCURVE",
"311 495 OFFCURVE",
"295 507 CURVE",
"293 528 OFFCURVE",
"273 556 OFFCURVE",
"256 567 CURVE",
"257 607 OFFCURVE",
"224 645 OFFCURVE",
"194 649 CURVE",
"200 721 OFFCURVE",
"89 723 OFFCURVE",
"89 651 CURVE",
"83 639 OFFCURVE",
"86 617 OFFCURVE",
"89 609 CURVE",
"79 594 OFFCURVE",
"78 562 OFFCURVE",
"87 547 CURVE",
"78 529 OFFCURVE",
"80 486 OFFCURVE",
"92 464 CURVE",
"80 449 OFFCURVE",
"71 395 OFFCURVE",
"93 373 CURVE",
"90 364 OFFCURVE",
"91 354 OFFCURVE",
"95 346 CURVE",
"83 325 OFFCURVE",
"83 298 OFFCURVE",
"94 274 CURVE",
"78 252 OFFCURVE",
"83 223 OFFCURVE",
"92 207 CURVE",
"86 190 OFFCURVE",
"84 175 OFFCURVE",
"89 158 CURVE",
"85 145 OFFCURVE",
"85 122 OFFCURVE",
"91 102 CURVE",
"84 86 OFFCURVE",
"83 60 OFFCURVE",
"92 43 CURVE",
"94 20 OFFCURVE",
"111 2 OFFCURVE",
"136 5 CURVE",
"187 11 OFFCURVE",
"167 68 OFFCURVE",
"165 99 CURVE",
"177 122 OFFCURVE",
"181 151 OFFCURVE",
"166 167 CURVE",
"175 187 OFFCURVE",
"183 212 OFFCURVE",
"169 233 CURVE",
"177 251 OFFCURVE",
"175 292 OFFCURVE",
"165 308 CURVE",
"173 326 OFFCURVE",
"184 346 OFFCURVE",
"171 366 CURVE",
"177 378 OFFCURVE",
"178 404 OFFCURVE",
"170 415 CURVE",
"174 426 OFFCURVE",
"175 452 OFFCURVE",
"169 467 CURVE",
"174 481 OFFCURVE",
"168 510 OFFCURVE",
"165 521 CURVE",
"168 524 OFFCURVE",
"170 540 OFFCURVE",
"166 554 CURVE",
"170 540 OFFCURVE",
"184 512 OFFCURVE",
"195 504 CURVE",
"199 485 OFFCURVE",
"216 455 OFFCURVE",
"226 445 CURVE",
"230 431 OFFCURVE",
"248 403 OFFCURVE",
"259 397 CURVE",
"262 371 OFFCURVE",
"283 342 OFFCURVE",
"301 336 CURVE",
"302 320 OFFCURVE",
"321 294 OFFCURVE",
"333 289 CURVE",
"335 276 OFFCURVE",
"342 265 OFFCURVE",
"354 259 CURVE",
"356 243 OFFCURVE",
"372 219 OFFCURVE",
"386 212 CURVE",
"389 189 OFFCURVE",
"408 182 OFFCURVE",
"426 173 CURVE",
"427 155 OFFCURVE",
"440 140 OFFCURVE",
"457 137 CURVE",
"453 118 OFFCURVE",
"464 97 OFFCURVE",
"482 91 CURVE",
"487 73 OFFCURVE",
"500 69 OFFCURVE",
"512 59 CURVE",
"508 35 OFFCURVE",
"525 15 OFFCURVE",
"542 13 CURVE",
"558 -1 OFFCURVE",
"584 -6 OFFCURVE",
"603 9 CURVE",
"621 22 OFFCURVE",
"621 32 OFFCURVE",
"617 50 CURVE",
"623 63 OFFCURVE",
"623 71 OFFCURVE",
"616 84 CURVE",
"622 89 OFFCURVE",
"623 103 OFFCURVE",
"615 111 CURVE"
);
}
);
width = 676;
}
);
note = N;
unicode = 004E;
},
{
glyphname = NJ;
layers = (
{
components = (
{
name = N;
}
);
layerId = "44398CD6-F961-4ECB-B01A-EEBF1DAB2450";
paths = (
{
closed = 1;
nodes = (
"1097 440 OFFCURVE",
"1091 480 OFFCURVE",
"1081 487 CURVE",
"1095 500 OFFCURVE",
"1097 554 OFFCURVE",
"1079 570 CURVE",
"1091 586 OFFCURVE",
"1087 618 OFFCURVE",
"1079 632 CURVE",
"1086 649 OFFCURVE",
"1083 670 OFFCURVE",
"1067 682 CURVE",
"1050 734 OFFCURVE",
"971 698 OFFCURVE",
"994 650 CURVE",
"983 634 OFFCURVE",
"989 612 OFFCURVE",
"1003 600 CURVE",
"996 589 OFFCURVE",
"998 566 OFFCURVE",
"1005 557 CURVE",
"991 539 OFFCURVE",
"998 498 OFFCURVE",
"1007 480 CURVE",
"998 470 OFFCURVE",
"994 429 OFFCURVE",
"1003 412 CURVE",
"987 401 OFFCURVE",
"987 360 OFFCURVE",
"989 348 CURVE",
"975 335 OFFCURVE",
"973 315 OFFCURVE",
"982 299 CURVE",
"973 285 OFFCURVE",
"973 269 OFFCURVE",
"973 254 CURVE",
"963 242 OFFCURVE",
"948 211 OFFCURVE",
"956 191 CURVE",
"946 183 OFFCURVE",
"941 163 OFFCURVE",
"941 155 CURVE",
"920 151 OFFCURVE",
"900 118 OFFCURVE",
"898 96 CURVE",
"885 98 OFFCURVE",
"867 93 OFFCURVE",
"858 82 CURVE",
"841 96 OFFCURVE",
"810 109 OFFCURVE",
"795 98 CURVE",
"790 119 OFFCURVE",
"764 134 OFFCURVE",
"751 134 CURVE",
"753 153 OFFCURVE",
"738 174 OFFCURVE",
"716 181 CURVE",
"673 231 OFFCURVE",
"610 141 OFFCURVE",
"671 118 CURVE",
"677 91 OFFCURVE",
"688 82 OFFCURVE",
"704 71 CURVE",
"706 54 OFFCURVE",
"729 33 OFFCURVE",
"743 33 CURVE",
"754 9 OFFCURVE",
"807 -2 OFFCURVE",
"820 13 CURVE",
"837 -5 OFFCURVE",
"892 -5 OFFCURVE",
"901 17 CURVE",
"914 15 OFFCURVE",
"925 23 OFFCURVE",
"938 30 CURVE",
"953 33 OFFCURVE",
"973 57 OFFCURVE",
"975 73 CURVE",
"993 78 OFFCURVE",
"1004 96 OFFCURVE",
"1004 110 CURVE",
"1018 119 OFFCURVE",
"1026 138 OFFCURVE",
"1028 155 CURVE",
"1044 167 OFFCURVE",
"1050 189 OFFCURVE",
"1040 209 CURVE",
"1048 222 OFFCURVE",
"1052 236 OFFCURVE",
"1050 249 CURVE",
"1060 262 OFFCURVE",
"1070 286 OFFCURVE",
"1066 308 CURVE",
"1079 318 OFFCURVE",
"1081 348 OFFCURVE",
"1072 359 CURVE",
"1081 366 OFFCURVE",
"1089 415 OFFCURVE",
"1079 425 CURVE"
);
}
);
width = 1172;
}
);
unicode = 01CA;
},
{
glyphname = O;
layers = (
{
layerId = "44398CD6-F961-4ECB-B01A-EEBF1DAB2450";
paths = (
{
closed = 1;
nodes = (
"603 423 OFFCURVE",
"596 468 OFFCURVE",
"578 492 CURVE",
"582 515 OFFCURVE",
"573 543 OFFCURVE",
"550 553 CURVE",
"562 579 OFFCURVE",
"550 601 OFFCURVE",
"533 611 CURVE",
"541 629 OFFCURVE",
"515 663 OFFCURVE",
"491 656 CURVE",
"487 678 OFFCURVE",
"462 694 OFFCURVE",
"447 689 CURVE",
"445 706 OFFCURVE",
"424 717 OFFCURVE",
"398 707 CURVE",
"373 727 OFFCURVE",
"333 716 OFFCURVE",
"323 703 CURVE",
"303 723 OFFCURVE",
"241 712 OFFCURVE",
"234 683 CURVE",
"204 684 OFFCURVE",
"164 653 OFFCURVE",
"158 625 CURVE",
"139 623 OFFCURVE",
"125 600 OFFCURVE",
"120 582 CURVE",
"108 582 OFFCURVE",
"91 554 OFFCURVE",
"97 544 CURVE",
"87 540 OFFCURVE",
"85 528 OFFCURVE",
"85 514 CURVE",
"66 500 OFFCURVE",
"62 481 OFFCURVE",
"68 459 CURVE",
"57 452 OFFCURVE",
"49 423 OFFCURVE",
"62 401 CURVE",
"54 386 OFFCURVE",
"57 344 OFFCURVE",
"68 330 CURVE",
"59 318 OFFCURVE",
"63 290 OFFCURVE",
"69 280 CURVE",
"63 266 OFFCURVE",
"71 236 OFFCURVE",
"84 225 CURVE",
"75 202 OFFCURVE",
"89 181 OFFCURVE",
"108 174 CURVE",
"94 145 OFFCURVE",
"129 93 OFFCURVE",
"148 93 CURVE",
"151 68 OFFCURVE",
"191 34 OFFCURVE",
"220 37 CURVE",
"237 13 OFFCURVE",
"288 1 OFFCURVE",
"314 8 CURVE",
"343 -9 OFFCURVE",
"385 5 OFFCURVE",
"392 20 CURVE",
"404 17 OFFCURVE",
"441 30 OFFCURVE",
"446 42 CURVE",
"466 50 OFFCURVE",
"478 50 OFFCURVE",
"483 74 CURVE",
"510 84 OFFCURVE",
"525 97 OFFCURVE",
"526 119 CURVE",
"545 133 OFFCURVE",
"566 160 OFFCURVE",
"556 187 CURVE",
"577 202 OFFCURVE",
"587 227 OFFCURVE",
"585 249 CURVE",
"600 269 OFFCURVE",
"603 287 OFFCURVE",
"595 308 CURVE",
"606 327 OFFCURVE",
"598 383 OFFCURVE",
"589 398 CURVE"
);
},
{
closed = 1;
nodes = (
"408 121 OFFCURVE",
"381 103 OFFCURVE",
"372 91 CURVE",
"358 97 OFFCURVE",
"308 98 OFFCURVE",
"296 88 CURVE",
"289 102 OFFCURVE",
"248 131 OFFCURVE",
"231 126 CURVE",
"229 150 OFFCURVE",
"207 171 OFFCURVE",
"188 181 CURVE",
"194 200 OFFCURVE",
"184 217 OFFCURVE",
"168 226 CURVE",
"174 239 OFFCURVE",
"171 256 OFFCURVE",
"160 266 CURVE",
"171 280 OFFCURVE",
"167 308 OFFCURVE",
"154 322 CURVE",
"163 341 OFFCURVE",
"159 363 OFFCURVE",
"146 377 CURVE",
"157 391 OFFCURVE",
"157 410 OFFCURVE",
"147 422 CURVE",
"149 426 OFFCURVE",
"158 440 OFFCURVE",
"154 450 CURVE",
"159 457 OFFCURVE",
"163 467 OFFCURVE",
"163 477 CURVE",
"176 485 OFFCURVE",
"180 498 OFFCURVE",
"177 513 CURVE",
"182 520 OFFCURVE",
"196 534 OFFCURVE",
"196 545 CURVE",
"212 551 OFFCURVE",
"231 571 OFFCURVE",
"237 584 CURVE",
"257 583 OFFCURVE",
"278 594 OFFCURVE",
"285 617 CURVE",
"309 608 OFFCURVE",
"337 608 OFFCURVE",
"360 617 CURVE",
"372 599 OFFCURVE",
"403 593 OFFCURVE",
"425 596 CURVE",
"431 580 OFFCURVE",
"437 570 OFFCURVE",
"451 565 CURVE",
"453 557 OFFCURVE",
"457 552 OFFCURVE",
"463 547 CURVE",
"459 527 OFFCURVE",
"473 495 OFFCURVE",
"492 487 CURVE",
"493 478 OFFCURVE",
"498 466 OFFCURVE",
"502 457 CURVE",
"502 450 OFFCURVE",
"503 436 OFFCURVE",
"508 428 CURVE",
"498 416 OFFCURVE",
"511 375 OFFCURVE",
"519 362 CURVE",
"506 336 OFFCURVE",
"500 311 OFFCURVE",
"511 292 CURVE",
"496 288 OFFCURVE",
"486 236 OFFCURVE",
"490 217 CURVE",
"480 213 OFFCURVE",
"462 164 OFFCURVE",
"461 155 CURVE",
"445 156 OFFCURVE",
"426 136 OFFCURVE",
"424 122 CURVE"
);
}
);
width = 635;
}
);
note = O;
unicode = 004F;
},
{
glyphname = Oslash;
layers = (
{
layerId = "44398CD6-F961-4ECB-B01A-EEBF1DAB2450";
paths = (
{
closed = 1;
nodes = (
"607 325 OFFCURVE",
"604 380 OFFCURVE",
"595 397 CURVE",
"609 421 OFFCURVE",
"598 466 OFFCURVE",
"579 490 CURVE",
"582 514 OFFCURVE",
"574 544 OFFCURVE",
"550 553 CURVE",
"559 569 OFFCURVE",
"557 583 OFFCURVE",
"549 594 CURVE",
"580 611 OFFCURVE",
"599 668 OFFCURVE",
"574 687 CURVE",
"548 708 OFFCURVE",
"510 674 OFFCURVE",
"502 647 CURVE",
"501 663 OFFCURVE",
"476 688 OFFCURVE",
"458 686 CURVE",
"455 705 OFFCURVE",
"422 719 OFFCURVE",
"395 710 CURVE",
"372 730 OFFCURVE",
"330 718 OFFCURVE",
"321 706 CURVE",
"300 725 OFFCURVE",
"237 715 OFFCURVE",
"229 684 CURVE",
"200 685 OFFCURVE",
"158 654 OFFCURVE",
"153 627 CURVE",
"133 624 OFFCURVE",
"120 601 OFFCURVE",
"115 581 CURVE",
"102 581 OFFCURVE",
"85 554 OFFCURVE",
"90 545 CURVE",
"81 540 OFFCURVE",
"78 528 OFFCURVE",
"79 513 CURVE",
"58 498 OFFCURVE",
"55 481 OFFCURVE",
"61 458 CURVE",
"50 450 OFFCURVE",
"42 421 OFFCURVE",
"55 399 CURVE",
"46 382 OFFCURVE",
"50 340 OFFCURVE",
"61 327 CURVE",
"52 314 OFFCURVE",
"55 287 OFFCURVE",
"63 275 CURVE",
"56 262 OFFCURVE",
"65 232 OFFCURVE",
"78 221 CURVE",
"68 197 OFFCURVE",
"83 175 OFFCURVE",
"102 170 CURVE",
"99 161 OFFCURVE",
"98 153 OFFCURVE",
"99 146 CURVE",
"88 142 OFFCURVE",
"76 129 OFFCURVE",
"76 107 CURVE",
"43 88 OFFCURVE",
"33 22 OFFCURVE",
"82 20 CURVE",
"101 19 OFFCURVE",
"140 54 OFFCURVE",
"141 77 CURVE",
"142 77 OFFCURVE",
"144 78 OFFCURVE",
"147 78 CURVE",
"154 54 OFFCURVE",
"189 26 OFFCURVE",
"216 30 CURVE",
"233 5 OFFCURVE",
"285 -7 OFFCURVE",
"312 0 CURVE",
"341 -18 OFFCURVE",
"382 -4 OFFCURVE",
"389 13 CURVE",
"401 9 OFFCURVE",
"440 22 OFFCURVE",
"444 34 CURVE",
"465 41 OFFCURVE",
"478 43 OFFCURVE",
"482 67 CURVE",
"510 77 OFFCURVE",
"527 90 OFFCURVE",
"527 114 CURVE",
"545 127 OFFCURVE",
"566 154 OFFCURVE",
"557 181 CURVE",
"577 197 OFFCURVE",
"588 223 OFFCURVE",
"586 245 CURVE",
"602 266 OFFCURVE",
"605 284 OFFCURVE",
"598 305 CURVE"
);
},
{
closed = 1;
nodes = (
"136 427 OFFCURVE",
"147 442 OFFCURVE",
"140 451 CURVE",
"148 459 OFFCURVE",
"151 470 OFFCURVE",
"151 481 CURVE",
"164 490 OFFCURVE",
"169 503 OFFCURVE",
"165 518 CURVE",
"171 526 OFFCURVE",
"185 542 OFFCURVE",
"185 553 CURVE",
"203 558 OFFCURVE",
"224 580 OFFCURVE",
"228 594 CURVE",
"251 593 OFFCURVE",
"274 605 OFFCURVE",
"280 629 CURVE",
"306 620 OFFCURVE",
"340 622 OFFCURVE",
"364 638 CURVE",
"378 620 OFFCURVE",
"404 611 OFFCURVE",
"425 620 CURVE",
"426 607 OFFCURVE",
"434 593 OFFCURVE",
"444 593 CURVE",
"438 586 OFFCURVE",
"428 572 OFFCURVE",
"425 560 CURVE",
"395 552 OFFCURVE",
"376 525 OFFCURVE",
"373 492 CURVE",
"360 494 OFFCURVE",
"330 456 OFFCURVE",
"330 435 CURVE",
"312 429 OFFCURVE",
"298 414 OFFCURVE",
"293 393 CURVE",
"276 391 OFFCURVE",
"246 354 OFFCURVE",
"248 336 CURVE",
"227 331 OFFCURVE",
"204 300 OFFCURVE",
"204 275 CURVE",
"184 273 OFFCURVE",
"165 240 OFFCURVE",
"161 215 CURVE",
"162 234 OFFCURVE",
"156 250 OFFCURVE",
"149 258 CURVE",
"158 272 OFFCURVE",
"154 303 OFFCURVE",
"140 315 CURVE",
"151 336 OFFCURVE",
"148 360 OFFCURVE",
"133 374 CURVE",
"144 389 OFFCURVE",
"147 410 OFFCURVE",
"134 424 CURVE"
);
},
{
closed = 1;
nodes = (
"509 291 OFFCURVE",
"492 231 OFFCURVE",
"495 211 CURVE",
"485 206 OFFCURVE",
"466 155 OFFCURVE",
"465 145 CURVE",
"449 145 OFFCURVE",
"426 123 OFFCURVE",
"423 107 CURVE",
"408 107 OFFCURVE",
"377 83 OFFCURVE",
"369 70 CURVE",
"355 77 OFFCURVE",
"302 82 OFFCURVE",
"288 72 CURVE",
"281 86 OFFCURVE",
"242 115 OFFCURVE",
"223 108 CURVE",
"222 125 OFFCURVE",
"212 139 OFFCURVE",
"201 150 CURVE",
"224 162 OFFCURVE",
"248 197 OFFCURVE",
"246 214 CURVE",
"259 216 OFFCURVE",
"285 250 OFFCURVE",
"287 261 CURVE",
"301 261 OFFCURVE",
"327 294 OFFCURVE",
"324 314 CURVE",
"339 320 OFFCURVE",
"354 339 OFFCURVE",
"358 358 CURVE",
"378 361 OFFCURVE",
"391 381 OFFCURVE",
"392 401 CURVE",
"413 407 OFFCURVE",
"439 432 OFFCURVE",
"444 468 CURVE",
"465 476 OFFCURVE",
"489 504 OFFCURVE",
"495 528 CURVE",
"488 507 OFFCURVE",
"495 471 OFFCURVE",
"510 460 CURVE",
"502 446 OFFCURVE",
"506 407 OFFCURVE",
"522 393 CURVE",
"510 367 OFFCURVE",
"513 311 OFFCURVE",
"525 297 CURVE"
);
}
);
width = 635;
}
);
unicode = 00D8;
},
{
glyphname = OE;
layers = (
{
components = (
{
name = O;
}
);
layerId = "44398CD6-F961-4ECB-B01A-EEBF1DAB2450";
paths = (
{
closed = 1;
nodes = (
"828 710 OFFCURVE",
"810 709 OFFCURVE",
"797 696 CURVE",
"775 709 OFFCURVE",
"732 709 OFFCURVE",
"721 701 CURVE",
"711 709 OFFCURVE",
"697 707 OFFCURVE",
"683 702 CURVE",
"663 717 OFFCURVE",
"633 715 OFFCURVE",
"610 708 CURVE",
"591 724 OFFCURVE",
"553 717 OFFCURVE",
"537 701 CURVE",
"506 693 OFFCURVE",
"495 654 OFFCURVE",
"518 632 CURVE",
"516 622 OFFCURVE",
"522 595 OFFCURVE",
"528 586 CURVE",
"515 546 OFFCURVE",
"524 532 OFFCURVE",
"532 493 CURVE",
"506 471 OFFCURVE",
"520 406 OFFCURVE",
"532 381 CURVE",
"516 358 OFFCURVE",
"516 331 OFFCURVE",
"527 306 CURVE",
"519 295 OFFCURVE",
"518 280 OFFCURVE",
"525 267 CURVE",
"515 254 OFFCURVE",
"516 233 OFFCURVE",
"527 221 CURVE",
"524 210 OFFCURVE",
"525 197 OFFCURVE",
"530 187 CURVE",
"517 172 OFFCURVE",
"514 120 OFFCURVE",
"533 102 CURVE",
"530 86 OFFCURVE",
"533 59 OFFCURVE",
"544 47 CURVE",
"536 6 OFFCURVE",
"592 -18 OFFCURVE",
"617 17 CURVE",
"638 1 OFFCURVE",
"666 11 OFFCURVE",
"682 21 CURVE",
"705 17 OFFCURVE",
"727 20 OFFCURVE",
"743 37 CURVE",
"763 18 OFFCURVE",
"805 26 OFFCURVE",
"821 45 CURVE",
"842 33 OFFCURVE",
"878 43 OFFCURVE",
"885 59 CURVE",
"930 87 OFFCURVE",
"888 155 OFFCURVE",
"844 129 CURVE",
"824 137 OFFCURVE",
"787 128 OFFCURVE",
"775 110 CURVE",
"758 124 OFFCURVE",
"717 122 OFFCURVE",
"702 104 CURVE",
"686 107 OFFCURVE",
"660 107 OFFCURVE",
"644 95 CURVE",
"636 102 OFFCURVE",
"626 106 OFFCURVE",
"615 104 CURVE",
"617 119 OFFCURVE",
"619 135 OFFCURVE",
"607 144 CURVE",
"613 148 OFFCURVE",
"616 159 OFFCURVE",
"609 167 CURVE",
"618 184 OFFCURVE",
"620 187 OFFCURVE",
"611 206 CURVE",
"620 218 OFFCURVE",
"620 234 OFFCURVE",
"611 247 CURVE",
"618 260 OFFCURVE",
"618 275 OFFCURVE",
"609 286 CURVE",
"619 306 OFFCURVE",
"614 318 OFFCURVE",
"606 335 CURVE",
"616 333 OFFCURVE",
"620 335 OFFCURVE",
"628 340 CURVE",
"639 332 OFFCURVE",
"652 331 OFFCURVE",
"665 338 CURVE",
"682 330 OFFCURVE",
"707 330 OFFCURVE",
"721 342 CURVE",
"728 335 OFFCURVE",
"742 339 OFFCURVE",
"748 344 CURVE",
"763 333 OFFCURVE",
"791 332 OFFCURVE",
"805 346 CURVE",
"823 334 OFFCURVE",
"854 330 OFFCURVE",
"869 348 CURVE",
"938 353 OFFCURVE",
"899 445 OFFCURVE",
"840 413 CURVE",
"824 418 OFFCURVE",
"821 419 OFFCURVE",
"807 414 CURVE",
"803 420 OFFCURVE",
"786 422 OFFCURVE",
"774 414 CURVE",
"764 423 OFFCURVE",
"748 424 OFFCURVE",
"732 420 CURVE",
"719 423 OFFCURVE",
"710 423 OFFCURVE",
"695 419 CURVE",
"681 432 OFFCURVE",
"661 433 OFFCURVE",
"645 422 CURVE",
"634 426 OFFCURVE",
"621 425 OFFCURVE",
"609 419 CURVE",
"618 435 OFFCURVE",
"618 454 OFFCURVE",
"607 468 CURVE",
"622 497 OFFCURVE",
"616 527 OFFCURVE",
"604 546 CURVE",
"620 567 OFFCURVE",
"617 603 OFFCURVE",
"608 623 CURVE",
"617 624 OFFCURVE",
"633 631 OFFCURVE",
"640 635 CURVE",
"660 623 OFFCURVE",
"681 625 OFFCURVE",
"697 631 CURVE",
"716 625 OFFCURVE",
"733 625 OFFCURVE",
"753 634 CURVE",
"772 624 OFFCURVE",
"808 621 OFFCURVE",
"828 630 CURVE",
"844 619 OFFCURVE",
"865 615 OFFCURVE",
"878 628 CURVE",
"947 590 OFFCURVE",
"963 694 OFFCURVE",
"919 694 CURVE",
"897 709 OFFCURVE",
"865 714 OFFCURVE",
"847 702 CURVE"
);
}
);
width = 985;
}
);
unicode = 0152;
},
{
glyphname = P;
layers = (
{
layerId = "44398CD6-F961-4ECB-B01A-EEBF1DAB2450";
paths = (
{
closed = 1;
nodes = (
"483 637 OFFCURVE",
"462 651 OFFCURVE",
"449 654 CURVE",
"440 680 OFFCURVE",
"428 690 OFFCURVE",
"403 688 CURVE",
"391 702 OFFCURVE",
"364 719 OFFCURVE",
"339 713 CURVE",
"324 719 OFFCURVE",
"293 715 OFFCURVE",
"281 705 CURVE",
"257 719 OFFCURVE",
"243 712 OFFCURVE",
"221 705 CURVE",
"214 710 OFFCURVE",
"200 706 OFFCURVE",
"182 698 CURVE",
"175 726 OFFCURVE",
"106 726 OFFCURVE",
"104 693 CURVE",
"81 693 OFFCURVE",
"70 632 OFFCURVE",
"92 619 CURVE",
"89 600 OFFCURVE",
"89 583 OFFCURVE",
"106 567 CURVE",
"94 557 OFFCURVE",
"89 539 OFFCURVE",
"100 519 CURVE",
"87 500 OFFCURVE",
"92 489 OFFCURVE",
"102 474 CURVE",
"96 463 OFFCURVE",
"96 450 OFFCURVE",
"102 437 CURVE",
"96 426 OFFCURVE",
"96 398 OFFCURVE",
"107 382 CURVE",
"102 369 OFFCURVE",
"104 359 OFFCURVE",
"109 347 CURVE",
"102 335 OFFCURVE",
"102 293 OFFCURVE",
"109 277 CURVE",
"100 263 OFFCURVE",
"100 203 OFFCURVE",
"112 188 CURVE",
"109 167 OFFCURVE",
"107 141 OFFCURVE",
"120 117 CURVE",
"106 88 OFFCURVE",
"107 0 OFFCURVE",
"154 0 CURVE",
"203 0 OFFCURVE",
"203 36 OFFCURVE",
"198 63 CURVE",
"208 75 OFFCURVE",
"206 131 OFFCURVE",
"192 149 CURVE",
"205 173 OFFCURVE",
"206 211 OFFCURVE",
"190 232 CURVE",
"196 249 OFFCURVE",
"199 299 OFFCURVE",
"184 318 CURVE",
"196 331 OFFCURVE",
"193 345 OFFCURVE",
"188 359 CURVE",
"206 359 OFFCURVE",
"237 359 OFFCURVE",
"253 369 CURVE",
"268 363 OFFCURVE",
"284 363 OFFCURVE",
"293 367 CURVE",
"306 365 OFFCURVE",
"324 365 OFFCURVE",
"337 382 CURVE",
"350 378 OFFCURVE",
"380 388 OFFCURVE",
"389 396 CURVE",
"407 396 OFFCURVE",
"436 409 OFFCURVE",
"440 424 CURVE",
"457 435 OFFCURVE",
"460 458 OFFCURVE",
"461 472 CURVE",
"479 481 OFFCURVE",
"492 509 OFFCURVE",
"482 533 CURVE",
"510 555 OFFCURVE",
"514 578 OFFCURVE",
"494 592 CURVE",
"496 603 OFFCURVE",
"491 620 OFFCURVE",
"478 624 CURVE"
);
},
{
closed = 1;
nodes = (
"192 458 OFFCURVE",
"182 478 OFFCURVE",
"176 485 CURVE",
"182 496 OFFCURVE",
"181 523 OFFCURVE",
"176 535 CURVE",
"196 561 OFFCURVE",
"175 587 OFFCURVE",
"171 615 CURVE",
"178 614 OFFCURVE",
"200 621 OFFCURVE",
"202 625 CURVE",
"218 614 OFFCURVE",
"249 619 OFFCURVE",
"268 632 CURVE",
"299 623 OFFCURVE",
"317 626 OFFCURVE",
"346 641 CURVE",
"354 636 OFFCURVE",
"372 627 OFFCURVE",
"383 625 CURVE",
"384 610 OFFCURVE",
"406 594 OFFCURVE",
"424 584 CURVE",
"416 576 OFFCURVE",
"404 525 OFFCURVE",
"414 514 CURVE",
"406 509 OFFCURVE",
"396 487 OFFCURVE",
"396 476 CURVE",
"381 480 OFFCURVE",
"345 460 OFFCURVE",
"343 450 CURVE",
"330 453 OFFCURVE",
"319 452 OFFCURVE",
"308 439 CURVE",
"301 444 OFFCURVE",
"279 442 OFFCURVE",
"273 437 CURVE",
"265 446 OFFCURVE",
"230 446 OFFCURVE",
"220 437 CURVE",
"214 442 OFFCURVE",
"190 446 OFFCURVE",
"178 437 CURVE"
);
}
);
width = 552;
}
);
note = P;
unicode = 0050;
},
{
glyphname = Thorn;
layers = (
{
layerId = "44398CD6-F961-4ECB-B01A-EEBF1DAB2450";
paths = (
{
closed = 1;
nodes = (
"489 402 OFFCURVE",
"486 411 OFFCURVE",
"485 420 CURVE",
"505 453 OFFCURVE",
"473 489 OFFCURVE",
"450 491 CURVE",
"452 506 OFFCURVE",
"433 534 OFFCURVE",
"415 544 CURVE",
"409 563 OFFCURVE",
"376 587 OFFCURVE",
"337 567 CURVE",
"324 572 OFFCURVE",
"301 567 OFFCURVE",
"290 558 CURVE",
"273 571 OFFCURVE",
"234 564 OFFCURVE",
"214 553 CURVE",
"201 559 OFFCURVE",
"178 559 OFFCURVE",
"157 555 CURVE",
"157 558 OFFCURVE",
"156 560 OFFCURVE",
"156 562 CURVE",
"166 587 OFFCURVE",
"158 621 OFFCURVE",
"145 643 CURVE",
"158 668 OFFCURVE",
"166 704 OFFCURVE",
"138 720 CURVE",
"110 738 OFFCURVE",
"73 720 OFFCURVE",
"71 687 CURVE",
"58 675 OFFCURVE",
"59 636 OFFCURVE",
"72 619 CURVE",
"61 607 OFFCURVE",
"61 559 OFFCURVE",
"73 540 CURVE",
"63 531 OFFCURVE",
"64 508 OFFCURVE",
"74 495 CURVE",
"64 488 OFFCURVE",
"66 465 OFFCURVE",
"76 450 CURVE",
"67 440 OFFCURVE",
"67 433 OFFCURVE",
"74 416 CURVE",
"61 398 OFFCURVE",
"59 368 OFFCURVE",
"71 344 CURVE",
"61 329 OFFCURVE",
"67 306 OFFCURVE",
"76 286 CURVE",
"62 279 OFFCURVE",
"63 243 OFFCURVE",
"71 228 CURVE",
"62 214 OFFCURVE",
"61 198 OFFCURVE",
"72 184 CURVE",
"62 168 OFFCURVE",
"61 147 OFFCURVE",
"69 132 CURVE",
"67 123 OFFCURVE",
"68 113 OFFCURVE",
"71 104 CURVE",
"58 88 OFFCURVE",
"59 50 OFFCURVE",
"71 32 CURVE",
"54 -7 OFFCURVE",
"91 -72 OFFCURVE",
"138 -41 CURVE",
"170 -21 OFFCURVE",
"166 38 OFFCURVE",
"149 70 CURVE",
"166 87 OFFCURVE",
"161 104 OFFCURVE",
"156 121 CURVE",
"166 135 OFFCURVE",
"166 144 OFFCURVE",
"154 162 CURVE",
"157 165 OFFCURVE",
"158 169 OFFCURVE",
"159 171 CURVE",
"175 173 OFFCURVE",
"184 173 OFFCURVE",
"200 178 CURVE",
"222 171 OFFCURVE",
"245 171 OFFCURVE",
"265 184 CURVE",
"290 176 OFFCURVE",
"357 193 OFFCURVE",
"374 211 CURVE",
"391 213 OFFCURVE",
"406 226 OFFCURVE",
"410 242 CURVE",
"436 249 OFFCURVE",
"469 278 OFFCURVE",
"473 301 CURVE",
"485 311 OFFCURVE",
"493 329 OFFCURVE",
"486 341 CURVE",
"493 360 OFFCURVE",
"498 376 OFFCURVE",
"484 392 CURVE"
);
},
{
closed = 1;
nodes = (
"387 360 OFFCURVE",
"385 345 OFFCURVE",
"390 331 CURVE",
"367 332 OFFCURVE",
"346 320 OFFCURVE",
"335 295 CURVE",
"324 293 OFFCURVE",
"313 284 OFFCURVE",
"305 274 CURVE",
"283 282 OFFCURVE",
"237 274 OFFCURVE",
"216 264 CURVE",
"201 272 OFFCURVE",
"178 275 OFFCURVE",
"162 269 CURVE",
"166 283 OFFCURVE",
"167 299 OFFCURVE",
"158 313 CURVE",
"166 340 OFFCURVE",
"163 367 OFFCURVE",
"154 387 CURVE",
"166 399 OFFCURVE",
"168 419 OFFCURVE",
"159 434 CURVE",
"162 440 OFFCURVE",
"164 450 OFFCURVE",
"164 462 CURVE",
"171 465 OFFCURVE",
"178 468 OFFCURVE",
"185 469 CURVE",
"202 453 OFFCURVE",
"232 453 OFFCURVE",
"248 471 CURVE",
"273 458 OFFCURVE",
"303 457 OFFCURVE",
"324 471 CURVE",
"333 468 OFFCURVE",
"343 467 OFFCURVE",
"353 468 CURVE",
"360 451 OFFCURVE",
"365 448 OFFCURVE",
"379 440 CURVE",
"379 426 OFFCURVE",
"387 419 OFFCURVE",
"396 412 CURVE",
"396 411 OFFCURVE",
"398 408 OFFCURVE",
"398 407 CURVE",
"392 396 OFFCURVE",
"391 383 OFFCURVE",
"395 372 CURVE"
);
}
);
width = 558;
}
);
unicode = 00DE;
},
{
glyphname = Q;
layers = (
{
layerId = "44398CD6-F961-4ECB-B01A-EEBF1DAB2450";
paths = (
{
closed = 1;
nodes = (
"489 58 OFFCURVE",
"467 77 OFFCURVE",
"453 82 CURVE",
"473 86 OFFCURVE",
"497 111 OFFCURVE",
"497 129 CURVE",
"520 139 OFFCURVE",
"531 163 OFFCURVE",
"522 186 CURVE",
"533 201 OFFCURVE",
"543 234 OFFCURVE",
"531 250 CURVE",
"543 263 OFFCURVE",
"550 293 OFFCURVE",
"543 311 CURVE",
"560 327 OFFCURVE",
"556 378 OFFCURVE",
"541 389 CURVE",
"550 416 OFFCURVE",
"548 425 OFFCURVE",
"530 445 CURVE",
"531 458 OFFCURVE",
"527 490 OFFCURVE",
"514 498 CURVE",
"516 508 OFFCURVE",
"512 529 OFFCURVE",
"497 534 CURVE",
"504 549 OFFCURVE",
"493 573 OFFCURVE",
"481 578 CURVE",
"484 591 OFFCURVE",
"467 613 OFFCURVE",
"449 618 CURVE",
"453 639 OFFCURVE",
"430 664 OFFCURVE",
"406 662 CURVE",
"398 692 OFFCURVE",
"361 710 OFFCURVE",
"331 698 CURVE",
"319 719 OFFCURVE",
"252 722 OFFCURVE",
"240 694 CURVE",
"220 696 OFFCURVE",
"199 670 OFFCURVE",
"193 652 CURVE",
"167 652 OFFCURVE",
"142 619 OFFCURVE",
"144 585 CURVE",
"122 575 OFFCURVE",
"104 550 OFFCURVE",
"110 518 CURVE",
"84 502 OFFCURVE",
"84 483 OFFCURVE",
"89 458 CURVE",
"78 447 OFFCURVE",
"76 420 OFFCURVE",
"80 402 CURVE",
"72 389 OFFCURVE",
"70 355 OFFCURVE",
"72 344 CURVE",
"60 330 OFFCURVE",
"66 293 OFFCURVE",
"76 281 CURVE",
"66 263 OFFCURVE",
"68 241 OFFCURVE",
"87 226 CURVE",
"85 212 OFFCURVE",
"89 191 OFFCURVE",
"100 180 CURVE",
"94 157 OFFCURVE",
"106 115 OFFCURVE",
"127 106 CURVE",
"129 92 OFFCURVE",
"153 71 OFFCURVE",
"167 66 CURVE",
"179 33 OFFCURVE",
"199 22 OFFCURVE",
"238 18 CURVE",
"260 3 OFFCURVE",
"293 -1 OFFCURVE",
"321 2 CURVE",
"341 3 OFFCURVE",
"378 3 OFFCURVE",
"392 22 CURVE",
"394 18 OFFCURVE",
"403 3 OFFCURVE",
"416 3 CURVE",
"420 -18 OFFCURVE",
"445 -28 OFFCURVE",
"465 -30 CURVE",
"474 -43 OFFCURVE",
"489 -52 OFFCURVE",
"504 -52 CURVE",
"554 -76 OFFCURVE",
"588 3 OFFCURVE",
"531 18 CURVE",
"531 29 OFFCURVE",
"507 46 OFFCURVE",
"491 44 CURVE"
);
},
{
closed = 1;
nodes = (
"232 115 OFFCURVE",
"226 137 OFFCURVE",
"205 145 CURVE",
"201 162 OFFCURVE",
"187 174 OFFCURVE",
"171 175 CURVE",
"175 193 OFFCURVE",
"177 212 OFFCURVE",
"167 224 CURVE",
"171 241 OFFCURVE",
"167 256 OFFCURVE",
"154 266 CURVE",
"156 275 OFFCURVE",
"154 293 OFFCURVE",
"153 299 CURVE",
"163 313 OFFCURVE",
"164 330 OFFCURVE",
"153 342 CURVE",
"163 352 OFFCURVE",
"161 390 OFFCURVE",
"153 405 CURVE",
"164 414 OFFCURVE",
"171 445 OFFCURVE",
"163 459 CURVE",
"179 464 OFFCURVE",
"195 492 OFFCURVE",
"187 510 CURVE",
"205 526 OFFCURVE",
"213 549 OFFCURVE",
"207 573 CURVE",
"226 573 OFFCURVE",
"240 585 OFFCURVE",
"246 603 CURVE",
"257 601 OFFCURVE",
"268 611 OFFCURVE",
"270 619 CURVE",
"277 611 OFFCURVE",
"308 611 OFFCURVE",
"316 619 CURVE",
"327 605 OFFCURVE",
"337 596 OFFCURVE",
"356 603 CURVE",
"356 588 OFFCURVE",
"373 571 OFFCURVE",
"386 565 CURVE",
"390 550 OFFCURVE",
"392 536 OFFCURVE",
"408 529 CURVE",
"411 520 OFFCURVE",
"416 512 OFFCURVE",
"424 508 CURVE",
"424 492 OFFCURVE",
"434 482 OFFCURVE",
"442 469 CURVE",
"437 451 OFFCURVE",
"447 418 OFFCURVE",
"463 409 CURVE",
"459 397 OFFCURVE",
"461 384 OFFCURVE",
"471 374 CURVE",
"465 359 OFFCURVE",
"467 333 OFFCURVE",
"476 322 CURVE",
"465 317 OFFCURVE",
"463 281 OFFCURVE",
"473 275 CURVE",
"459 263 OFFCURVE",
"450 237 OFFCURVE",
"459 222 CURVE",
"450 209 OFFCURVE",
"437 188 OFFCURVE",
"442 175 CURVE",
"430 170 OFFCURVE",
"424 165 OFFCURVE",
"420 153 CURVE",
"414 153 OFFCURVE",
"403 140 OFFCURVE",
"398 125 CURVE",
"394 137 OFFCURVE",
"388 140 OFFCURVE",
"380 142 CURVE",
"352 193 OFFCURVE",
"277 140 OFFCURVE",
"316 96 CURVE",
"319 90 OFFCURVE",
"321 86 OFFCURVE",
"324 79 CURVE",
"314 90 OFFCURVE",
"287 90 OFFCURVE",
"277 82 CURVE",
"268 92 OFFCURVE",
"246 100 OFFCURVE",
"230 94 CURVE"
);
}
);
width = 611;
}
);
note = Q;
unicode = 0051;
},
{
glyphname = R;
layers = (
{
layerId = "44398CD6-F961-4ECB-B01A-EEBF1DAB2450";
paths = (
{
closed = 1;
nodes = (
"502 143 OFFCURVE",
"491 166 OFFCURVE",
"469 177 CURVE",
"471 200 OFFCURVE",
"456 227 OFFCURVE",
"442 241 CURVE",
"442 267 OFFCURVE",
"431 289 OFFCURVE",
"410 295 CURVE",
"414 310 OFFCURVE",
"399 336 OFFCURVE",
"389 339 CURVE",
"392 343 OFFCURVE",
"387 361 OFFCURVE",
"378 362 CURVE",
"398 367 OFFCURVE",
"422 368 OFFCURVE",
"431 383 CURVE",
"450 383 OFFCURVE",
"464 395 OFFCURVE",
"469 412 CURVE",
"491 418 OFFCURVE",
"502 444 OFFCURVE",
"502 463 CURVE",
"515 478 OFFCURVE",
"517 496 OFFCURVE",
"510 519 CURVE",
"521 535 OFFCURVE",
"517 565 OFFCURVE",
"506 585 CURVE",
"506 606 OFFCURVE",
"499 629 OFFCURVE",
"473 632 CURVE",
"467 644 OFFCURVE",
"458 650 OFFCURVE",
"446 652 CURVE",
"440 673 OFFCURVE",
"420 690 OFFCURVE",
"399 684 CURVE",
"392 703 OFFCURVE",
"352 707 OFFCURVE",
"320 697 CURVE",
"305 711 OFFCURVE",
"277 707 OFFCURVE",
"258 701 CURVE",
"247 712 OFFCURVE",
"213 712 OFFCURVE",
"198 703 CURVE",
"191 708 OFFCURVE",
"170 707 OFFCURVE",
"163 705 CURVE",
"149 727 OFFCURVE",
"94 712 OFFCURVE",
"96 703 CURVE",
"47 707 OFFCURVE",
"38 632 OFFCURVE",
"85 623 CURVE",
"85 615 OFFCURVE",
"84 591 OFFCURVE",
"93 582 CURVE",
"81 570 OFFCURVE",
"81 554 OFFCURVE",
"90 530 CURVE",
"78 516 OFFCURVE",
"78 493 OFFCURVE",
"87 479 CURVE",
"78 464 OFFCURVE",
"79 436 OFFCURVE",
"90 421 CURVE",
"84 403 OFFCURVE",
"87 359 OFFCURVE",
"94 353 CURVE",
"84 350 OFFCURVE",
"84 313 OFFCURVE",
"96 306 CURVE",
"81 291 OFFCURVE",
"81 252 OFFCURVE",
"102 241 CURVE",
"87 221 OFFCURVE",
"98 171 OFFCURVE",
"102 160 CURVE",
"93 143 OFFCURVE",
"94 109 OFFCURVE",
"104 86 CURVE",
"90 51 OFFCURVE",
"104 0 OFFCURVE",
"134 0 CURVE",
"193 0 OFFCURVE",
"189 62 OFFCURVE",
"178 95 CURVE",
"193 112 OFFCURVE",
"189 159 OFFCURVE",
"176 181 CURVE",
"189 200 OFFCURVE",
"183 229 OFFCURVE",
"174 244 CURVE",
"183 256 OFFCURVE",
"180 301 OFFCURVE",
"174 310 CURVE",
"181 325 OFFCURVE",
"176 372 OFFCURVE",
"166 387 CURVE",
"174 403 OFFCURVE",
"174 436 OFFCURVE",
"161 446 CURVE",
"172 459 OFFCURVE",
"170 478 OFFCURVE",
"163 494 CURVE",
"176 511 OFFCURVE",
"170 543 OFFCURVE",
"163 559 CURVE",
"170 573 OFFCURVE",
"169 606 OFFCURVE",
"163 623 CURVE",
"178 615 OFFCURVE",
"204 614 OFFCURVE",
"215 625 CURVE",
"230 614 OFFCURVE",
"261 615 OFFCURVE",
"271 625 CURVE",
"288 606 OFFCURVE",
"323 610 OFFCURVE",
"342 623 CURVE",
"356 610 OFFCURVE",
"365 594 OFFCURVE",
"389 597 CURVE",
"394 591 OFFCURVE",
"401 586 OFFCURVE",
"410 585 CURVE",
"414 575 OFFCURVE",
"420 570 OFFCURVE",
"427 564 CURVE",
"425 553 OFFCURVE",
"427 540 OFFCURVE",
"436 533 CURVE",
"431 524 OFFCURVE",
"431 498 OFFCURVE",
"436 485 CURVE",
"425 484 OFFCURVE",
"416 469 OFFCURVE",
"416 457 CURVE",
"407 459 OFFCURVE",
"389 458 OFFCURVE",
"383 445 CURVE",
"367 450 OFFCURVE",
"338 435 OFFCURVE",
"331 425 CURVE",
"317 430 OFFCURVE",
"307 427 OFFCURVE",
"296 418 CURVE",
"292 424 OFFCURVE",
"271 423 OFFCURVE",
"250 419 CURVE",
"238 425 OFFCURVE",
"205 423 OFFCURVE",
"200 417 CURVE",
"178 419 OFFCURVE",
"164 350 OFFCURVE",
"209 351 CURVE",
"219 342 OFFCURVE",
"245 347 OFFCURVE",
"258 350 CURVE",
"273 345 OFFCURVE",
"288 342 OFFCURVE",
"303 351 CURVE",
"294 339 OFFCURVE",
"303 313 OFFCURVE",
"320 304 CURVE",
"320 284 OFFCURVE",
"333 252 OFFCURVE",
"354 249 CURVE",
"354 226 OFFCURVE",
"363 201 OFFCURVE",
"383 185 CURVE",
"378 168 OFFCURVE",
"399 132 OFFCURVE",
"413 121 CURVE",
"413 101 OFFCURVE",
"436 60 OFFCURVE",
"452 51 CURVE",
"454 28 OFFCURVE",
"485 0 OFFCURVE",
"510 2 CURVE",
"543 6 OFFCURVE",
"555 48 OFFCURVE",
"532 72 CURVE",
"535 81 OFFCURVE",
"521 116 OFFCURVE",
"499 118 CURVE"
);
}
);
width = 579;
}
);
note = R;
unicode = 0052;
},
{
glyphname = S;
layers = (
{
layerId = "44398CD6-F961-4ECB-B01A-EEBF1DAB2450";
paths = (
{
closed = 1;
nodes = (
"203 569 OFFCURVE",
"216 579 OFFCURVE",
"223 591 CURVE",
"238 594 OFFCURVE",
"253 604 OFFCURVE",
"258 619 CURVE",
"273 614 OFFCURVE",
"292 616 OFFCURVE",
"300 625 CURVE",
"320 616 OFFCURVE",
"345 619 OFFCURVE",
"353 630 CURVE",
"365 611 OFFCURVE",
"394 599 OFFCURVE",
"409 601 CURVE",
"407 584 OFFCURVE",
"419 569 OFFCURVE",
"434 559 CURVE",
"432 546 OFFCURVE",
"448 530 OFFCURVE",
"463 527 CURVE",
"483 505 OFFCURVE",
"530 517 OFFCURVE",
"528 556 CURVE",
"523 591 OFFCURVE",
"516 604 OFFCURVE",
"493 620 CURVE",
"496 645 OFFCURVE",
"461 678 OFFCURVE",
"439 673 CURVE",
"424 698 OFFCURVE",
"404 712 OFFCURVE",
"377 707 CURVE",
"365 717 OFFCURVE",
"323 722 OFFCURVE",
"307 707 CURVE",
"295 712 OFFCURVE",
"273 707 OFFCURVE",
"268 698 CURVE",
"243 707 OFFCURVE",
"208 698 OFFCURVE",
"201 675 CURVE",
"182 675 OFFCURVE",
"167 663 OFFCURVE",
"164 648 CURVE",
"144 648 OFFCURVE",
"127 633 OFFCURVE",
"117 619 CURVE",
"113 609 OFFCURVE",
"110 599 OFFCURVE",
"110 589 CURVE",
"100 584 OFFCURVE",
"88 546 OFFCURVE",
"95 530 CURVE",
"73 510 OFFCURVE",
"80 438 OFFCURVE",
"103 423 CURVE",
"103 403 OFFCURVE",
"115 391 OFFCURVE",
"127 388 CURVE",
"129 375 OFFCURVE",
"147 366 OFFCURVE",
"162 364 CURVE",
"164 354 OFFCURVE",
"182 351 OFFCURVE",
"201 351 CURVE",
"203 341 OFFCURVE",
"226 336 OFFCURVE",
"236 341 CURVE",
"246 336 OFFCURVE",
"263 334 OFFCURVE",
"276 341 CURVE",
"290 331 OFFCURVE",
"307 326 OFFCURVE",
"320 336 CURVE",
"330 324 OFFCURVE",
"348 316 OFFCURVE",
"365 321 CURVE",
"369 304 OFFCURVE",
"384 294 OFFCURVE",
"407 296 CURVE",
"412 289 OFFCURVE",
"419 285 OFFCURVE",
"429 282 CURVE",
"429 265 OFFCURVE",
"439 255 OFFCURVE",
"447 250 CURVE",
"437 232 OFFCURVE",
"437 220 OFFCURVE",
"448 206 CURVE",
"439 201 OFFCURVE",
"432 171 OFFCURVE",
"437 161 CURVE",
"422 153 OFFCURVE",
"417 148 OFFCURVE",
"412 133 CURVE",
"399 131 OFFCURVE",
"384 119 OFFCURVE",
"374 104 CURVE",
"363 107 OFFCURVE",
"355 99 OFFCURVE",
"348 89 CURVE",
"335 94 OFFCURVE",
"323 94 OFFCURVE",
"312 87 CURVE",
"300 102 OFFCURVE",
"285 102 OFFCURVE",
"268 97 CURVE",
"266 112 OFFCURVE",
"238 122 OFFCURVE",
"223 114 CURVE",
"221 138 OFFCURVE",
"197 161 OFFCURVE",
"174 153 CURVE",
"172 178 OFFCURVE",
"144 193 OFFCURVE",
"122 186 CURVE",
"68 203 OFFCURVE",
"48 117 OFFCURVE",
"103 107 CURVE",
"105 92 OFFCURVE",
"132 74 OFFCURVE",
"154 74 CURVE",
"162 49 OFFCURVE",
"184 38 OFFCURVE",
"199 42 CURVE",
"208 20 OFFCURVE",
"238 10 OFFCURVE",
"263 20 CURVE",
"281 -8 OFFCURVE",
"367 -5 OFFCURVE",
"387 20 CURVE",
"409 15 OFFCURVE",
"437 38 OFFCURVE",
"439 54 CURVE",
"458 62 OFFCURVE",
"483 82 OFFCURVE",
"488 107 CURVE",
"508 114 OFFCURVE",
"526 151 OFFCURVE",
"518 173 CURVE",
"530 196 OFFCURVE",
"530 232 OFFCURVE",
"511 245 CURVE",
"528 272 OFFCURVE",
"496 349 OFFCURVE",
"466 354 CURVE",
"458 369 OFFCURVE",
"442 383 OFFCURVE",
"424 380 CURVE",
"424 396 OFFCURVE",
"389 411 OFFCURVE",
"367 406 CURVE",
"360 418 OFFCURVE",
"320 421 OFFCURVE",
"310 413 CURVE",
"302 421 OFFCURVE",
"281 423 OFFCURVE",
"273 418 CURVE",
"266 428 OFFCURVE",
"243 428 OFFCURVE",
"238 423 CURVE",
"233 426 OFFCURVE",
"211 431 OFFCURVE",
"206 428 CURVE",
"201 443 OFFCURVE",
"189 451 OFFCURVE",
"177 451 CURVE",
"177 455 OFFCURVE",
"172 475 OFFCURVE",
"167 480 CURVE",
"169 482 OFFCURVE",
"174 517 OFFCURVE",
"169 522 CURVE",
"187 532 OFFCURVE",
"197 559 OFFCURVE",
"189 569 CURVE"
);
}
);
width = 583;
}
);
note = S;
unicode = 0053;
},
{
glyphname = Germandbls;
layers = (
{
layerId = "44398CD6-F961-4ECB-B01A-EEBF1DAB2450";
paths = (
{
closed = 1;
nodes = (
"555 248 OFFCURVE",
"541 289 OFFCURVE",
"527 302 CURVE",
"527 329 OFFCURVE",
"485 385 OFFCURVE",
"444 370 CURVE",
"431 370 OFFCURVE",
"403 399 OFFCURVE",
"390 399 CURVE",
"370 399 OFFCURVE",
"367 409 OFFCURVE",
"363 413 CURVE",
"376 426 OFFCURVE",
"390 426 OFFCURVE",
"390 440 CURVE",
"403 440 OFFCURVE",
"431 440 OFFCURVE",
"444 467 CURVE",
"458 453 OFFCURVE",
"500 467 OFFCURVE",
"500 494 CURVE",
"514 508 OFFCURVE",
"514 521 OFFCURVE",
"514 537 CURVE",
"527 537 OFFCURVE",
"527 564 OFFCURVE",
"527 577 CURVE",
"527 577 OFFCURVE",
"514 645 OFFCURVE",
"500 659 CURVE",
"471 701 OFFCURVE",
"431 729 OFFCURVE",
"376 715 CURVE",
"363 715 OFFCURVE",
"349 715 OFFCURVE",
"334 715 CURVE",
"320 742 OFFCURVE",
"266 729 OFFCURVE",
"252 715 CURVE",
"225 729 OFFCURVE",
"183 701 OFFCURVE",
"169 672 CURVE",
"156 672 OFFCURVE",
"115 659 OFFCURVE",
"115 632 CURVE",
"115 618 OFFCURVE",
"101 618 OFFCURVE",
"101 605 CURVE",
"88 605 OFFCURVE",
"74 577 OFFCURVE",
"88 550 CURVE",
"60 537 OFFCURVE",
"60 494 OFFCURVE",
"74 481 CURVE",
"60 453 OFFCURVE",
"60 440 OFFCURVE",
"74 413 CURVE",
"60 399 OFFCURVE",
"47 385 OFFCURVE",
"60 357 CURVE",
"60 343 OFFCURVE",
"60 329 OFFCURVE",
"74 316 CURVE",
"60 316 OFFCURVE",
"60 289 OFFCURVE",
"74 275 CURVE",
"74 262 OFFCURVE",
"74 248 OFFCURVE",
"88 234 CURVE",
"74 219 OFFCURVE",
"74 178 OFFCURVE",
"88 165 CURVE",
"88 151 OFFCURVE",
"88 151 OFFCURVE",
"88 138 CURVE",
"88 124 OFFCURVE",
"88 97 OFFCURVE",
"101 83 CURVE",
"101 83 OFFCURVE",
"101 68 OFFCURVE",
"101 54 CURVE",
"88 0 OFFCURVE",
"169 -27 OFFCURVE",
"183 27 CURVE",
"198 41 OFFCURVE",
"198 83 OFFCURVE",
"183 97 CURVE",
"183 97 OFFCURVE",
"183 110 OFFCURVE",
"169 124 CURVE",
"183 138 OFFCURVE",
"169 178 OFFCURVE",
"156 192 CURVE",
"169 219 OFFCURVE",
"169 262 OFFCURVE",
"156 275 CURVE",
"156 289 OFFCURVE",
"156 329 OFFCURVE",
"156 343 CURVE",
"156 357 OFFCURVE",
"156 399 OFFCURVE",
"142 413 CURVE",
"156 453 OFFCURVE",
"156 467 OFFCURVE",
"156 494 CURVE",
"156 508 OFFCURVE",
"156 508 OFFCURVE",
"156 521 CURVE",
"156 521 OFFCURVE",
"169 537 OFFCURVE",
"156 550 CURVE",
"183 564 OFFCURVE",
"198 577 OFFCURVE",
"198 605 CURVE",
"212 605 OFFCURVE",
"239 618 OFFCURVE",
"239 632 CURVE",
"266 618 OFFCURVE",
"293 632 OFFCURVE",
"307 645 CURVE",
"307 632 OFFCURVE",
"320 632 OFFCURVE",
"334 632 CURVE",
"349 618 OFFCURVE",
"376 618 OFFCURVE",
"403 632 CURVE",
"403 618 OFFCURVE",
"417 618 OFFCURVE",
"431 605 CURVE",
"431 605 OFFCURVE",
"431 591 OFFCURVE",
"444 577 CURVE",
"431 577 OFFCURVE",
"431 564 OFFCURVE",
"431 550 CURVE",
"417 550 OFFCURVE",
"390 537 OFFCURVE",
"390 521 CURVE",
"376 521 OFFCURVE",
"349 521 OFFCURVE",
"349 521 CURVE",
"334 508 OFFCURVE",
"320 508 OFFCURVE",
"320 494 CURVE",
"307 481 OFFCURVE",
"293 481 OFFCURVE",
"293 467 CURVE",
"280 453 OFFCURVE",
"266 440 OFFCURVE",
"280 426 CURVE",
"266 385 OFFCURVE",
"280 370 OFFCURVE",
"307 357 CURVE",
"320 329 OFFCURVE",
"349 316 OFFCURVE",
"376 316 CURVE",
"390 302 OFFCURVE",
"431 289 OFFCURVE",
"444 289 CURVE",
"444 275 OFFCURVE",
"458 248 OFFCURVE",
"471 248 CURVE",
"458 234 OFFCURVE",
"471 205 OFFCURVE",
"471 192 CURVE",
"458 192 OFFCURVE",
"458 165 OFFCURVE",
"444 151 CURVE",
"431 151 OFFCURVE",
"417 138 OFFCURVE",
"403 124 CURVE",
"403 124 OFFCURVE",
"390 124 OFFCURVE",
"390 124 CURVE",
"376 138 OFFCURVE",
"363 151 OFFCURVE",
"334 151 CURVE",
"280 165 OFFCURVE",
"252 68 OFFCURVE",
"320 68 CURVE",
"334 54 OFFCURVE",
"349 41 OFFCURVE",
"363 41 CURVE",
"363 27 OFFCURVE",
"376 27 OFFCURVE",
"390 41 CURVE",
"403 27 OFFCURVE",
"417 41 OFFCURVE",
"417 41 CURVE",
"417 41 OFFCURVE",
"431 41 OFFCURVE",
"444 54 CURVE",
"458 54 OFFCURVE",
"471 54 OFFCURVE",
"471 68 CURVE",
"500 83 OFFCURVE",
"514 97 OFFCURVE",
"514 124 CURVE",
"541 138 OFFCURVE",
"568 165 OFFCURVE",
"555 205 CURVE",
"555 205 OFFCURVE",
"555 219 OFFCURVE",
"555 219 CURVE"
);
}
);
width = 613;
}
);
unicode = 1E9E;
},
{
glyphname = Schwa;
layers = (
{
layerId = "44398CD6-F961-4ECB-B01A-EEBF1DAB2450";
paths = (
{
closed = 1;
nodes = (
"129 388 OFFCURVE",
"176 393 OFFCURVE",
"197 415 CURVE",
"217 412 OFFCURVE",
"234 425 OFFCURVE",
"238 434 CURVE",
"246 429 OFFCURVE",
"257 429 OFFCURVE",
"268 431 CURVE",
"277 422 OFFCURVE",
"291 419 OFFCURVE",
"304 424 CURVE",
"306 415 OFFCURVE",
"333 410 OFFCURVE",
"341 417 CURVE",
"342 407 OFFCURVE",
"355 392 OFFCURVE",
"370 391 CURVE",
"373 372 OFFCURVE",
"388 364 OFFCURVE",
"391 361 CURVE",
"387 347 OFFCURVE",
"393 333 OFFCURVE",
"403 322 CURVE",
"394 312 OFFCURVE",
"393 292 OFFCURVE",
"393 283 CURVE",
"384 288 OFFCURVE",
"347 290 OFFCURVE",
"334 280 CURVE",
"315 289 OFFCURVE",
"295 289 OFFCURVE",
"278 281 CURVE",
"258 291 OFFCURVE",
"232 289 OFFCURVE",
"222 282 CURVE",
"210 298 OFFCURVE",
"161 294 OFFCURVE",
"145 283 CURVE",
"117 297 OFFCURVE",
"87 289 OFFCURVE",
"72 265 CURVE",
"21 248 OFFCURVE",
"44 175 OFFCURVE",
"67 164 CURVE",
"50 102 OFFCURVE",
"109 64 OFFCURVE",
"136 69 CURVE",
"138 38 OFFCURVE",
"165 33 OFFCURVE",
"185 30 CURVE",
"182 21 OFFCURVE",
"201 13 OFFCURVE",
"218 15 CURVE",
"228 11 OFFCURVE",
"246 11 OFFCURVE",
"254 20 CURVE",
"268 23 OFFCURVE",
"279 27 OFFCURVE",
"285 36 CURVE",
"294 31 OFFCURVE",
"325 39 OFFCURVE",
"328 53 CURVE",
"346 51 OFFCURVE",
"380 72 OFFCURVE",
"381 94 CURVE",
"419 101 OFFCURVE",
"424 127 OFFCURVE",
"422 148 CURVE",
"440 150 OFFCURVE",
"459 186 OFFCURVE",
"457 195 CURVE",
"466 202 OFFCURVE",
"487 240 OFFCURVE",
"473 265 CURVE",
"485 285 OFFCURVE",
"483 320 OFFCURVE",
"477 339 CURVE",
"482 348 OFFCURVE",
"477 367 OFFCURVE",
"471 370 CURVE",
"472 374 OFFCURVE",
"472 379 OFFCURVE",
"471 384 CURVE",
"469 399 OFFCURVE",
"461 409 OFFCURVE",
"447 415 CURVE",
"446 430 OFFCURVE",
"419 461 OFFCURVE",
"401 462 CURVE",
"391 487 OFFCURVE",
"369 495 OFFCURVE",
"339 495 CURVE",
"330 504 OFFCURVE",
"316 508 OFFCURVE",
"302 504 CURVE",
"290 515 OFFCURVE",
"256 515 OFFCURVE",
"243 505 CURVE",
"224 512 OFFCURVE",
"201 508 OFFCURVE",
"188 492 CURVE",
"173 494 OFFCURVE",
"149 478 OFFCURVE",
"134 471 CURVE",
"115 460 OFFCURVE",
"107 439 OFFCURVE",
"115 419 CURVE"
);
},
{
closed = 1;
nodes = (
"248 105 OFFCURVE",
"228 101 OFFCURVE",
"221 95 CURVE",
"220 107 OFFCURVE",
"194 122 OFFCURVE",
"188 118 CURVE",
"177 133 OFFCURVE",
"167 161 OFFCURVE",
"142 160 CURVE",
"151 173 OFFCURVE",
"139 208 OFFCURVE",
"127 212 CURVE",
"139 207 OFFCURVE",
"191 200 OFFCURVE",
"205 217 CURVE",
"232 191 OFFCURVE",
"272 202 OFFCURVE",
"293 213 CURVE",
"303 204 OFFCURVE",
"347 194 OFFCURVE",
"369 209 CURVE",
"370 209 OFFCURVE",
"371 209 OFFCURVE",
"373 207 CURVE",
"360 197 OFFCURVE",
"342 174 OFFCURVE",
"339 156 CURVE",
"316 149 OFFCURVE",
"303 133 OFFCURVE",
"291 114 CURVE",
"275 117 OFFCURVE",
"259 108 OFFCURVE",
"256 103 CURVE"
);
}
);
width = 533;
}
);
unicode = 018F;
},
{
glyphname = T;
layers = (
{
layerId = "44398CD6-F961-4ECB-B01A-EEBF1DAB2450";
paths = (
{
closed = 1;
nodes = (
"407 711 OFFCURVE",
"365 713 OFFCURVE",
"348 700 CURVE",
"340 714 OFFCURVE",
"305 710 OFFCURVE",
"296 701 CURVE",
"285 714 OFFCURVE",
"234 713 OFFCURVE",
"225 700 CURVE",
"211 711 OFFCURVE",
"167 715 OFFCURVE",
"153 704 CURVE",
"140 713 OFFCURVE",
"103 713 OFFCURVE",
"93 702 CURVE",
"21 730 OFFCURVE",
"-31 615 OFFCURVE",
"81 627 CURVE",
"93 611 OFFCURVE",
"136 612 OFFCURVE",
"151 626 CURVE",
"159 616 OFFCURVE",
"186 614 OFFCURVE",
"198 621 CURVE",
"210 615 OFFCURVE",
"227 614 OFFCURVE",
"241 622 CURVE",
"236 600 OFFCURVE",
"237 563 OFFCURVE",
"250 551 CURVE",
"240 530 OFFCURVE",
"243 496 OFFCURVE",
"251 477 CURVE",
"247 449 OFFCURVE",
"242 419 OFFCURVE",
"256 391 CURVE",
"247 376 OFFCURVE",
"253 338 OFFCURVE",
"264 326 CURVE",
"257 304 OFFCURVE",
"258 263 OFFCURVE",
"274 254 CURVE",
"261 237 OFFCURVE",
"263 210 OFFCURVE",
"280 197 CURVE",
"270 187 OFFCURVE",
"263 169 OFFCURVE",
"278 148 CURVE",
"273 132 OFFCURVE",
"276 103 OFFCURVE",
"287 91 CURVE",
"281 74 OFFCURVE",
"288 43 OFFCURVE",
"300 31 CURVE",
"309 -26 OFFCURVE",
"399 2 OFFCURVE",
"373 59 CURVE",
"375 71 OFFCURVE",
"369 81 OFFCURVE",
"362 89 CURVE",
"368 106 OFFCURVE",
"363 129 OFFCURVE",
"355 138 CURVE",
"361 151 OFFCURVE",
"361 172 OFFCURVE",
"354 186 CURVE",
"362 200 OFFCURVE",
"359 232 OFFCURVE",
"350 245 CURVE",
"357 261 OFFCURVE",
"360 304 OFFCURVE",
"340 321 CURVE",
"353 341 OFFCURVE",
"343 380 OFFCURVE",
"334 392 CURVE",
"342 418 OFFCURVE",
"338 450 OFFCURVE",
"328 475 CURVE",
"340 499 OFFCURVE",
"338 537 OFFCURVE",
"321 557 CURVE",
"333 567 OFFCURVE",
"333 602 OFFCURVE",
"322 619 CURVE",
"334 615 OFFCURVE",
"382 618 OFFCURVE",
"393 627 CURVE",
"416 615 OFFCURVE",
"450 614 OFFCURVE",
"464 627 CURVE",
"550 608 OFFCURVE",
"535 710 OFFCURVE",
"478 701 CURVE",
"466 710 OFFCURVE",
"440 710 OFFCURVE",
"423 698 CURVE"
);
}
);
width = 555;
}
);
note = T;
unicode = 0054;
},
{
glyphname = Tbar;
layers = (
{
components = (
{
name = T;
}
);
layerId = "44398CD6-F961-4ECB-B01A-EEBF1DAB2450";
paths = (
{
closed = 1;
nodes = (
"196 362 OFFCURVE",
"214 362 OFFCURVE",
"227 369 CURVE",
"240 361 OFFCURVE",
"265 365 OFFCURVE",
"280 370 CURVE",
"295 359 OFFCURVE",
"316 362 OFFCURVE",
"328 375 CURVE",
"341 361 OFFCURVE",
"362 359 OFFCURVE",
"378 369 CURVE",
"385 361 OFFCURVE",
"402 364 OFFCURVE",
"417 371 CURVE",
"488 359 OFFCURVE",
"485 473 OFFCURVE",
"398 446 CURVE",
"385 457 OFFCURVE",
"362 452 OFFCURVE",
"356 448 CURVE",
"340 457 OFFCURVE",
"313 460 OFFCURVE",
"298 449 CURVE",
"281 456 OFFCURVE",
"260 454 OFFCURVE",
"251 442 CURVE",
"237 452 OFFCURVE",
"218 453 OFFCURVE",
"204 443 CURVE",
"194 449 OFFCURVE",
"177 449 OFFCURVE",
"164 443 CURVE",
"106 442 OFFCURVE",
"93 359 OFFCURVE",
"184 370 CURVE"
);
}
);
width = 546;
}
);
unicode = 0166;
},
{
glyphname = U;
layers = (
{
layerId = "44398CD6-F961-4ECB-B01A-EEBF1DAB2450";
paths = (
{
closed = 1;
nodes = (
"602 521 OFFCURVE",
"599 546 OFFCURVE",
"587 560 CURVE",
"596 576 OFFCURVE",
"593 602 OFFCURVE",
"582 616 CURVE",
"587 635 OFFCURVE",
"585 657 OFFCURVE",
"569 666 CURVE",
"595 739 OFFCURVE",
"482 749 OFFCURVE",
"501 678 CURVE",
"489 659 OFFCURVE",
"493 633 OFFCURVE",
"509 624 CURVE",
"496 614 OFFCURVE",
"501 583 OFFCURVE",
"513 575 CURVE",
"508 565 OFFCURVE",
"510 539 OFFCURVE",
"517 530 CURVE",
"509 523 OFFCURVE",
"514 493 OFFCURVE",
"519 484 CURVE",
"509 470 OFFCURVE",
"505 440 OFFCURVE",
"515 423 CURVE",
"500 411 OFFCURVE",
"497 384 OFFCURVE",
"505 368 CURVE",
"495 358 OFFCURVE",
"480 318 OFFCURVE",
"496 295 CURVE",
"480 286 OFFCURVE",
"468 248 OFFCURVE",
"473 228 CURVE",
"453 218 OFFCURVE",
"434 189 OFFCURVE",
"432 162 CURVE",
"411 153 OFFCURVE",
"396 135 OFFCURVE",
"392 118 CURVE",
"377 120 OFFCURVE",
"339 106 OFFCURVE",
"333 89 CURVE",
"315 98 OFFCURVE",
"295 98 OFFCURVE",
"280 84 CURVE",
"273 94 OFFCURVE",
"246 110 OFFCURVE",
"234 112 CURVE",
"230 131 OFFCURVE",
"222 150 OFFCURVE",
"206 154 CURVE",
"208 171 OFFCURVE",
"196 194 OFFCURVE",
"179 195 CURVE",
"186 209 OFFCURVE",
"179 228 OFFCURVE",
"170 234 CURVE",
"179 248 OFFCURVE",
"172 267 OFFCURVE",
"166 282 CURVE",
"174 300 OFFCURVE",
"168 323 OFFCURVE",
"154 335 CURVE",
"155 342 OFFCURVE",
"154 350 OFFCURVE",
"151 356 CURVE",
"162 372 OFFCURVE",
"157 397 OFFCURVE",
"151 413 CURVE",
"160 426 OFFCURVE",
"159 470 OFFCURVE",
"151 484 CURVE",
"160 497 OFFCURVE",
"159 535 OFFCURVE",
"151 551 CURVE",
"164 569 OFFCURVE",
"154 585 OFFCURVE",
"150 602 CURVE",
"164 618 OFFCURVE",
"164 642 OFFCURVE",
"150 657 CURVE",
"158 692 OFFCURVE",
"122 721 OFFCURVE",
"90 705 CURVE",
"69 694 OFFCURVE",
"63 672 OFFCURVE",
"73 651 CURVE",
"60 632 OFFCURVE",
"60 611 OFFCURVE",
"73 594 CURVE",
"63 579 OFFCURVE",
"64 535 OFFCURVE",
"76 521 CURVE",
"62 507 OFFCURVE",
"62 475 OFFCURVE",
"73 460 CURVE",
"63 448 OFFCURVE",
"63 420 OFFCURVE",
"75 406 CURVE",
"64 392 OFFCURVE",
"65 365 OFFCURVE",
"75 351 CURVE",
"68 337 OFFCURVE",
"68 304 OFFCURVE",
"80 292 CURVE",
"76 280 OFFCURVE",
"79 266 OFFCURVE",
"88 256 CURVE",
"78 228 OFFCURVE",
"87 202 OFFCURVE",
"100 192 CURVE",
"89 170 OFFCURVE",
"108 120 OFFCURVE",
"133 119 CURVE",
"134 102 OFFCURVE",
"145 90 OFFCURVE",
"160 78 CURVE",
"161 65 OFFCURVE",
"168 49 OFFCURVE",
"190 44 CURVE",
"202 12 OFFCURVE",
"265 -1 OFFCURVE",
"291 14 CURVE",
"308 0 OFFCURVE",
"334 -7 OFFCURVE",
"362 8 CURVE",
"382 6 OFFCURVE",
"397 17 OFFCURVE",
"403 31 CURVE",
"424 36 OFFCURVE",
"444 45 OFFCURVE",
"451 63 CURVE",
"462 65 OFFCURVE",
"472 79 OFFCURVE",
"469 90 CURVE",
"501 102 OFFCURVE",
"521 121 OFFCURVE",
"514 152 CURVE",
"531 156 OFFCURVE",
"544 176 OFFCURVE",
"546 196 CURVE",
"559 212 OFFCURVE",
"567 232 OFFCURVE",
"566 253 CURVE",
"585 266 OFFCURVE",
"593 301 OFFCURVE",
"577 315 CURVE",
"592 325 OFFCURVE",
"591 358 OFFCURVE",
"587 369 CURVE",
"600 379 OFFCURVE",
"606 400 OFFCURVE",
"595 409 CURVE",
"610 420 OFFCURVE",
"610 441 OFFCURVE",
"598 455 CURVE",
"608 461 OFFCURVE",
"607 497 OFFCURVE",
"594 506 CURVE"
);
}
);
width = 662;
}
);
note = U;
unicode = 0055;
},
{
glyphname = V;
layers = (
{
layerId = "44398CD6-F961-4ECB-B01A-EEBF1DAB2450";
paths = (
{
closed = 1;
nodes = (
"471 730 OFFCURVE",
"451 705 OFFCURVE",
"458 671 CURVE",
"435 653 OFFCURVE",
"437 622 OFFCURVE",
"456 599 CURVE",
"430 599 OFFCURVE",
"419 554 OFFCURVE",
"428 526 CURVE",
"410 506 OFFCURVE",
"406 478 OFFCURVE",
"415 451 CURVE",
"399 437 OFFCURVE",
"386 392 OFFCURVE",
"399 376 CURVE",
"384 365 OFFCURVE",
"379 340 OFFCURVE",
"386 324 CURVE",
"374 317 OFFCURVE",
"366 284 OFFCURVE",
"372 270 CURVE",
"357 262 OFFCURVE",
"346 227 OFFCURVE",
"361 205 CURVE",
"343 194 OFFCURVE",
"345 160 OFFCURVE",
"346 145 CURVE",
"345 141 OFFCURVE",
"343 139 OFFCURVE",
"340 137 CURVE",
"340 149 OFFCURVE",
"336 158 OFFCURVE",
"329 167 CURVE",
"331 182 OFFCURVE",
"324 200 OFFCURVE",
"309 209 CURVE",
"307 227 OFFCURVE",
"304 248 OFFCURVE",
"291 259 CURVE",
"293 279 OFFCURVE",
"284 306 OFFCURVE",
"271 317 CURVE",
"276 347 OFFCURVE",
"254 379 OFFCURVE",
"239 383 CURVE",
"239 401 OFFCURVE",
"234 419 OFFCURVE",
"219 429 CURVE",
"223 451 OFFCURVE",
"214 473 OFFCURVE",
"201 479 CURVE",
"207 500 OFFCURVE",
"201 520 OFFCURVE",
"179 534 CURVE",
"190 552 OFFCURVE",
"183 576 OFFCURVE",
"165 588 CURVE",
"170 610 OFFCURVE",
"159 643 OFFCURVE",
"139 656 CURVE",
"136 760 OFFCURVE",
"19 719 OFFCURVE",
"67 651 CURVE",
"54 643 OFFCURVE",
"59 599 OFFCURVE",
"80 588 CURVE",
"75 574 OFFCURVE",
"82 548 OFFCURVE",
"95 536 CURVE",
"90 513 OFFCURVE",
"102 502 OFFCURVE",
"117 491 CURVE",
"113 473 OFFCURVE",
"113 446 OFFCURVE",
"137 437 CURVE",
"137 416 OFFCURVE",
"149 389 OFFCURVE",
"159 381 CURVE",
"158 363 OFFCURVE",
"167 340 OFFCURVE",
"181 334 CURVE",
"177 313 OFFCURVE",
"181 292 OFFCURVE",
"199 279 CURVE",
"194 255 OFFCURVE",
"203 227 OFFCURVE",
"228 212 CURVE",
"226 192 OFFCURVE",
"226 172 OFFCURVE",
"241 156 CURVE",
"239 139 OFFCURVE",
"248 122 OFFCURVE",
"264 115 CURVE",
"256 92 OFFCURVE",
"267 68 OFFCURVE",
"287 57 CURVE",
"293 -29 OFFCURVE",
"399 -2 OFFCURVE",
"393 45 CURVE",
"403 57 OFFCURVE",
"415 85 OFFCURVE",
"413 102 CURVE",
"428 115 OFFCURVE",
"433 130 OFFCURVE",
"428 152 CURVE",
"449 169 OFFCURVE",
"456 229 OFFCURVE",
"443 252 CURVE",
"463 264 OFFCURVE",
"474 304 OFFCURVE",
"458 322 CURVE",
"483 336 OFFCURVE",
"491 379 OFFCURVE",
"481 394 CURVE",
"500 406 OFFCURVE",
"505 444 OFFCURVE",
"494 464 CURVE",
"518 473 OFFCURVE",
"532 527 OFFCURVE",
"511 554 CURVE",
"527 561 OFFCURVE",
"544 618 OFFCURVE",
"525 633 CURVE",
"555 663 OFFCURVE",
"549 713 OFFCURVE",
"509 721 CURVE"
);
}
);
width = 599;
}
);
note = V;
unicode = 0056;
},
{
glyphname = W;
layers = (
{
layerId = "44398CD6-F961-4ECB-B01A-EEBF1DAB2450";
paths = (
{
closed = 1;
nodes = (
"699 619 OFFCURVE",
"699 603 OFFCURVE",
"705 576 CURVE",
"696 563 OFFCURVE",
"685 534 OFFCURVE",
"688 511 CURVE",
"669 496 OFFCURVE",
"661 457 OFFCURVE",
"674 436 CURVE",
"665 418 OFFCURVE",
"652 407 OFFCURVE",
"661 384 CURVE",
"653 373 OFFCURVE",
"651 361 OFFCURVE",
"656 347 CURVE",
"644 333 OFFCURVE",
"633 297 OFFCURVE",
"643 280 CURVE",
"625 268 OFFCURVE",
"617 237 OFFCURVE",
"627 217 CURVE",
"614 196 OFFCURVE",
"611 186 OFFCURVE",
"611 156 CURVE",
"608 186 OFFCURVE",
"597 210 OFFCURVE",
"585 216 CURVE",
"588 226 OFFCURVE",
"579 280 OFFCURVE",
"564 292 CURVE",
"570 306 OFFCURVE",
"562 345 OFFCURVE",
"542 355 CURVE",
"546 388 OFFCURVE",
"535 419 OFFCURVE",
"521 425 CURVE",
"527 443 OFFCURVE",
"520 474 OFFCURVE",
"507 488 CURVE",
"512 509 OFFCURVE",
"507 530 OFFCURVE",
"492 543 CURVE",
"495 556 OFFCURVE",
"485 587 OFFCURVE",
"468 589 CURVE",
"474 603 OFFCURVE",
"463 625 OFFCURVE",
"454 630 CURVE",
"471 681 OFFCURVE",
"391 709 OFFCURVE",
"374 657 CURVE",
"359 640 OFFCURVE",
"357 621 OFFCURVE",
"360 598 CURVE",
"346 588 OFFCURVE",
"341 561 OFFCURVE",
"346 543 CURVE",
"334 537 OFFCURVE",
"324 496 OFFCURVE",
"330 476 CURVE",
"315 469 OFFCURVE",
"316 440 OFFCURVE",
"318 426 CURVE",
"308 422 OFFCURVE",
"297 388 OFFCURVE",
"303 371 CURVE",
"295 362 OFFCURVE",
"287 342 OFFCURVE",
"287 314 CURVE",
"277 303 OFFCURVE",
"267 272 OFFCURVE",
"270 259 CURVE",
"259 257 OFFCURVE",
"251 238 OFFCURVE",
"252 214 CURVE",
"245 212 OFFCURVE",
"242 192 OFFCURVE",
"242 172 CURVE",
"242 192 OFFCURVE",
"234 221 OFFCURVE",
"228 224 CURVE",
"239 241 OFFCURVE",
"233 260 OFFCURVE",
"223 269 CURVE",
"224 281 OFFCURVE",
"224 298 OFFCURVE",
"214 309 CURVE",
"218 322 OFFCURVE",
"210 345 OFFCURVE",
"202 351 CURVE",
"206 372 OFFCURVE",
"196 391 OFFCURVE",
"184 404 CURVE",
"187 422 OFFCURVE",
"182 449 OFFCURVE",
"166 457 CURVE",
"166 466 OFFCURVE",
"162 472 OFFCURVE",
"157 479 CURVE",
"166 500 OFFCURVE",
"157 518 OFFCURVE",
"149 524 CURVE",
"151 540 OFFCURVE",
"151 549 OFFCURVE",
"138 562 CURVE",
"143 588 OFFCURVE",
"132 625 OFFCURVE",
"114 640 CURVE",
"118 668 OFFCURVE",
"104 721 OFFCURVE",
"66 715 CURVE",
"37 711 OFFCURVE",
"23 682 OFFCURVE",
"39 647 CURVE",
"29 627 OFFCURVE",
"42 586 OFFCURVE",
"56 581 CURVE",
"47 564 OFFCURVE",
"46 541 OFFCURVE",
"64 528 CURVE",
"58 517 OFFCURVE",
"64 497 OFFCURVE",
"73 489 CURVE",
"66 472 OFFCURVE",
"71 454 OFFCURVE",
"84 441 CURVE",
"81 426 OFFCURVE",
"87 410 OFFCURVE",
"100 401 CURVE",
"99 385 OFFCURVE",
"104 369 OFFCURVE",
"118 361 CURVE",
"111 347 OFFCURVE",
"114 329 OFFCURVE",
"125 321 CURVE",
"117 302 OFFCURVE",
"123 286 OFFCURVE",
"139 281 CURVE",
"128 266 OFFCURVE",
"134 227 OFFCURVE",
"156 215 CURVE",
"149 197 OFFCURVE",
"154 167 OFFCURVE",
"168 152 CURVE",
"160 130 OFFCURVE",
"170 99 OFFCURVE",
"189 90 CURVE",
"172 52 OFFCURVE",
"196 1 OFFCURVE",
"237 1 CURVE",
"261 1 OFFCURVE",
"277 23 OFFCURVE",
"278 43 CURVE",
"302 54 OFFCURVE",
"313 93 OFFCURVE",
"300 116 CURVE",
"322 126 OFFCURVE",
"331 161 OFFCURVE",
"328 184 CURVE",
"343 195 OFFCURVE",
"351 217 OFFCURVE",
"344 245 CURVE",
"361 260 OFFCURVE",
"370 295 OFFCURVE",
"363 317 CURVE",
"379 329 OFFCURVE",
"383 361 OFFCURVE",
"377 377 CURVE",
"385 388 OFFCURVE",
"404 422 OFFCURVE",
"390 441 CURVE",
"408 451 OFFCURVE",
"420 481 OFFCURVE",
"417 506 CURVE",
"417 501 OFFCURVE",
"419 496 OFFCURVE",
"423 492 CURVE",
"415 472 OFFCURVE",
"426 444 OFFCURVE",
"439 440 CURVE",
"426 427 OFFCURVE",
"442 379 OFFCURVE",
"458 371 CURVE",
"455 353 OFFCURVE",
"459 332 OFFCURVE",
"481 325 CURVE",
"470 300 OFFCURVE",
"463 250 OFFCURVE",
"504 228 CURVE",
"495 200 OFFCURVE",
"510 172 OFFCURVE",
"534 159 CURVE",
"527 136 OFFCURVE",
"541 110 OFFCURVE",
"562 102 CURVE",
"551 81 OFFCURVE",
"570 42 OFFCURVE",
"583 35 CURVE",
"586 -10 OFFCURVE",
"652 -15 OFFCURVE",
"653 40 CURVE",
"675 46 OFFCURVE",
"686 81 OFFCURVE",
"675 98 CURVE",
"691 101 OFFCURVE",
"700 129 OFFCURVE",
"691 142 CURVE",
"703 148 OFFCURVE",
"716 178 OFFCURVE",
"708 191 CURVE",
"726 203 OFFCURVE",
"729 219 OFFCURVE",
"720 245 CURVE",
"736 262 OFFCURVE",
"738 282 OFFCURVE",
"730 301 CURVE",
"743 318 OFFCURVE",
"744 337 OFFCURVE",
"741 355 CURVE",
"755 369 OFFCURVE",
"761 398 OFFCURVE",
"752 416 CURVE",
"765 430 OFFCURVE",
"771 457 OFFCURVE",
"761 475 CURVE",
"773 485 OFFCURVE",
"780 514 OFFCURVE",
"775 532 CURVE",
"784 544 OFFCURVE",
"788 556 OFFCURVE",
"788 580 CURVE",
"800 592 OFFCURVE",
"807 623 OFFCURVE",
"796 641 CURVE",
"803 670 OFFCURVE",
"810 711 OFFCURVE",
"765 715 CURVE",
"728 719 OFFCURVE",
"705 665 OFFCURVE",
"711 638 CURVE"
);
}
);
width = 854;
}
);
note = W;
unicode = 0057;
},
{
glyphname = X;
layers = (
{
layerId = "44398CD6-F961-4ECB-B01A-EEBF1DAB2450";
paths = (
{
closed = 1;
nodes = (
"462 163 OFFCURVE",
"445 189 OFFCURVE",
"427 187 CURVE",
"437 201 OFFCURVE",
"420 243 OFFCURVE",
"398 240 CURVE",
"404 260 OFFCURVE",
"375 306 OFFCURVE",
"357 303 CURVE",
"367 321 OFFCURVE",
"344 375 OFFCURVE",
"322 377 CURVE",
"344 378 OFFCURVE",
"357 407 OFFCURVE",
"351 421 CURVE",
"375 433 OFFCURVE",
"381 455 OFFCURVE",
"381 475 CURVE",
"396 481 OFFCURVE",
"410 508 OFFCURVE",
"413 532 CURVE",
"436 544 OFFCURVE",
"457 580 OFFCURVE",
"455 603 CURVE",
"470 612 OFFCURVE",
"486 637 OFFCURVE",
"487 657 CURVE",
"525 710 OFFCURVE",
"449 756 OFFCURVE",
"427 690 CURVE",
"410 684 OFFCURVE",
"388 667 OFFCURVE",
"389 636 CURVE",
"365 625 OFFCURVE",
"352 602 OFFCURVE",
"353 575 CURVE",
"336 570 OFFCURVE",
"319 540 OFFCURVE",
"319 522 CURVE",
"305 513 OFFCURVE",
"298 500 OFFCURVE",
"297 486 CURVE",
"285 479 OFFCURVE",
"274 455 OFFCURVE",
"271 443 CURVE",
"269 454 OFFCURVE",
"250 502 OFFCURVE",
"229 509 CURVE",
"227 535 OFFCURVE",
"208 572 OFFCURVE",
"185 583 CURVE",
"184 600 OFFCURVE",
"165 635 OFFCURVE",
"148 637 CURVE",
"147 660 OFFCURVE",
"127 693 OFFCURVE",
"106 700 CURVE",
"78 753 OFFCURVE",
"14 693 OFFCURVE",
"63 653 CURVE",
"60 637 OFFCURVE",
"71 604 OFFCURVE",
"93 594 CURVE",
"91 574 OFFCURVE",
"106 550 OFFCURVE",
"116 548 CURVE",
"111 536 OFFCURVE",
"131 508 OFFCURVE",
"142 504 CURVE",
"140 489 OFFCURVE",
"154 471 OFFCURVE",
"166 467 CURVE",
"159 449 OFFCURVE",
"182 423 OFFCURVE",
"199 419 CURVE",
"197 404 OFFCURVE",
"209 388 OFFCURVE",
"224 381 CURVE",
"212 379 OFFCURVE",
"208 353 OFFCURVE",
"211 343 CURVE",
"194 343 OFFCURVE",
"183 314 OFFCURVE",
"183 292 CURVE",
"155 286 OFFCURVE",
"143 267 OFFCURVE",
"140 231 CURVE",
"124 228 OFFCURVE",
"104 205 OFFCURVE",
"107 186 CURVE",
"87 184 OFFCURVE",
"79 162 OFFCURVE",
"75 140 CURVE",
"59 134 OFFCURVE",
"47 110 OFFCURVE",
"50 91 CURVE",
"38 70 OFFCURVE",
"17 53 OFFCURVE",
"30 25 CURVE",
"45 -7 OFFCURVE",
"85 -1 OFFCURVE",
"103 27 CURVE",
"114 33 OFFCURVE",
"121 48 OFFCURVE",
"117 60 CURVE",
"134 69 OFFCURVE",
"146 87 OFFCURVE",
"143 100 CURVE",
"157 106 OFFCURVE",
"171 122 OFFCURVE",
"170 133 CURVE",
"184 142 OFFCURVE",
"193 164 OFFCURVE",
"193 179 CURVE",
"213 186 OFFCURVE",
"229 205 OFFCURVE",
"224 226 CURVE",
"239 236 OFFCURVE",
"247 242 OFFCURVE",
"248 264 CURVE",
"268 267 OFFCURVE",
"275 301 OFFCURVE",
"278 314 CURVE",
"279 299 OFFCURVE",
"286 272 OFFCURVE",
"303 261 CURVE",
"301 228 OFFCURVE",
"317 206 OFFCURVE",
"333 196 CURVE",
"331 183 OFFCURVE",
"354 138 OFFCURVE",
"371 133 CURVE",
"371 113 OFFCURVE",
"384 69 OFFCURVE",
"412 62 CURVE",
"440 -44 OFFCURVE",
"542 8 OFFCURVE",
"503 61 CURVE",
"508 79 OFFCURVE",
"494 107 OFFCURVE",
"481 106 CURVE",
"486 117 OFFCURVE",
"469 144 OFFCURVE",
"457 144 CURVE"
);
}
);
width = 567;
}
);
note = X;
unicode = 0058;
},
{
glyphname = Y;
layers = (
{
layerId = "44398CD6-F961-4ECB-B01A-EEBF1DAB2450";
paths = (
{
closed = 1;
nodes = (
"469 713 OFFCURVE",
"448 693 OFFCURVE",
"451 668 CURVE",
"429 663 OFFCURVE",
"413 632 OFFCURVE",
"414 611 CURVE",
"398 612 OFFCURVE",
"387 591 OFFCURVE",
"384 575 CURVE",
"369 569 OFFCURVE",
"362 558 OFFCURVE",
"362 541 CURVE",
"350 539 OFFCURVE",
"337 516 OFFCURVE",
"338 501 CURVE",
"328 501 OFFCURVE",
"312 485 OFFCURVE",
"315 472 CURVE",
"302 472 OFFCURVE",
"290 456 OFFCURVE",
"288 437 CURVE",
"278 436 OFFCURVE",
"266 427 OFFCURVE",
"263 414 CURVE",
"259 436 OFFCURVE",
"243 468 OFFCURVE",
"224 463 CURVE",
"228 489 OFFCURVE",
"206 518 OFFCURVE",
"188 523 CURVE",
"192 549 OFFCURVE",
"177 565 OFFCURVE",
"154 570 CURVE",
"155 590 OFFCURVE",
"142 615 OFFCURVE",
"119 615 CURVE",
"127 643 OFFCURVE",
"97 673 OFFCURVE",
"72 666 CURVE",
"69 705 OFFCURVE",
"37 724 OFFCURVE",
"15 724 CURVE",
"-27 724 OFFCURVE",
"-32 660 OFFCURVE",
"6 633 CURVE",
"7 615 OFFCURVE",
"15 602 OFFCURVE",
"34 595 CURVE",
"39 572 OFFCURVE",
"47 563 OFFCURVE",
"62 557 CURVE",
"61 542 OFFCURVE",
"74 524 OFFCURVE",
"92 519 CURVE",
"93 504 OFFCURVE",
"104 489 OFFCURVE",
"125 486 CURVE",
"124 469 OFFCURVE",
"135 452 OFFCURVE",
"150 445 CURVE",
"147 430 OFFCURVE",
"157 415 OFFCURVE",
"173 412 CURVE",
"172 395 OFFCURVE",
"182 388 OFFCURVE",
"193 380 CURVE",
"193 370 OFFCURVE",
"204 346 OFFCURVE",
"218 342 CURVE",
"203 332 OFFCURVE",
"204 289 OFFCURVE",
"219 278 CURVE",
"207 269 OFFCURVE",
"211 227 OFFCURVE",
"223 219 CURVE",
"211 200 OFFCURVE",
"210 173 OFFCURVE",
"230 151 CURVE",
"226 135 OFFCURVE",
"221 114 OFFCURVE",
"231 99 CURVE",
"218 88 OFFCURVE",
"224 49 OFFCURVE",
"237 44 CURVE",
"251 -46 OFFCURVE",
"338 23 OFFCURVE",
"308 74 CURVE",
"323 89 OFFCURVE",
"323 114 OFFCURVE",
"308 130 CURVE",
"314 152 OFFCURVE",
"320 176 OFFCURVE",
"298 192 CURVE",
"310 207 OFFCURVE",
"314 226 OFFCURVE",
"302 246 CURVE",
"309 262 OFFCURVE",
"313 278 OFFCURVE",
"302 291 CURVE",
"309 300 OFFCURVE",
"310 329 OFFCURVE",
"303 339 CURVE",
"311 346 OFFCURVE",
"327 348 OFFCURVE",
"329 369 CURVE",
"345 370 OFFCURVE",
"361 397 OFFCURVE",
"358 416 CURVE",
"378 418 OFFCURVE",
"386 432 OFFCURVE",
"390 451 CURVE",
"404 458 OFFCURVE",
"413 474 OFFCURVE",
"412 489 CURVE",
"420 495 OFFCURVE",
"437 509 OFFCURVE",
"437 527 CURVE",
"459 534 OFFCURVE",
"476 558 OFFCURVE",
"476 578 CURVE",
"495 579 OFFCURVE",
"515 598 OFFCURVE",
"510 623 CURVE",
"531 629 OFFCURVE",
"549 651 OFFCURVE",
"541 673 CURVE",
"587 715 OFFCURVE",
"514 758 OFFCURVE",
"483 710 CURVE"
);
}
);
width = 581;
}
);
note = Y;
unicode = 0059;
},
{
glyphname = Z;
layers = (
{
layerId = "44398CD6-F961-4ECB-B01A-EEBF1DAB2450";
paths = (
{
closed = 1;
nodes = (
"565 713 OFFCURVE",
"552 718 OFFCURVE",
"539 705 CURVE",
"528 708 OFFCURVE",
"512 708 OFFCURVE",
"503 703 CURVE",
"499 711 OFFCURVE",
"472 707 OFFCURVE",
"466 700 CURVE",
"453 709 OFFCURVE",
"421 709 OFFCURVE",
"406 696 CURVE",
"395 709 OFFCURVE",
"355 708 OFFCURVE",
"347 693 CURVE",
"325 705 OFFCURVE",
"281 711 OFFCURVE",
"264 697 CURVE",
"250 703 OFFCURVE",
"212 699 OFFCURVE",
"201 691 CURVE",
"173 702 OFFCURVE",
"153 698 OFFCURVE",
"135 690 CURVE",
"115 697 OFFCURVE",
"69 706 OFFCURVE",
"66 662 CURVE",
"63 627 OFFCURVE",
"114 611 OFFCURVE",
"148 630 CURVE",
"159 617 OFFCURVE",
"202 610 OFFCURVE",
"222 628 CURVE",
"236 618 OFFCURVE",
"270 612 OFFCURVE",
"279 622 CURVE",
"289 615 OFFCURVE",
"318 614 OFFCURVE",
"325 624 CURVE",
"338 613 OFFCURVE",
"372 613 OFFCURVE",
"383 623 CURVE",
"398 612 OFFCURVE",
"427 613 OFFCURVE",
"437 629 CURVE",
"449 621 OFFCURVE",
"471 618 OFFCURVE",
"481 626 CURVE",
"488 621 OFFCURVE",
"511 621 OFFCURVE",
"517 626 CURVE",
"508 619 OFFCURVE",
"466 591 OFFCURVE",
"468 570 CURVE",
"451 567 OFFCURVE",
"417 541 OFFCURVE",
"421 514 CURVE",
"395 521 OFFCURVE",
"368 471 OFFCURVE",
"369 453 CURVE",
"341 451 OFFCURVE",
"310 398 OFFCURVE",
"310 377 CURVE",
"297 377 OFFCURVE",
"278 354 OFFCURVE",
"272 340 CURVE",
"257 343 OFFCURVE",
"228 312 OFFCURVE",
"233 297 CURVE",
"219 294 OFFCURVE",
"201 274 OFFCURVE",
"196 259 CURVE",
"176 255 OFFCURVE",
"152 226 OFFCURVE",
"154 205 CURVE",
"132 192 OFFCURVE",
"110 170 OFFCURVE",
"108 143 CURVE",
"89 134 OFFCURVE",
"64 105 OFFCURVE",
"66 82 CURVE",
"53 72 OFFCURVE",
"41 54 OFFCURVE",
"53 32 CURVE",
"60 8 OFFCURVE",
"83 8 OFFCURVE",
"103 13 CURVE",
"114 7 OFFCURVE",
"135 5 OFFCURVE",
"151 10 CURVE",
"162 3 OFFCURVE",
"184 3 OFFCURVE",
"190 12 CURVE",
"199 5 OFFCURVE",
"224 10 OFFCURVE",
"233 15 CURVE",
"242 5 OFFCURVE",
"259 8 OFFCURVE",
"269 17 CURVE",
"284 11 OFFCURVE",
"299 11 OFFCURVE",
"308 19 CURVE",
"318 11 OFFCURVE",
"331 2 OFFCURVE",
"349 18 CURVE",
"370 10 OFFCURVE",
"398 8 OFFCURVE",
"412 26 CURVE",
"429 12 OFFCURVE",
"466 17 OFFCURVE",
"484 30 CURVE",
"491 29 OFFCURVE",
"500 29 OFFCURVE",
"507 32 CURVE",
"527 13 OFFCURVE",
"575 19 OFFCURVE",
"588 46 CURVE",
"599 76 OFFCURVE",
"570 108 OFFCURVE",
"540 101 CURVE",
"530 109 OFFCURVE",
"495 110 OFFCURVE",
"489 103 CURVE",
"474 110 OFFCURVE",
"456 108 OFFCURVE",
"446 96 CURVE",
"426 110 OFFCURVE",
"386 109 OFFCURVE",
"370 93 CURVE",
"361 103 OFFCURVE",
"341 109 OFFCURVE",
"318 93 CURVE",
"309 98 OFFCURVE",
"285 99 OFFCURVE",
"267 90 CURVE",
"246 96 OFFCURVE",
"224 101 OFFCURVE",
"212 88 CURVE",
"203 98 OFFCURVE",
"178 88 OFFCURVE",
"168 88 CURVE",
"183 99 OFFCURVE",
"194 114 OFFCURVE",
"194 132 CURVE",
"217 148 OFFCURVE",
"236 155 OFFCURVE",
"231 189 CURVE",
"252 190 OFFCURVE",
"273 218 OFFCURVE",
"269 231 CURVE",
"287 232 OFFCURVE",
"295 246 OFFCURVE",
"303 258 CURVE",
"321 265 OFFCURVE",
"335 288 OFFCURVE",
"339 297 CURVE",
"364 306 OFFCURVE",
"383 328 OFFCURVE",
"383 352 CURVE",
"403 354 OFFCURVE",
"435 384 OFFCURVE",
"433 409 CURVE",
"450 410 OFFCURVE",
"463 429 OFFCURVE",
"460 440 CURVE",
"482 442 OFFCURVE",
"509 478 OFFCURVE",
"509 499 CURVE",
"545 499 OFFCURVE",
"553 538 OFFCURVE",
"557 563 CURVE",
"584 575 OFFCURVE",
"609 593 OFFCURVE",
"606 621 CURVE",
"624 621 OFFCURVE",
"640 639 OFFCURVE",
"642 655 CURVE",
"680 698 OFFCURVE",
"613 742 OFFCURVE",
"581 705 CURVE"
);
}
);
width = 682;
}
);
note = Z;
unicode = 005A;
},
{
glyphname = a;
layers = (
{
layerId = "44398CD6-F961-4ECB-B01A-EEBF1DAB2450";
paths = (
{
closed = 1;
nodes = (
"80 351 OFFCURVE",
"124 382 OFFCURVE",
"140 411 CURVE",
"153 410 OFFCURVE",
"164 415 OFFCURVE",
"175 429 CURVE",
"187 429 OFFCURVE",
"196 432 OFFCURVE",
"206 439 CURVE",
"213 438 OFFCURVE",
"221 441 OFFCURVE",
"228 443 CURVE",
"244 433 OFFCURVE",
"263 436 OFFCURVE",
"277 446 CURVE",
"281 436 OFFCURVE",
"290 427 OFFCURVE",
"299 423 CURVE",
"302 408 OFFCURVE",
"320 383 OFFCURVE",
"334 379 CURVE",
"330 375 OFFCURVE",
"326 362 OFFCURVE",
"327 352 CURVE",
"314 359 OFFCURVE",
"295 353 OFFCURVE",
"282 337 CURVE",
"278 341 OFFCURVE",
"256 343 OFFCURVE",
"252 339 CURVE",
"229 349 OFFCURVE",
"201 338 OFFCURVE",
"192 332 CURVE",
"170 334 OFFCURVE",
"130 330 OFFCURVE",
"121 305 CURVE",
"99 301 OFFCURVE",
"75 296 OFFCURVE",
"59 262 CURVE",
"37 244 OFFCURVE",
"25 222 OFFCURVE",
"35 187 CURVE",
"28 173 OFFCURVE",
"28 147 OFFCURVE",
"39 139 CURVE",
"33 98 OFFCURVE",
"48 72 OFFCURVE",
"76 56 CURVE",
"92 29 OFFCURVE",
"117 17 OFFCURVE",
"151 22 CURVE",
"168 10 OFFCURVE",
"188 16 OFFCURVE",
"200 23 CURVE",
"237 14 OFFCURVE",
"260 20 OFFCURVE",
"280 26 CURVE",
"300 23 OFFCURVE",
"317 28 OFFCURVE",
"334 36 CURVE",
"351 19 OFFCURVE",
"386 29 OFFCURVE",
"394 57 CURVE",
"409 69 OFFCURVE",
"415 88 OFFCURVE",
"409 105 CURVE",
"422 121 OFFCURVE",
"421 148 OFFCURVE",
"415 166 CURVE",
"429 181 OFFCURVE",
"426 197 OFFCURVE",
"423 216 CURVE",
"427 232 OFFCURVE",
"427 232 OFFCURVE",
"419 250 CURVE",
"425 274 OFFCURVE",
"417 322 OFFCURVE",
"404 339 CURVE",
"414 356 OFFCURVE",
"419 411 OFFCURVE",
"387 442 CURVE",
"384 473 OFFCURVE",
"371 487 OFFCURVE",
"348 495 CURVE",
"343 534 OFFCURVE",
"279 551 OFFCURVE",
"247 530 CURVE",
"239 541 OFFCURVE",
"211 541 OFFCURVE",
"198 526 CURVE",
"175 533 OFFCURVE",
"130 516 OFFCURVE",
"119 498 CURVE",
"103 503 OFFCURVE",
"65 474 OFFCURVE",
"59 443 CURVE",
"45 429 OFFCURVE",
"43 405 OFFCURVE",
"55 388 CURVE"
);
},
{
closed = 1;
nodes = (
"120 179 OFFCURVE",
"122 199 OFFCURVE",
"114 208 CURVE",
"128 205 OFFCURVE",
"142 217 OFFCURVE",
"147 231 CURVE",
"167 231 OFFCURVE",
"181 235 OFFCURVE",
"189 255 CURVE",
"201 249 OFFCURVE",
"211 259 OFFCURVE",
"216 264 CURVE",
"231 256 OFFCURVE",
"250 263 OFFCURVE",
"258 271 CURVE",
"272 263 OFFCURVE",
"292 265 OFFCURVE",
"303 275 CURVE",
"311 265 OFFCURVE",
"326 268 OFFCURVE",
"336 273 CURVE",
"329 255 OFFCURVE",
"330 234 OFFCURVE",
"343 218 CURVE",
"328 204 OFFCURVE",
"331 167 OFFCURVE",
"343 151 CURVE",
"338 145 OFFCURVE",
"334 140 OFFCURVE",
"332 133 CURVE",
"316 131 OFFCURVE",
"306 124 OFFCURVE",
"300 112 CURVE",
"282 112 OFFCURVE",
"252 106 OFFCURVE",
"240 94 CURVE",
"229 106 OFFCURVE",
"207 109 OFFCURVE",
"187 101 CURVE",
"177 114 OFFCURVE",
"150 113 OFFCURVE",
"138 108 CURVE",
"137 116 OFFCURVE",
"122 122 OFFCURVE",
"118 122 CURVE",
"126 145 OFFCURVE",
"123 153 OFFCURVE",
"110 165 CURVE"
);
}
);
width = 465;
}
);
note = a;
unicode = 0061;
},
{
glyphname = ae;
layers = (
{
components = (
{
name = a;
}
);
layerId = "44398CD6-F961-4ECB-B01A-EEBF1DAB2450";
paths = (
{
closed = 1;
nodes = (
"758 136 OFFCURVE",
"712 129 OFFCURVE",
"694 107 CURVE",
"673 109 OFFCURVE",
"657 95 OFFCURVE",
"654 87 CURVE",
"645 91 OFFCURVE",
"635 91 OFFCURVE",
"625 88 CURVE",
"614 96 OFFCURVE",
"601 98 OFFCURVE",
"588 92 CURVE",
"586 101 OFFCURVE",
"559 105 OFFCURVE",
"551 97 CURVE",
"549 107 OFFCURVE",
"537 121 OFFCURVE",
"522 121 CURVE",
"519 141 OFFCURVE",
"507 156 OFFCURVE",
"498 161 CURVE",
"501 174 OFFCURVE",
"496 209 OFFCURVE",
"486 218 CURVE",
"494 230 OFFCURVE",
"494 266 OFFCURVE",
"493 275 CURVE",
"502 270 OFFCURVE",
"539 270 OFFCURVE",
"551 281 CURVE",
"571 273 OFFCURVE",
"590 274 OFFCURVE",
"607 282 CURVE",
"627 273 OFFCURVE",
"652 277 OFFCURVE",
"662 284 CURVE",
"674 269 OFFCURVE",
"722 275 OFFCURVE",
"738 286 CURVE",
"765 275 OFFCURVE",
"795 284 OFFCURVE",
"809 309 CURVE",
"858 328 OFFCURVE",
"831 398 OFFCURVE",
"809 407 CURVE",
"821 469 OFFCURVE",
"761 504 OFFCURVE",
"736 498 CURVE",
"731 527 OFFCURVE",
"705 532 OFFCURVE",
"686 534 CURVE",
"688 543 OFFCURVE",
"668 549 OFFCURVE",
"652 547 CURVE",
"642 550 OFFCURVE",
"625 549 OFFCURVE",
"616 540 CURVE",
"604 537 OFFCURVE",
"593 532 OFFCURVE",
"587 522 CURVE",
"578 526 OFFCURVE",
"548 518 OFFCURVE",
"546 504 CURVE",
"528 505 OFFCURVE",
"495 483 OFFCURVE",
"495 461 CURVE",
"460 452 OFFCURVE",
"456 427 OFFCURVE",
"459 405 CURVE",
"440 403 OFFCURVE",
"424 367 OFFCURVE",
"427 357 CURVE",
"418 350 OFFCURVE",
"400 313 OFFCURVE",
"414 287 CURVE",
"403 268 OFFCURVE",
"395 229 OFFCURVE",
"409 203 CURVE",
"401 183 OFFCURVE",
"411 154 OFFCURVE",
"417 152 CURVE",
"416 147 OFFCURVE",
"421 128 OFFCURVE",
"422 123 CURVE",
"425 109 OFFCURVE",
"433 99 OFFCURVE",
"447 94 CURVE",
"450 79 OFFCURVE",
"477 50 OFFCURVE",
"494 50 CURVE",
"507 27 OFFCURVE",
"528 19 OFFCURVE",
"557 21 CURVE",
"567 12 OFFCURVE",
"581 9 OFFCURVE",
"594 14 CURVE",
"607 4 OFFCURVE",
"640 5 OFFCURVE",
"652 16 CURVE",
"671 10 OFFCURVE",
"694 15 OFFCURVE",
"706 32 CURVE",
"721 31 OFFCURVE",
"744 47 OFFCURVE",
"757 55 CURVE",
"776 66 OFFCURVE",
"782 88 OFFCURVE",
"774 107 CURVE"
);
},
{
closed = 1;
nodes = (
"628 457 OFFCURVE",
"647 461 OFFCURVE",
"653 467 CURVE",
"655 456 OFFCURVE",
"682 443 OFFCURVE",
"687 447 CURVE",
"698 432 OFFCURVE",
"710 405 OFFCURVE",
"733 407 CURVE",
"725 395 OFFCURVE",
"740 362 OFFCURVE",
"752 357 CURVE",
"740 363 OFFCURVE",
"689 367 OFFCURVE",
"674 348 CURVE",
"647 374 OFFCURVE",
"608 361 OFFCURVE",
"588 348 CURVE",
"578 356 OFFCURVE",
"534 365 OFFCURVE",
"514 348 CURVE",
"513 348 OFFCURVE",
"512 348 OFFCURVE",
"510 349 CURVE",
"522 361 OFFCURVE",
"538 384 OFFCURVE",
"541 402 CURVE",
"563 409 OFFCURVE",
"575 427 OFFCURVE",
"585 446 CURVE",
"601 443 OFFCURVE",
"616 453 OFFCURVE",
"620 458 CURVE"
);
}
);
width = 907;
}
);
unicode = 00E6;
},
{
glyphname = b;
layers = (
{
layerId = "44398CD6-F961-4ECB-B01A-EEBF1DAB2450";
paths = (
{
closed = 1;
nodes = (
"222 30 OFFCURVE",
"261 37 OFFCURVE",
"274 56 CURVE",
"302 44 OFFCURVE",
"353 64 OFFCURVE",
"365 89 CURVE",
"379 93 OFFCURVE",
"387 98 OFFCURVE",
"401 114 CURVE",
"412 126 OFFCURVE",
"418 134 OFFCURVE",
"421 153 CURVE",
"446 165 OFFCURVE",
"454 210 OFFCURVE",
"440 228 CURVE",
"448 243 OFFCURVE",
"448 294 OFFCURVE",
"444 310 CURVE",
"449 325 OFFCURVE",
"446 360 OFFCURVE",
"436 374 CURVE",
"445 397 OFFCURVE",
"421 433 OFFCURVE",
"404 436 CURVE",
"394 459 OFFCURVE",
"367 480 OFFCURVE",
"345 486 CURVE",
"339 508 OFFCURVE",
"287 525 OFFCURVE",
"266 512 CURVE",
"255 521 OFFCURVE",
"217 525 OFFCURVE",
"203 517 CURVE",
"185 525 OFFCURVE",
"160 517 OFFCURVE",
"144 508 CURVE",
"153 529 OFFCURVE",
"146 564 OFFCURVE",
"137 575 CURVE",
"149 592 OFFCURVE",
"142 596 OFFCURVE",
"135 613 CURVE",
"149 630 OFFCURVE",
"141 670 OFFCURVE",
"130 683 CURVE",
"153 741 OFFCURVE",
"58 765 OFFCURVE",
"55 703 CURVE",
"48 693 OFFCURVE",
"49 656 OFFCURVE",
"55 640 CURVE",
"44 623 OFFCURVE",
"46 586 OFFCURVE",
"57 575 CURVE",
"42 560 OFFCURVE",
"47 521 OFFCURVE",
"61 508 CURVE",
"55 500 OFFCURVE",
"53 486 OFFCURVE",
"57 476 CURVE",
"35 452 OFFCURVE",
"49 426 OFFCURVE",
"61 404 CURVE",
"51 395 OFFCURVE",
"47 379 OFFCURVE",
"58 358 CURVE",
"47 346 OFFCURVE",
"46 316 OFFCURVE",
"60 295 CURVE",
"46 281 OFFCURVE",
"44 256 OFFCURVE",
"55 240 CURVE",
"51 226 OFFCURVE",
"53 201 OFFCURVE",
"58 190 CURVE",
"46 173 OFFCURVE",
"46 154 OFFCURVE",
"57 139 CURVE",
"47 120 OFFCURVE",
"53 100 OFFCURVE",
"61 83 CURVE",
"55 65 OFFCURVE",
"51 42 OFFCURVE",
"61 23 CURVE",
"81 -16 OFFCURVE",
"141 -2 OFFCURVE",
"147 37 CURVE",
"155 23 OFFCURVE",
"195 26 OFFCURVE",
"203 39 CURVE"
);
},
{
closed = 1;
nodes = (
"146 123 OFFCURVE",
"141 123 OFFCURVE",
"139 126 CURVE",
"142 139 OFFCURVE",
"142 151 OFFCURVE",
"137 162 CURVE",
"147 178 OFFCURVE",
"142 198 OFFCURVE",
"137 215 CURVE",
"149 228 OFFCURVE",
"153 292 OFFCURVE",
"144 308 CURVE",
"151 320 OFFCURVE",
"151 336 OFFCURVE",
"144 348 CURVE",
"155 357 OFFCURVE",
"161 392 OFFCURVE",
"151 413 CURVE",
"172 409 OFFCURVE",
"191 411 OFFCURVE",
"200 427 CURVE",
"216 420 OFFCURVE",
"236 420 OFFCURVE",
"245 433 CURVE",
"255 426 OFFCURVE",
"275 420 OFFCURVE",
"284 423 CURVE",
"291 407 OFFCURVE",
"304 399 OFFCURVE",
"321 399 CURVE",
"326 384 OFFCURVE",
"336 366 OFFCURVE",
"351 364 CURVE",
"346 347 OFFCURVE",
"352 310 OFFCURVE",
"366 296 CURVE",
"358 285 OFFCURVE",
"350 242 OFFCURVE",
"358 220 CURVE",
"344 206 OFFCURVE",
"336 182 OFFCURVE",
"339 168 CURVE",
"322 167 OFFCURVE",
"292 151 OFFCURVE",
"284 135 CURVE",
"264 148 OFFCURVE",
"231 131 OFFCURVE",
"225 121 CURVE",
"209 130 OFFCURVE",
"169 125 OFFCURVE",
"153 109 CURVE"
);
}
);
width = 491;
}
);
note = b;
unicode = 0062;
},
{
glyphname = c;
layers = (
{
layerId = "44398CD6-F961-4ECB-B01A-EEBF1DAB2450";
paths = (
{
closed = 1;
nodes = (
"368 20 OFFCURVE",
"421 46 OFFCURVE",
"403 50 CURVE",
"435 43 OFFCURVE",
"472 63 OFFCURVE",
"476 96 CURVE",
"481 134 OFFCURVE",
"427 166 OFFCURVE",
"394 129 CURVE",
"378 133 OFFCURVE",
"354 128 OFFCURVE",
"344 110 CURVE",
"329 112 OFFCURVE",
"303 94 OFFCURVE",
"298 85 CURVE",
"287 94 OFFCURVE",
"278 97 OFFCURVE",
"260 94 CURVE",
"247 114 OFFCURVE",
"215 124 OFFCURVE",
"195 107 CURVE",
"195 124 OFFCURVE",
"172 147 OFFCURVE",
"137 158 CURVE",
"137 173 OFFCURVE",
"128 192 OFFCURVE",
"119 198 CURVE",
"122 212 OFFCURVE",
"117 241 OFFCURVE",
"108 252 CURVE",
"121 280 OFFCURVE",
"127 309 OFFCURVE",
"117 335 CURVE",
"132 351 OFFCURVE",
"152 364 OFFCURVE",
"147 393 CURVE",
"173 390 OFFCURVE",
"189 417 OFFCURVE",
"197 428 CURVE",
"212 428 OFFCURVE",
"226 434 OFFCURVE",
"235 448 CURVE",
"251 438 OFFCURVE",
"267 440 OFFCURVE",
"276 450 CURVE",
"284 448 OFFCURVE",
"299 448 OFFCURVE",
"306 450 CURVE",
"315 438 OFFCURVE",
"333 427 OFFCURVE",
"350 424 CURVE",
"359 385 OFFCURVE",
"399 359 OFFCURVE",
"427 379 CURVE",
"446 393 OFFCURVE",
"445 418 OFFCURVE",
"435 438 CURVE",
"431 448 OFFCURVE",
"424 458 OFFCURVE",
"411 464 CURVE",
"413 476 OFFCURVE",
"394 519 OFFCURVE",
"357 519 CURVE",
"354 530 OFFCURVE",
"339 538 OFFCURVE",
"329 536 CURVE",
"322 546 OFFCURVE",
"289 551 OFFCURVE",
"276 540 CURVE",
"266 545 OFFCURVE",
"246 551 OFFCURVE",
"230 539 CURVE",
"216 540 OFFCURVE",
"190 535 OFFCURVE",
"177 518 CURVE",
"160 521 OFFCURVE",
"147 506 OFFCURVE",
"137 491 CURVE",
"113 493 OFFCURVE",
"90 470 OFFCURVE",
"85 453 CURVE",
"72 449 OFFCURVE",
"46 423 OFFCURVE",
"56 393 CURVE",
"36 382 OFFCURVE",
"23 350 OFFCURVE",
"30 323 CURVE",
"15 301 OFFCURVE",
"6 254 OFFCURVE",
"33 199 CURVE",
"30 188 OFFCURVE",
"33 163 OFFCURVE",
"44 154 CURVE",
"49 127 OFFCURVE",
"59 95 OFFCURVE",
"85 84 CURVE",
"89 59 OFFCURVE",
"120 39 OFFCURVE",
"144 41 CURVE",
"154 21 OFFCURVE",
"191 4 OFFCURVE",
"218 17 CURVE",
"230 6 OFFCURVE",
"249 1 OFFCURVE",
"265 7 CURVE",
"281 -6 OFFCURVE",
"329 -2 OFFCURVE",
"348 22 CURVE"
);
}
);
width = 508;
}
);
note = c;
unicode = 0063;
},
{
glyphname = d;
layers = (
{
layerId = "44398CD6-F961-4ECB-B01A-EEBF1DAB2450";
paths = (
{
closed = 1;
nodes = (
"343 50 OFFCURVE",
"344 41 OFFCURVE",
"350 35 CURVE",
"355 1 OFFCURVE",
"390 -12 OFFCURVE",
"414 12 CURVE",
"436 35 OFFCURVE",
"417 62 OFFCURVE",
"414 87 CURVE",
"431 96 OFFCURVE",
"436 148 OFFCURVE",
"420 169 CURVE",
"432 186 OFFCURVE",
"436 225 OFFCURVE",
"419 241 CURVE",
"428 256 OFFCURVE",
"423 285 OFFCURVE",
"414 300 CURVE",
"419 310 OFFCURVE",
"434 358 OFFCURVE",
"414 384 CURVE",
"426 394 OFFCURVE",
"430 423 OFFCURVE",
"419 440 CURVE",
"426 454 OFFCURVE",
"425 471 OFFCURVE",
"416 484 CURVE",
"420 494 OFFCURVE",
"420 505 OFFCURVE",
"416 514 CURVE",
"427 529 OFFCURVE",
"422 543 OFFCURVE",
"412 554 CURVE",
"422 568 OFFCURVE",
"421 587 OFFCURVE",
"414 599 CURVE",
"420 610 OFFCURVE",
"421 624 OFFCURVE",
"416 635 CURVE",
"427 653 OFFCURVE",
"424 677 OFFCURVE",
"408 691 CURVE",
"415 722 OFFCURVE",
"383 749 OFFCURVE",
"353 738 CURVE",
"324 727 OFFCURVE",
"318 685 OFFCURVE",
"331 660 CURVE",
"323 647 OFFCURVE",
"323 632 OFFCURVE",
"330 619 CURVE",
"321 601 OFFCURVE",
"329 592 OFFCURVE",
"333 575 CURVE",
"329 562 OFFCURVE",
"334 552 OFFCURVE",
"339 542 CURVE",
"331 529 OFFCURVE",
"330 517 OFFCURVE",
"332 502 CURVE",
"326 513 OFFCURVE",
"299 519 OFFCURVE",
"285 512 CURVE",
"265 521 OFFCURVE",
"245 524 OFFCURVE",
"223 515 CURVE",
"211 520 OFFCURVE",
"171 526 OFFCURVE",
"145 491 CURVE",
"115 494 OFFCURVE",
"87 456 OFFCURVE",
"89 436 CURVE",
"77 432 OFFCURVE",
"59 413 OFFCURVE",
"61 390 CURVE",
"50 383 OFFCURVE",
"40 365 OFFCURVE",
"48 354 CURVE",
"33 341 OFFCURVE",
"30 310 OFFCURVE",
"39 294 CURVE",
"26 267 OFFCURVE",
"33 187 OFFCURVE",
"50 173 CURVE",
"43 155 OFFCURVE",
"46 111 OFFCURVE",
"76 95 CURVE",
"78 67 OFFCURVE",
"102 54 OFFCURVE",
"115 56 CURVE",
"118 42 OFFCURVE",
"140 31 OFFCURVE",
"163 34 CURVE",
"176 19 OFFCURVE",
"207 12 OFFCURVE",
"228 18 CURVE",
"242 9 OFFCURVE",
"280 26 OFFCURVE",
"288 39 CURVE",
"308 35 OFFCURVE",
"337 44 OFFCURVE",
"341 59 CURVE"
);
},
{
closed = 1;
nodes = (
"210 106 OFFCURVE",
"196 120 OFFCURVE",
"175 119 CURVE",
"170 125 OFFCURVE",
"164 130 OFFCURVE",
"156 132 CURVE",
"153 145 OFFCURVE",
"144 155 OFFCURVE",
"131 160 CURVE",
"140 185 OFFCURVE",
"130 206 OFFCURVE",
"122 228 CURVE",
"131 240 OFFCURVE",
"133 300 OFFCURVE",
"127 314 CURVE",
"132 324 OFFCURVE",
"134 336 OFFCURVE",
"131 347 CURVE",
"137 353 OFFCURVE",
"140 360 OFFCURVE",
"141 368 CURVE",
"162 377 OFFCURVE",
"160 392 OFFCURVE",
"168 410 CURVE",
"186 412 OFFCURVE",
"196 425 OFFCURVE",
"207 437 CURVE",
"220 432 OFFCURVE",
"237 437 OFFCURVE",
"250 442 CURVE",
"257 436 OFFCURVE",
"284 429 OFFCURVE",
"293 440 CURVE",
"301 432 OFFCURVE",
"321 424 OFFCURVE",
"329 430 CURVE",
"323 415 OFFCURVE",
"323 384 OFFCURVE",
"334 363 CURVE",
"330 353 OFFCURVE",
"326 303 OFFCURVE",
"336 279 CURVE",
"327 253 OFFCURVE",
"326 220 OFFCURVE",
"336 209 CURVE",
"329 201 OFFCURVE",
"326 165 OFFCURVE",
"331 154 CURVE",
"316 143 OFFCURVE",
"299 137 OFFCURVE",
"301 118 CURVE",
"287 126 OFFCURVE",
"256 114 OFFCURVE",
"254 103 CURVE",
"245 104 OFFCURVE",
"220 108 OFFCURVE",
"216 98 CURVE"
);
}
);
width = 490;
}
);
note = d;
unicode = 0064;
},
{
glyphname = eth;
layers = (
{
layerId = "44398CD6-F961-4ECB-B01A-EEBF1DAB2450";
paths = (
{
closed = 1;
nodes = (
"504 220 OFFCURVE",
"501 227 OFFCURVE",
"496 232 CURVE",
"501 250 OFFCURVE",
"503 273 OFFCURVE",
"490 287 CURVE",
"493 299 OFFCURVE",
"490 311 OFFCURVE",
"483 320 CURVE",
"489 339 OFFCURVE",
"479 374 OFFCURVE",
"466 390 CURVE",
"473 412 OFFCURVE",
"461 438 OFFCURVE",
"446 454 CURVE",
"453 469 OFFCURVE",
"433 508 OFFCURVE",
"417 512 CURVE",
"418 527 OFFCURVE",
"411 552 OFFCURVE",
"397 558 CURVE",
"400 566 OFFCURVE",
"393 589 OFFCURVE",
"386 597 CURVE",
"394 595 OFFCURVE",
"426 599 OFFCURVE",
"431 608 CURVE",
"445 606 OFFCURVE",
"459 612 OFFCURVE",
"468 623 CURVE",
"522 647 OFFCURVE",
"465 728 OFFCURVE",
"424 684 CURVE",
"412 686 OFFCURVE",
"399 681 OFFCURVE",
"391 672 CURVE",
"379 674 OFFCURVE",
"350 668 OFFCURVE",
"340 663 CURVE",
"335 669 OFFCURVE",
"310 754 OFFCURVE",
"266 741 CURVE",
"246 735 OFFCURVE",
"234 715 OFFCURVE",
"240 695 CURVE",
"244 680 OFFCURVE",
"251 653 OFFCURVE",
"262 643 CURVE",
"262 642 OFFCURVE",
"262 642 OFFCURVE",
"262 641 CURVE",
"248 632 OFFCURVE",
"239 626 OFFCURVE",
"224 619 CURVE",
"203 610 OFFCURVE",
"188 593 OFFCURVE",
"197 569 CURVE",
"212 532 OFFCURVE",
"273 546 OFFCURVE",
"295 570 CURVE",
"300 569 OFFCURVE",
"309 571 OFFCURVE",
"314 577 CURVE",
"313 568 OFFCURVE",
"325 539 OFFCURVE",
"330 536 CURVE",
"332 514 OFFCURVE",
"335 501 OFFCURVE",
"346 483 CURVE",
"333 494 OFFCURVE",
"317 498 OFFCURVE",
"314 496 CURVE",
"296 513 OFFCURVE",
"272 511 OFFCURVE",
"254 498 CURVE",
"235 506 OFFCURVE",
"210 502 OFFCURVE",
"201 480 CURVE",
"191 480 OFFCURVE",
"183 477 OFFCURVE",
"176 470 CURVE",
"147 479 OFFCURVE",
"107 445 OFFCURVE",
"115 415 CURVE",
"100 404 OFFCURVE",
"84 380 OFFCURVE",
"81 369 CURVE",
"62 365 OFFCURVE",
"46 316 OFFCURVE",
"61 296 CURVE",
"45 286 OFFCURVE",
"38 266 OFFCURVE",
"46 249 CURVE",
"33 229 OFFCURVE",
"35 197 OFFCURVE",
"49 178 CURVE",
"46 155 OFFCURVE",
"62 128 OFFCURVE",
"89 124 CURVE",
"87 93 OFFCURVE",
"147 40 OFFCURVE",
"174 49 CURVE",
"179 45 OFFCURVE",
"186 43 OFFCURVE",
"193 42 CURVE",
"207 16 OFFCURVE",
"254 5 OFFCURVE",
"277 10 CURVE",
"300 4 OFFCURVE",
"337 12 OFFCURVE",
"354 28 CURVE",
"367 24 OFFCURVE",
"380 28 OFFCURVE",
"390 38 CURVE",
"409 34 OFFCURVE",
"440 51 OFFCURVE",
"453 64 CURVE",
"463 74 OFFCURVE",
"460 83 OFFCURVE",
"464 94 CURVE",
"470 108 OFFCURVE",
"482 112 OFFCURVE",
"478 131 CURVE",
"487 139 OFFCURVE",
"491 152 OFFCURVE",
"490 164 CURVE",
"502 174 OFFCURVE",
"507 197 OFFCURVE",
"505 212 CURVE"
);
},
{
closed = 1;
nodes = (
"245 102 OFFCURVE",
"191 131 OFFCURVE",
"172 126 CURVE",
"170 149 OFFCURVE",
"154 182 OFFCURVE",
"127 190 CURVE",
"124 200 OFFCURVE",
"120 208 OFFCURVE",
"117 218 CURVE",
"127 228 OFFCURVE",
"131 242 OFFCURVE",
"127 255 CURVE",
"138 268 OFFCURVE",
"140 298 OFFCURVE",
"133 313 CURVE",
"143 321 OFFCURVE",
"156 335 OFFCURVE",
"159 348 CURVE",
"174 358 OFFCURVE",
"187 370 OFFCURVE",
"187 387 CURVE",
"201 386 OFFCURVE",
"215 394 OFFCURVE",
"222 406 CURVE",
"233 406 OFFCURVE",
"245 413 OFFCURVE",
"251 422 CURVE",
"260 422 OFFCURVE",
"278 425 OFFCURVE",
"285 428 CURVE",
"297 416 OFFCURVE",
"328 409 OFFCURVE",
"344 412 CURVE",
"350 407 OFFCURVE",
"357 404 OFFCURVE",
"364 404 CURVE",
"369 394 OFFCURVE",
"379 386 OFFCURVE",
"390 384 CURVE",
"388 365 OFFCURVE",
"397 349 OFFCURVE",
"407 340 CURVE",
"404 326 OFFCURVE",
"403 309 OFFCURVE",
"413 293 CURVE",
"406 278 OFFCURVE",
"410 260 OFFCURVE",
"423 250 CURVE",
"420 232 OFFCURVE",
"410 220 OFFCURVE",
"422 203 CURVE",
"416 196 OFFCURVE",
"413 187 OFFCURVE",
"413 178 CURVE",
"399 168 OFFCURVE",
"393 148 OFFCURVE",
"399 132 CURVE",
"396 127 OFFCURVE",
"393 122 OFFCURVE",
"392 116 CURVE",
"377 123 OFFCURVE",
"359 119 OFFCURVE",
"349 107 CURVE",
"326 110 OFFCURVE",
"304 94 OFFCURVE",
"301 86 CURVE",
"294 88 OFFCURVE",
"261 94 OFFCURVE",
"248 91 CURVE"
);
}
);
width = 555;
}
);
unicode = 00F0;
},
{
glyphname = dcaron;
layers = (
{
components = (
{
name = d;
}
);
layerId = "44398CD6-F961-4ECB-B01A-EEBF1DAB2450";
paths = (
{
closed = 1;
nodes = (
"602 455 OFFCURVE",
"602 445 OFFCURVE",
"600 436 CURVE",
"610 378 OFFCURVE",
"511 385 OFFCURVE",
"529 441 CURVE",
"529 443 OFFCURVE",
"528 446 OFFCURVE",
"529 448 CURVE",
"524 458 OFFCURVE",
"517 466 OFFCURVE",
"515 477 CURVE SMOOTH",
"513 487 OFFCURVE",
"519 500 OFFCURVE",
"522 510 CURVE",
"521 512 OFFCURVE",
"521 514 OFFCURVE",
"521 516 CURVE",
"517 524 OFFCURVE",
"516 533 OFFCURVE",
"517 541 CURVE",
"515 551 OFFCURVE",
"515 569 OFFCURVE",
"518 579 CURVE",
"517 587 OFFCURVE",
"518 594 OFFCURVE",
"521 601 CURVE",
"521 605 OFFCURVE",
"522 610 OFFCURVE",
"523 614 CURVE",
"522 617 OFFCURVE",
"522 621 OFFCURVE",
"522 625 CURVE",
"518 637 OFFCURVE",
"511 644 OFFCURVE",
"510 658 CURVE SMOOTH",
"509 670 OFFCURVE",
"509 681 OFFCURVE",
"516 692 CURVE",
"494 740 OFFCURVE",
"575 766 OFFCURVE",
"585 714 CURVE",
"598 699 OFFCURVE",
"597 677 OFFCURVE",
"582 663 CURVE",
"590 656 OFFCURVE",
"594 645 OFFCURVE",
"592 634 CURVE",
"595 626 OFFCURVE",
"596 618 OFFCURVE",
"593 610 CURVE",
"595 602 OFFCURVE",
"594 595 OFFCURVE",
"590 587 CURVE",
"590 583 OFFCURVE",
"590 579 OFFCURVE",
"588 575 CURVE",
"590 566 OFFCURVE",
"590 552 OFFCURVE",
"588 543 CURVE",
"589 540 OFFCURVE",
"589 537 OFFCURVE",
"589 534 CURVE",
"594 525 OFFCURVE",
"595 515 OFFCURVE",
"592 505 CURVE",
"593 499 OFFCURVE",
"593 492 OFFCURVE",
"591 486 CURVE",
"595 480 OFFCURVE",
"598 472 OFFCURVE",
"597 464 CURVE",
"600 459 OFFCURVE",
"598 464 OFFCURVE",
"597 464 CURVE"
);
}
);
width = 697;
}
);
unicode = 010F;
},
{
glyphname = dcroat;
layers = (
{
components = (
{
name = d;
}
);
layerId = "44398CD6-F961-4ECB-B01A-EEBF1DAB2450";
paths = (
{
closed = 1;
nodes = (
"286 539 OFFCURVE",
"304 539 OFFCURVE",
"317 546 CURVE",
"330 538 OFFCURVE",
"355 542 OFFCURVE",
"370 547 CURVE",
"385 536 OFFCURVE",
"406 539 OFFCURVE",
"418 552 CURVE",
"431 538 OFFCURVE",
"452 536 OFFCURVE",
"468 546 CURVE",
"475 538 OFFCURVE",
"492 541 OFFCURVE",
"507 548 CURVE",
"578 536 OFFCURVE",
"575 650 OFFCURVE",
"488 623 CURVE",
"475 634 OFFCURVE",
"452 629 OFFCURVE",
"446 625 CURVE",
"430 634 OFFCURVE",
"403 637 OFFCURVE",
"388 626 CURVE",
"371 633 OFFCURVE",
"350 631 OFFCURVE",
"341 619 CURVE",
"327 629 OFFCURVE",
"308 630 OFFCURVE",
"294 620 CURVE",
"284 626 OFFCURVE",
"267 626 OFFCURVE",
"254 620 CURVE",
"196 619 OFFCURVE",
"183 536 OFFCURVE",
"274 547 CURVE"
);
}
);
width = 602;
}
);
unicode = 0111;
},
{
glyphname = e;
layers = (
{
layerId = "44398CD6-F961-4ECB-B01A-EEBF1DAB2450";
paths = (
{
closed = 1;
nodes = (
"400 146 OFFCURVE",
"349 138 OFFCURVE",
"328 113 CURVE",
"307 115 OFFCURVE",
"288 100 OFFCURVE",
"285 91 CURVE",
"275 95 OFFCURVE",
"264 95 OFFCURVE",
"253 92 CURVE",
"242 101 OFFCURVE",
"227 104 OFFCURVE",
"213 97 CURVE",
"211 107 OFFCURVE",
"182 111 OFFCURVE",
"173 103 CURVE",
"171 113 OFFCURVE",
"157 130 OFFCURVE",
"141 130 CURVE",
"136 150 OFFCURVE",
"119 158 OFFCURVE",
"116 161 CURVE",
"119 176 OFFCURVE",
"112 191 OFFCURVE",
"101 202 CURVE",
"110 214 OFFCURVE",
"110 235 OFFCURVE",
"109 245 CURVE",
"119 240 OFFCURVE",
"159 240 OFFCURVE",
"173 251 CURVE",
"193 243 OFFCURVE",
"215 244 OFFCURVE",
"233 253 CURVE",
"255 243 OFFCURVE",
"283 247 OFFCURVE",
"294 255 CURVE",
"308 239 OFFCURVE",
"360 245 OFFCURVE",
"377 258 CURVE",
"407 245 OFFCURVE",
"440 255 OFFCURVE",
"455 282 CURVE",
"509 303 OFFCURVE",
"479 380 OFFCURVE",
"455 391 CURVE",
"469 459 OFFCURVE",
"403 496 OFFCURVE",
"375 490 CURVE",
"370 522 OFFCURVE",
"341 527 OFFCURVE",
"320 529 CURVE",
"322 539 OFFCURVE",
"301 546 OFFCURVE",
"283 543 CURVE",
"272 547 OFFCURVE",
"253 546 OFFCURVE",
"244 535 CURVE",
"230 532 OFFCURVE",
"218 527 OFFCURVE",
"212 517 CURVE",
"202 521 OFFCURVE",
"169 512 OFFCURVE",
"166 496 CURVE",
"147 498 OFFCURVE",
"111 473 OFFCURVE",
"111 449 CURVE",
"71 439 OFFCURVE",
"67 411 OFFCURVE",
"70 389 CURVE",
"51 385 OFFCURVE",
"33 345 OFFCURVE",
"36 336 CURVE",
"26 328 OFFCURVE",
"6 286 OFFCURVE",
"22 259 CURVE",
"10 237 OFFCURVE",
"14 200 OFFCURVE",
"22 179 CURVE",
"18 169 OFFCURVE",
"24 149 OFFCURVE",
"30 147 CURVE",
"29 142 OFFCURVE",
"29 137 OFFCURVE",
"30 132 CURVE",
"34 115 OFFCURVE",
"43 105 OFFCURVE",
"59 99 CURVE",
"61 83 OFFCURVE",
"91 51 OFFCURVE",
"110 51 CURVE",
"123 25 OFFCURVE",
"147 17 OFFCURVE",
"179 19 CURVE",
"189 10 OFFCURVE",
"205 6 OFFCURVE",
"219 12 CURVE",
"233 0 OFFCURVE",
"270 2 OFFCURVE",
"283 14 CURVE",
"305 8 OFFCURVE",
"328 13 OFFCURVE",
"342 30 CURVE",
"359 29 OFFCURVE",
"383 47 OFFCURVE",
"399 56 CURVE",
"419 69 OFFCURVE",
"427 92 OFFCURVE",
"417 113 CURVE"
);
},
{
closed = 1;
nodes = (
"256 445 OFFCURVE",
"278 450 OFFCURVE",
"284 457 CURVE",
"286 444 OFFCURVE",
"315 430 OFFCURVE",
"321 434 CURVE",
"334 418 OFFCURVE",
"347 389 OFFCURVE",
"373 391 CURVE",
"364 377 OFFCURVE",
"379 340 OFFCURVE",
"392 336 CURVE",
"379 341 OFFCURVE",
"323 345 OFFCURVE",
"308 326 CURVE",
"278 353 OFFCURVE",
"236 339 OFFCURVE",
"213 326 CURVE",
"202 335 OFFCURVE",
"154 343 OFFCURVE",
"131 326 CURVE",
"130 326 OFFCURVE",
"129 326 OFFCURVE",
"127 327 CURVE",
"141 339 OFFCURVE",
"158 365 OFFCURVE",
"161 384 CURVE",
"185 393 OFFCURVE",
"198 411 OFFCURVE",
"210 433 CURVE",
"227 430 OFFCURVE",
"244 440 OFFCURVE",
"247 446 CURVE"
);
}
);
width = 493;
}
);
note = e;
unicode = 0065;
},
{
glyphname = schwa;
layers = (
{
layerId = "44398CD6-F961-4ECB-B01A-EEBF1DAB2450";
paths = (
{
closed = 1;
nodes = (
"524 234 OFFCURVE",
"524 262 OFFCURVE",
"509 296 CURVE",
"531 323 OFFCURVE",
"513 341 OFFCURVE",
"496 360 CURVE",
"483 375 OFFCURVE",
"476 399 OFFCURVE",
"456 407 CURVE",
"449 439 OFFCURVE",
"418 449 OFFCURVE",
"396 467 CURVE",
"375 485 OFFCURVE",
"348 493 OFFCURVE",
"320 494 CURVE",
"312 508 OFFCURVE",
"294 517 OFFCURVE",
"277 514 CURVE",
"259 534 OFFCURVE",
"226 532 OFFCURVE",
"211 508 CURVE",
"189 522 OFFCURVE",
"163 511 OFFCURVE",
"145 495 CURVE",
"118 505 OFFCURVE",
"59 473 OFFCURVE",
"55 445 CURVE",
"43 390 OFFCURVE",
"104 393 OFFCURVE",
"135 411 CURVE",
"163 395 OFFCURVE",
"174 415 OFFCURVE",
"194 428 CURVE",
"209 421 OFFCURVE",
"237 425 OFFCURVE",
"251 432 CURVE",
"255 431 OFFCURVE",
"260 429 OFFCURVE",
"264 431 CURVE",
"276 411 OFFCURVE",
"317 405 OFFCURVE",
"340 406 CURVE",
"350 395 OFFCURVE",
"368 390 OFFCURVE",
"377 381 CURVE",
"393 365 OFFCURVE",
"382 346 OFFCURVE",
"412 338 CURVE",
"414 330 OFFCURVE",
"418 325 OFFCURVE",
"422 320 CURVE",
"415 306 OFFCURVE",
"416 289 OFFCURVE",
"425 276 CURVE",
"423 276 OFFCURVE",
"421 276 OFFCURVE",
"420 275 CURVE",
"398 276 OFFCURVE",
"375 287 OFFCURVE",
"354 273 CURVE",
"332 282 OFFCURVE",
"312 296 OFFCURVE",
"289 276 CURVE",
"268 283 OFFCURVE",
"244 287 OFFCURVE",
"223 283 CURVE",
"206 281 OFFCURVE",
"182 273 OFFCURVE",
"164 275 CURVE",
"137 279 OFFCURVE",
"107 292 OFFCURVE",
"96 252 CURVE",
"94 241 OFFCURVE",
"97 223 OFFCURVE",
"98 213 CURVE",
"101 196 OFFCURVE",
"104 182 OFFCURVE",
"121 174 CURVE",
"111 157 OFFCURVE",
"115 135 OFFCURVE",
"129 122 CURVE",
"123 87 OFFCURVE",
"161 54 OFFCURVE",
"195 54 CURVE",
"201 45 OFFCURVE",
"209 40 OFFCURVE",
"218 36 CURVE",
"229 3 OFFCURVE",
"303 -17 OFFCURVE",
"327 11 CURVE",
"347 9 OFFCURVE",
"353 23 OFFCURVE",
"367 31 CURVE",
"394 15 OFFCURVE",
"414 31 OFFCURVE",
"428 51 CURVE",
"439 67 OFFCURVE",
"453 76 OFFCURVE",
"463 91 CURVE",
"474 104 OFFCURVE",
"481 121 OFFCURVE",
"492 134 CURVE",
"500 144 OFFCURVE",
"509 146 OFFCURVE",
"513 161 CURVE",
"516 174 OFFCURVE",
"514 186 OFFCURVE",
"516 199 CURVE"
);
},
{
closed = 1;
nodes = (
"428 191 OFFCURVE",
"393 166 OFFCURVE",
"393 134 CURVE",
"385 131 OFFCURVE",
"375 124 OFFCURVE",
"369 117 CURVE",
"353 118 OFFCURVE",
"323 107 OFFCURVE",
"313 93 CURVE",
"301 94 OFFCURVE",
"293 88 OFFCURVE",
"288 85 CURVE",
"282 98 OFFCURVE",
"270 109 OFFCURVE",
"256 111 CURVE",
"250 129 OFFCURVE",
"231 140 OFFCURVE",
"211 137 CURVE",
"211 146 OFFCURVE",
"208 154 OFFCURVE",
"203 161 CURVE",
"208 176 OFFCURVE",
"201 182 OFFCURVE",
"200 196 CURVE",
"218 197 OFFCURVE",
"234 202 OFFCURVE",
"251 200 CURVE",
"273 197 OFFCURVE",
"296 187 OFFCURVE",
"316 197 CURVE",
"343 182 OFFCURVE",
"365 189 OFFCURVE",
"390 199 CURVE",
"411 195 OFFCURVE",
"408 188 OFFCURVE",
"430 194 CURVE"
);
}
);
width = 600;
}
);
unicode = 0259;
},
{
glyphname = f;
layers = (
{
layerId = "44398CD6-F961-4ECB-B01A-EEBF1DAB2450";
paths = (
{
closed = 1;
nodes = (
"76 417 OFFCURVE",
"94 416 OFFCURVE",
"110 419 CURVE",
"99 400 OFFCURVE",
"104 368 OFFCURVE",
"120 352 CURVE",
"108 344 OFFCURVE",
"109 291 OFFCURVE",
"120 284 CURVE",
"100 266 OFFCURVE",
"102 234 OFFCURVE",
"123 220 CURVE",
"114 207 OFFCURVE",
"112 189 OFFCURVE",
"121 175 CURVE",
"112 158 OFFCURVE",
"119 140 OFFCURVE",
"126 123 CURVE",
"108 98 OFFCURVE",
"126 3 OFFCURVE",
"167 1 CURVE",
"229 -3 OFFCURVE",
"208 58 OFFCURVE",
"199 91 CURVE",
"218 110 OFFCURVE",
"209 132 OFFCURVE",
"200 154 CURVE",
"209 167 OFFCURVE",
"210 184 OFFCURVE",
"201 198 CURVE",
"208 213 OFFCURVE",
"207 242 OFFCURVE",
"198 255 CURVE",
"206 271 OFFCURVE",
"201 302 OFFCURVE",
"192 315 CURVE",
"198 330 OFFCURVE",
"194 347 OFFCURVE",
"183 359 CURVE",
"184 364 OFFCURVE",
"184 371 OFFCURVE",
"183 378 CURVE",
"193 387 OFFCURVE",
"197 403 OFFCURVE",
"193 416 CURVE",
"198 418 OFFCURVE",
"203 421 OFFCURVE",
"206 425 CURVE",
"222 420 OFFCURVE",
"244 418 OFFCURVE",
"257 427 CURVE",
"311 400 OFFCURVE",
"344 499 OFFCURVE",
"281 502 CURVE",
"269 509 OFFCURVE",
"243 509 OFFCURVE",
"230 502 CURVE",
"220 510 OFFCURVE",
"206 515 OFFCURVE",
"190 511 CURVE",
"201 525 OFFCURVE",
"199 556 OFFCURVE",
"189 570 CURVE",
"201 578 OFFCURVE",
"204 608 OFFCURVE",
"204 623 CURVE",
"220 623 OFFCURVE",
"232 636 OFFCURVE",
"239 648 CURVE",
"249 646 OFFCURVE",
"270 649 OFFCURVE",
"275 657 CURVE",
"288 649 OFFCURVE",
"303 650 OFFCURVE",
"316 657 CURVE",
"347 640 OFFCURVE",
"391 657 OFFCURVE",
"391 690 CURVE",
"391 725 OFFCURVE",
"321 745 OFFCURVE",
"296 729 CURVE",
"284 734 OFFCURVE",
"239 740 OFFCURVE",
"228 724 CURVE",
"197 725 OFFCURVE",
"166 701 OFFCURVE",
"162 688 CURVE",
"141 682 OFFCURVE",
"122 662 OFFCURVE",
"116 643 CURVE",
"100 623 OFFCURVE",
"98 598 OFFCURVE",
"102 568 CURVE",
"97 559 OFFCURVE",
"99 517 OFFCURVE",
"105 503 CURVE",
"104 503 OFFCURVE",
"104 503 OFFCURVE",
"103 502 CURVE",
"81 514 OFFCURVE",
"41 509 OFFCURVE",
"28 484 CURVE",
"15 458 OFFCURVE",
"35 427 OFFCURVE",
"64 426 CURVE"
);
}
);
width = 406;
}
);
note = f;
unicode = 0066;
},
{
glyphname = g;
layers = (
{
layerId = "44398CD6-F961-4ECB-B01A-EEBF1DAB2450";
paths = (
{
closed = 1;
nodes = (
"318 -97 OFFCURVE",
"304 -109 OFFCURVE",
"304 -120 CURVE",
"293 -115 OFFCURVE",
"261 -117 OFFCURVE",
"253 -127 CURVE",
"246 -120 OFFCURVE",
"236 -116 OFFCURVE",
"226 -115 CURVE",
"221 -103 OFFCURVE",
"210 -95 OFFCURVE",
"198 -92 CURVE",
"176 -36 OFFCURVE",
"91 -79 OFFCURVE",
"124 -129 CURVE",
"125 -149 OFFCURVE",
"141 -166 OFFCURVE",
"161 -167 CURVE",
"169 -183 OFFCURVE",
"187 -196 OFFCURVE",
"204 -197 CURVE",
"231 -225 OFFCURVE",
"300 -219 OFFCURVE",
"317 -197 CURVE",
"336 -197 OFFCURVE",
"351 -191 OFFCURVE",
"355 -175 CURVE",
"369 -173 OFFCURVE",
"386 -154 OFFCURVE",
"385 -138 CURVE",
"401 -134 OFFCURVE",
"414 -118 OFFCURVE",
"422 -95 CURVE",
"441 -85 OFFCURVE",
"454 -59 OFFCURVE",
"442 -37 CURVE",
"450 -24 OFFCURVE",
"457 -4 OFFCURVE",
"450 -2 CURVE",
"464 19 OFFCURVE",
"462 50 OFFCURVE",
"454 63 CURVE",
"460 74 OFFCURVE",
"462 89 OFFCURVE",
"456 101 CURVE",
"471 122 OFFCURVE",
"459 147 OFFCURVE",
"448 166 CURVE",
"457 181 OFFCURVE",
"459 214 OFFCURVE",
"447 230 CURVE",
"450 240 OFFCURVE",
"449 250 OFFCURVE",
"444 301 CURVE",
"453 314 OFFCURVE",
"453 331 OFFCURVE",
"444 345 CURVE",
"450 355 OFFCURVE",
"454 365 OFFCURVE",
"451 377 CURVE",
"457 383 OFFCURVE",
"463 399 OFFCURVE",
"456 417 CURVE",
"459 435 OFFCURVE",
"448 452 OFFCURVE",
"437 467 CURVE",
"449 500 OFFCURVE",
"413 533 OFFCURVE",
"380 519 CURVE",
"372 552 OFFCURVE",
"325 547 OFFCURVE",
"312 536 CURVE",
"285 564 OFFCURVE",
"190 572 OFFCURVE",
"175 529 CURVE",
"162 526 OFFCURVE",
"131 520 OFFCURVE",
"125 494 CURVE",
"113 499 OFFCURVE",
"79 473 OFFCURVE",
"82 453 CURVE",
"63 445 OFFCURVE",
"43 393 OFFCURVE",
"50 383 CURVE",
"13 357 OFFCURVE",
"27 272 OFFCURVE",
"43 258 CURVE",
"24 234 OFFCURVE",
"28 155 OFFCURVE",
"69 140 CURVE",
"72 91 OFFCURVE",
"110 53 OFFCURVE",
"144 50 CURVE",
"156 22 OFFCURVE",
"205 7 OFFCURVE",
"232 21 CURVE",
"245 11 OFFCURVE",
"279 14 OFFCURVE",
"303 20 CURVE",
"319 12 OFFCURVE",
"370 39 OFFCURVE",
"378 43 CURVE",
"369 37 OFFCURVE",
"359 15 OFFCURVE",
"363 -8 CURVE",
"348 -18 OFFCURVE",
"343 -47 OFFCURVE",
"348 -65 CURVE",
"338 -67 OFFCURVE",
"327 -86 OFFCURVE",
"329 -96 CURVE"
);
},
{
closed = 1;
nodes = (
"268 108 OFFCURVE",
"244 119 OFFCURVE",
"217 102 CURVE",
"208 116 OFFCURVE",
"184 122 OFFCURVE",
"167 123 CURVE",
"166 128 OFFCURVE",
"153 158 OFFCURVE",
"145 163 CURVE",
"155 192 OFFCURVE",
"135 215 OFFCURVE",
"124 220 CURVE",
"135 241 OFFCURVE",
"134 284 OFFCURVE",
"116 300 CURVE",
"135 306 OFFCURVE",
"136 350 OFFCURVE",
"134 369 CURVE",
"144 377 OFFCURVE",
"157 402 OFFCURVE",
"157 414 CURVE",
"173 419 OFFCURVE",
"187 430 OFFCURVE",
"188 444 CURVE",
"203 447 OFFCURVE",
"232 463 OFFCURVE",
"238 474 CURVE",
"260 459 OFFCURVE",
"281 455 OFFCURVE",
"303 467 CURVE",
"308 455 OFFCURVE",
"328 450 OFFCURVE",
"343 451 CURVE",
"344 442 OFFCURVE",
"349 423 OFFCURVE",
"358 417 CURVE",
"351 401 OFFCURVE",
"351 370 OFFCURVE",
"362 356 CURVE",
"359 344 OFFCURVE",
"360 325 OFFCURVE",
"366 314 CURVE",
"358 299 OFFCURVE",
"356 276 OFFCURVE",
"363 265 CURVE",
"357 255 OFFCURVE",
"356 232 OFFCURVE",
"366 214 CURVE",
"357 184 OFFCURVE",
"359 142 OFFCURVE",
"372 129 CURVE",
"354 123 OFFCURVE",
"334 109 OFFCURVE",
"331 104 CURVE",
"325 107 OFFCURVE",
"298 115 OFFCURVE",
"283 97 CURVE"
);
}
);
width = 503;
}
);
note = g;
unicode = 0067;
},
{
glyphname = h;
layers = (
{
layerId = "44398CD6-F961-4ECB-B01A-EEBF1DAB2450";
paths = (
{
closed = 1;
nodes = (
"144 67 OFFCURVE",
"143 85 OFFCURVE",
"135 101 CURVE",
"146 118 OFFCURVE",
"154 166 OFFCURVE",
"135 176 CURVE",
"145 192 OFFCURVE",
"145 197 OFFCURVE",
"141 215 CURVE",
"145 224 OFFCURVE",
"147 239 OFFCURVE",
"143 249 CURVE",
"150 262 OFFCURVE",
"155 277 OFFCURVE",
"142 295 CURVE",
"149 314 OFFCURVE",
"153 331 OFFCURVE",
"149 346 CURVE",
"164 346 OFFCURVE",
"181 370 OFFCURVE",
"183 380 CURVE",
"190 379 OFFCURVE",
"210 392 OFFCURVE",
"220 403 CURVE",
"227 401 OFFCURVE",
"248 407 OFFCURVE",
"253 416 CURVE",
"261 413 OFFCURVE",
"277 416 OFFCURVE",
"286 420 CURVE",
"290 410 OFFCURVE",
"304 398 OFFCURVE",
"314 401 CURVE",
"306 383 OFFCURVE",
"308 367 OFFCURVE",
"328 350 CURVE",
"320 342 OFFCURVE",
"317 311 OFFCURVE",
"332 299 CURVE",
"325 289 OFFCURVE",
"327 268 OFFCURVE",
"337 253 CURVE",
"329 246 OFFCURVE",
"332 222 OFFCURVE",
"339 211 CURVE",
"333 202 OFFCURVE",
"333 176 OFFCURVE",
"338 169 CURVE",
"331 157 OFFCURVE",
"331 119 OFFCURVE",
"338 101 CURVE",
"330 78 OFFCURVE",
"328 51 OFFCURVE",
"343 29 CURVE",
"341 -15 OFFCURVE",
"418 3 OFFCURVE",
"415 29 CURVE",
"423 43 OFFCURVE",
"426 75 OFFCURVE",
"416 89 CURVE",
"427 102 OFFCURVE",
"428 141 OFFCURVE",
"418 155 CURVE",
"423 168 OFFCURVE",
"424 211 OFFCURVE",
"419 223 CURVE",
"429 240 OFFCURVE",
"428 269 OFFCURVE",
"421 286 CURVE",
"428 301 OFFCURVE",
"423 315 OFFCURVE",
"415 327 CURVE",
"424 341 OFFCURVE",
"426 369 OFFCURVE",
"410 381 CURVE",
"415 399 OFFCURVE",
"406 418 OFFCURVE",
"397 424 CURVE",
"404 435 OFFCURVE",
"398 453 OFFCURVE",
"382 467 CURVE",
"380 485 OFFCURVE",
"353 500 OFFCURVE",
"342 498 CURVE",
"333 508 OFFCURVE",
"318 509 OFFCURVE",
"305 504 CURVE",
"294 510 OFFCURVE",
"280 511 OFFCURVE",
"272 506 CURVE",
"261 512 OFFCURVE",
"241 512 OFFCURVE",
"230 502 CURVE",
"210 508 OFFCURVE",
"187 499 OFFCURVE",
"179 479 CURVE",
"167 482 OFFCURVE",
"145 471 OFFCURVE",
"138 453 CURVE",
"137 459 OFFCURVE",
"136 481 OFFCURVE",
"129 483 CURVE",
"139 500 OFFCURVE",
"135 519 OFFCURVE",
"124 527 CURVE",
"132 541 OFFCURVE",
"127 565 OFFCURVE",
"119 579 CURVE",
"130 601 OFFCURVE",
"134 625 OFFCURVE",
"122 646 CURVE",
"134 668 OFFCURVE",
"130 721 OFFCURVE",
"105 734 CURVE",
"76 747 OFFCURVE",
"46 731 OFFCURVE",
"48 700 CURVE",
"39 690 OFFCURVE",
"41 672 OFFCURVE",
"46 658 CURVE",
"41 644 OFFCURVE",
"38 619 OFFCURVE",
"49 608 CURVE",
"40 593 OFFCURVE",
"38 568 OFFCURVE",
"49 548 CURVE",
"38 530 OFFCURVE",
"43 507 OFFCURVE",
"48 496 CURVE",
"38 482 OFFCURVE",
"39 452 OFFCURVE",
"48 439 CURVE",
"45 430 OFFCURVE",
"45 419 OFFCURVE",
"49 410 CURVE",
"37 391 OFFCURVE",
"40 365 OFFCURVE",
"52 349 CURVE",
"48 339 OFFCURVE",
"48 327 OFFCURVE",
"53 318 CURVE",
"44 304 OFFCURVE",
"45 285 OFFCURVE",
"56 273 CURVE",
"52 260 OFFCURVE",
"51 239 OFFCURVE",
"56 227 CURVE",
"42 206 OFFCURVE",
"38 172 OFFCURVE",
"57 153 CURVE",
"34 132 OFFCURVE",
"39 89 OFFCURVE",
"53 76 CURVE",
"37 56 OFFCURVE",
"43 0 OFFCURVE",
"90 0 CURVE SMOOTH",
"124 0 OFFCURVE",
"146 17 OFFCURVE",
"131 56 CURVE"
);
}
);
width = 469;
}
);
note = h;
unicode = 0068;
},
{
glyphname = hbar;
layers = (
{
components = (
{
name = h;
}
);
layerId = "44398CD6-F961-4ECB-B01A-EEBF1DAB2450";
paths = (
{
closed = 1;
nodes = (
"72 571 OFFCURVE",
"90 571 OFFCURVE",
"103 578 CURVE",
"116 570 OFFCURVE",
"141 574 OFFCURVE",
"156 579 CURVE",
"171 568 OFFCURVE",
"192 571 OFFCURVE",
"204 584 CURVE",
"217 570 OFFCURVE",
"238 568 OFFCURVE",
"254 578 CURVE",
"261 570 OFFCURVE",
"278 573 OFFCURVE",
"293 580 CURVE",
"364 568 OFFCURVE",
"361 682 OFFCURVE",
"274 655 CURVE",
"261 666 OFFCURVE",
"238 661 OFFCURVE",
"232 657 CURVE",
"216 666 OFFCURVE",
"189 669 OFFCURVE",
"174 658 CURVE",
"157 665 OFFCURVE",
"136 663 OFFCURVE",
"127 651 CURVE",
"113 661 OFFCURVE",
"94 662 OFFCURVE",
"80 652 CURVE",
"70 658 OFFCURVE",
"53 658 OFFCURVE",
"40 652 CURVE",
"-18 651 OFFCURVE",
"-31 568 OFFCURVE",
"60 579 CURVE"
);
}
);
width = 503;
}
);
unicode = 0127;
},
{
glyphname = i;
layers = (
{
layerId = "44398CD6-F961-4ECB-B01A-EEBF1DAB2450";
paths = (
{
closed = 1;
nodes = (
"83 737 OFFCURVE",
"136 728 OFFCURVE",
"134 683 CURVE",
"150 658 OFFCURVE",
"155 630 OFFCURVE",
"118 611 CURVE",
"88 592 OFFCURVE",
"44 618 OFFCURVE",
"46 641 CURVE",
"20 671 OFFCURVE",
"35 700 OFFCURVE",
"62 713 CURVE"
);
},
{
closed = 1;
nodes = (
"135 282 OFFCURVE",
"144 335 OFFCURVE",
"134 347 CURVE",
"145 362 OFFCURVE",
"137 399 OFFCURVE",
"130 411 CURVE",
"143 430 OFFCURVE",
"145 472 OFFCURVE",
"122 487 CURVE",
"122 520 OFFCURVE",
"109 543 OFFCURVE",
"76 543 CURVE",
"54 543 OFFCURVE",
"40 533 OFFCURVE",
"43 512 CURVE",
"31 488 OFFCURVE",
"35 458 OFFCURVE",
"43 435 CURVE",
"37 421 OFFCURVE",
"44 390 OFFCURVE",
"54 376 CURVE",
"45 357 OFFCURVE",
"44 307 OFFCURVE",
"53 298 CURVE",
"42 288 OFFCURVE",
"43 209 OFFCURVE",
"53 198 CURVE",
"45 184 OFFCURVE",
"42 141 OFFCURVE",
"54 121 CURVE",
"36 107 OFFCURVE",
"43 55 OFFCURVE",
"54 41 CURVE",
"52 -19 OFFCURVE",
"157 -8 OFFCURVE",
"135 58 CURVE",
"144 75 OFFCURVE",
"143 107 OFFCURVE",
"134 129 CURVE",
"145 144 OFFCURVE",
"145 167 OFFCURVE",
"137 188 CURVE",
"149 199 OFFCURVE",
"144 265 OFFCURVE",
"127 271 CURVE"
);
}
);
width = 178;
}
);
note = i;
unicode = 0069;
},
{
glyphname = idotless;
layers = (
{
layerId = "44398CD6-F961-4ECB-B01A-EEBF1DAB2450";
paths = (
{
closed = 1;
nodes = (
"185 282 OFFCURVE",
"194 355 OFFCURVE",
"184 367 CURVE",
"195 382 OFFCURVE",
"187 399 OFFCURVE",
"180 411 CURVE",
"193 430 OFFCURVE",
"195 472 OFFCURVE",
"172 487 CURVE",
"190 520 OFFCURVE",
"180 577 OFFCURVE",
"130 556 CURVE",
"99 565 OFFCURVE",
"80 533 OFFCURVE",
"83 512 CURVE",
"71 488 OFFCURVE",
"75 458 OFFCURVE",
"83 435 CURVE",
"77 421 OFFCURVE",
"84 390 OFFCURVE",
"94 376 CURVE",
"85 357 OFFCURVE",
"84 307 OFFCURVE",
"93 298 CURVE",
"82 288 OFFCURVE",
"83 209 OFFCURVE",
"93 198 CURVE",
"85 184 OFFCURVE",
"82 163 OFFCURVE",
"94 143 CURVE",
"76 129 OFFCURVE",
"83 81 OFFCURVE",
"94 67 CURVE",
"92 -33 OFFCURVE",
"195 -8 OFFCURVE",
"173 58 CURVE",
"192 79 OFFCURVE",
"193 107 OFFCURVE",
"184 129 CURVE",
"195 144 OFFCURVE",
"195 167 OFFCURVE",
"187 188 CURVE",
"199 199 OFFCURVE",
"194 265 OFFCURVE",
"177 271 CURVE"
);
}
);
width = 269;
}
);
unicode = 0131;
},
{
glyphname = j;
layers = (
{
layerId = "44398CD6-F961-4ECB-B01A-EEBF1DAB2450";
paths = (
{
closed = 1;
nodes = (
"22 -96 OFFCURVE",
"35 -75 OFFCURVE",
"45 -74 CURVE",
"43 -63 OFFCURVE",
"48 -48 OFFCURVE",
"59 -36 CURVE",
"57 -24 OFFCURVE",
"60 -11 OFFCURVE",
"68 -1 CURVE",
"58 7 OFFCURVE",
"57 39 OFFCURVE",
"68 49 CURVE",
"62 62 OFFCURVE",
"59 89 OFFCURVE",
"69 111 CURVE",
"61 121 OFFCURVE",
"61 141 OFFCURVE",
"73 156 CURVE",
"69 164 OFFCURVE",
"67 183 OFFCURVE",
"78 192 CURVE",
"66 202 OFFCURVE",
"60 243 OFFCURVE",
"76 256 CURVE",
"59 266 OFFCURVE",
"62 303 OFFCURVE",
"73 310 CURVE",
"60 322 OFFCURVE",
"51 344 OFFCURVE",
"64 366 CURVE",
"45 391 OFFCURVE",
"49 419 OFFCURVE",
"60 438 CURVE",
"49 472 OFFCURVE",
"61 490 OFFCURVE",
"87 504 CURVE",
"112 517 OFFCURVE",
"144 503 OFFCURVE",
"152 476 CURVE",
"158 452 OFFCURVE",
"157 437 OFFCURVE",
"153 413 CURVE",
"159 394 OFFCURVE",
"166 378 OFFCURVE",
"156 354 CURVE",
"167 339 OFFCURVE",
"166 324 OFFCURVE",
"158 307 CURVE",
"166 293 OFFCURVE",
"171 264 OFFCURVE",
"159 248 CURVE",
"174 232 OFFCURVE",
"169 210 OFFCURVE",
"161 195 CURVE",
"168 182 OFFCURVE",
"172 149 OFFCURVE",
"165 136 CURVE",
"178 124 OFFCURVE",
"177 84 OFFCURVE",
"163 74 CURVE",
"173 54 OFFCURVE",
"165 36 OFFCURVE",
"156 25 CURVE",
"176 3 OFFCURVE",
"171 -28 OFFCURVE",
"151 -50 CURVE",
"155 -67 OFFCURVE",
"147 -85 OFFCURVE",
"129 -90 CURVE",
"129 -125 OFFCURVE",
"125 -129 OFFCURVE",
"103 -151 CURVE",
"102 -169 OFFCURVE",
"83 -179 OFFCURVE",
"69 -187 CURVE",
"37 -206 OFFCURVE",
"-6 -208 OFFCURVE",
"-24 -175 CURVE",
"-37 -149 OFFCURVE",
"-4 -107 OFFCURVE",
"24 -104 CURVE"
);
},
{
closed = 1;
nodes = (
"59 609 OFFCURVE",
"101 583 OFFCURVE",
"130 609 CURVE",
"150 619 OFFCURVE",
"155 644 OFFCURVE",
"146 661 CURVE",
"162 691 OFFCURVE",
"131 745 OFFCURVE",
"81 724 CURVE",
"44 708 OFFCURVE",
"50 671 OFFCURVE",
"62 649 CURVE"
);
}
);
width = 230;
}
);
note = j;
unicode = 006A;
},
{
glyphname = jdotless;
layers = (
{
layerId = "44398CD6-F961-4ECB-B01A-EEBF1DAB2450";
paths = (
{
closed = 1;
nodes = (
"104 -96 OFFCURVE",
"117 -75 OFFCURVE",
"127 -74 CURVE",
"125 -63 OFFCURVE",
"130 -48 OFFCURVE",
"141 -36 CURVE",
"139 -24 OFFCURVE",
"142 -11 OFFCURVE",
"150 -1 CURVE",
"140 7 OFFCURVE",
"139 39 OFFCURVE",
"150 49 CURVE",
"144 62 OFFCURVE",
"141 89 OFFCURVE",
"151 111 CURVE",
"143 121 OFFCURVE",
"143 141 OFFCURVE",
"155 156 CURVE",
"151 164 OFFCURVE",
"149 183 OFFCURVE",
"160 192 CURVE",
"148 202 OFFCURVE",
"142 243 OFFCURVE",
"158 256 CURVE",
"141 266 OFFCURVE",
"144 303 OFFCURVE",
"155 310 CURVE",
"142 322 OFFCURVE",
"133 357 OFFCURVE",
"146 379 CURVE",
"127 404 OFFCURVE",
"131 432 OFFCURVE",
"142 451 CURVE",
"131 485 OFFCURVE",
"143 503 OFFCURVE",
"169 517 CURVE",
"194 530 OFFCURVE",
"226 516 OFFCURVE",
"234 489 CURVE",
"240 465 OFFCURVE",
"239 450 OFFCURVE",
"235 426 CURVE",
"241 407 OFFCURVE",
"248 391 OFFCURVE",
"238 367 CURVE",
"249 352 OFFCURVE",
"248 324 OFFCURVE",
"240 307 CURVE",
"248 293 OFFCURVE",
"253 264 OFFCURVE",
"241 248 CURVE",
"256 232 OFFCURVE",
"251 210 OFFCURVE",
"243 195 CURVE",
"250 182 OFFCURVE",
"254 149 OFFCURVE",
"247 136 CURVE",
"260 124 OFFCURVE",
"259 84 OFFCURVE",
"245 74 CURVE",
"255 54 OFFCURVE",
"247 36 OFFCURVE",
"238 25 CURVE",
"258 3 OFFCURVE",
"253 -28 OFFCURVE",
"233 -50 CURVE",
"237 -67 OFFCURVE",
"229 -85 OFFCURVE",
"211 -90 CURVE",
"211 -125 OFFCURVE",
"207 -129 OFFCURVE",
"185 -151 CURVE",
"184 -169 OFFCURVE",
"165 -179 OFFCURVE",
"151 -187 CURVE",
"119 -206 OFFCURVE",
"76 -208 OFFCURVE",
"58 -175 CURVE",
"45 -149 OFFCURVE",
"78 -107 OFFCURVE",
"106 -104 CURVE"
);
}
);
width = 311;
}
);
unicode = 0237;
},
{
glyphname = k;
layers = (
{
layerId = "44398CD6-F961-4ECB-B01A-EEBF1DAB2450";
paths = (
{
closed = 1;
nodes = (
"405 47 OFFCURVE",
"388 73 OFFCURVE",
"375 74 CURVE",
"372 94 OFFCURVE",
"358 122 OFFCURVE",
"335 128 CURVE",
"340 146 OFFCURVE",
"332 166 OFFCURVE",
"316 174 CURVE",
"314 194 OFFCURVE",
"298 223 OFFCURVE",
"278 231 CURVE",
"281 246 OFFCURVE",
"266 261 OFFCURVE",
"254 263 CURVE",
"262 287 OFFCURVE",
"257 308 OFFCURVE",
"231 322 CURVE",
"253 320 OFFCURVE",
"278 347 OFFCURVE",
"280 366 CURVE",
"303 365 OFFCURVE",
"324 393 OFFCURVE",
"321 411 CURVE",
"340 413 OFFCURVE",
"356 420 OFFCURVE",
"365 452 CURVE",
"398 507 OFFCURVE",
"294 535 OFFCURVE",
"294 474 CURVE",
"281 480 OFFCURVE",
"257 456 OFFCURVE",
"250 438 CURVE",
"239 438 OFFCURVE",
"214 420 OFFCURVE",
"213 407 CURVE",
"194 407 OFFCURVE",
"167 374 OFFCURVE",
"163 358 CURVE",
"153 358 OFFCURVE",
"129 338 OFFCURVE",
"123 319 CURVE",
"123 319 OFFCURVE",
"122 320 OFFCURVE",
"122 320 CURVE",
"121 328 OFFCURVE",
"117 351 OFFCURVE",
"111 357 CURVE",
"116 372 OFFCURVE",
"126 398 OFFCURVE",
"109 414 CURVE",
"129 434 OFFCURVE",
"124 483 OFFCURVE",
"106 493 CURVE",
"111 506 OFFCURVE",
"118 537 OFFCURVE",
"102 559 CURVE",
"121 581 OFFCURVE",
"114 606 OFFCURVE",
"98 625 CURVE",
"109 637 OFFCURVE",
"113 665 OFFCURVE",
"91 682 CURVE",
"96 709 OFFCURVE",
"74 734 OFFCURVE",
"64 737 CURVE",
"21 744 OFFCURVE",
"1 690 OFFCURVE",
"17 657 CURVE",
"5 638 OFFCURVE",
"10 621 OFFCURVE",
"20 602 CURVE",
"12 589 OFFCURVE",
"11 565 OFFCURVE",
"19 552 CURVE",
"16 539 OFFCURVE",
"15 523 OFFCURVE",
"24 511 CURVE",
"15 488 OFFCURVE",
"22 468 OFFCURVE",
"35 451 CURVE",
"26 433 OFFCURVE",
"25 427 OFFCURVE",
"31 404 CURVE",
"26 391 OFFCURVE",
"25 362 OFFCURVE",
"31 353 CURVE",
"26 343 OFFCURVE",
"23 329 OFFCURVE",
"33 313 CURVE",
"24 297 OFFCURVE",
"28 277 OFFCURVE",
"40 264 CURVE",
"28 252 OFFCURVE",
"27 228 OFFCURVE",
"38 216 CURVE",
"31 197 OFFCURVE",
"26 147 OFFCURVE",
"38 131 CURVE",
"31 115 OFFCURVE",
"31 85 OFFCURVE",
"41 71 CURVE",
"35 56 OFFCURVE",
"39 38 OFFCURVE",
"48 27 CURVE",
"61 -32 OFFCURVE",
"149 3 OFFCURVE",
"124 59 CURVE",
"129 77 OFFCURVE",
"126 85 OFFCURVE",
"119 98 CURVE",
"129 112 OFFCURVE",
"129 124 OFFCURVE",
"114 141 CURVE",
"119 147 OFFCURVE",
"120 169 OFFCURVE",
"115 177 CURVE",
"126 186 OFFCURVE",
"132 201 OFFCURVE",
"130 216 CURVE",
"140 216 OFFCURVE",
"147 227 OFFCURVE",
"149 240 CURVE",
"156 240 OFFCURVE",
"168 250 OFFCURVE",
"169 260 CURVE",
"171 246 OFFCURVE",
"177 214 OFFCURVE",
"196 209 CURVE",
"195 188 OFFCURVE",
"212 161 OFFCURVE",
"233 157 CURVE",
"228 139 OFFCURVE",
"246 120 OFFCURVE",
"263 111 CURVE",
"264 81 OFFCURVE",
"272 65 OFFCURVE",
"297 60 CURVE",
"296 45 OFFCURVE",
"309 17 OFFCURVE",
"325 10 CURVE",
"347 -36 OFFCURVE",
"420 -1 OFFCURVE",
"399 36 CURVE"
);
}
);
width = 417;
}
);
note = k;
unicode = 006B;
},
{
glyphname = kgreenlandic;
layers = (
{
layerId = "44398CD6-F961-4ECB-B01A-EEBF1DAB2450";
paths = (
{
closed = 1;
nodes = (
"555 75 OFFCURVE",
"545 77 OFFCURVE",
"536 76 CURVE",
"526 90 OFFCURVE",
"511 97 OFFCURVE",
"495 94 CURVE",
"491 99 OFFCURVE",
"487 102 OFFCURVE",
"482 105 CURVE",
"479 129 OFFCURVE",
"459 146 OFFCURVE",
"434 143 CURVE",
"436 159 OFFCURVE",
"410 181 OFFCURVE",
"395 179 CURVE",
"372 221 OFFCURVE",
"335 236 OFFCURVE",
"293 253 CURVE",
"291 275 OFFCURVE",
"252 310 OFFCURVE",
"230 315 CURVE",
"247 321 OFFCURVE",
"270 334 OFFCURVE",
"277 351 CURVE",
"295 344 OFFCURVE",
"327 366 OFFCURVE",
"332 378 CURVE",
"350 378 OFFCURVE",
"380 400 OFFCURVE",
"383 417 CURVE",
"408 414 OFFCURVE",
"432 420 OFFCURVE",
"445 445 CURVE",
"457 446 OFFCURVE",
"468 453 OFFCURVE",
"475 464 CURVE",
"499 462 OFFCURVE",
"517 480 OFFCURVE",
"527 495 CURVE",
"546 497 OFFCURVE",
"564 504 OFFCURVE",
"576 518 CURVE",
"603 552 OFFCURVE",
"566 601 OFFCURVE",
"526 583 CURVE",
"506 584 OFFCURVE",
"471 562 OFFCURVE",
"457 546 CURVE",
"441 547 OFFCURVE",
"426 539 OFFCURVE",
"418 525 CURVE",
"404 524 OFFCURVE",
"391 516 OFFCURVE",
"384 503 CURVE",
"359 502 OFFCURVE",
"320 480 OFFCURVE",
"312 455 CURVE",
"292 461 OFFCURVE",
"269 443 OFFCURVE",
"260 425 CURVE",
"236 422 OFFCURVE",
"208 403 OFFCURVE",
"193 381 CURVE",
"199 395 OFFCURVE",
"199 424 OFFCURVE",
"192 436 CURVE",
"200 454 OFFCURVE",
"192 475 OFFCURVE",
"184 491 CURVE",
"194 505 OFFCURVE",
"193 524 OFFCURVE",
"183 537 CURVE",
"207 596 OFFCURVE",
"106 618 OFFCURVE",
"103 554 CURVE",
"95 540 OFFCURVE",
"95 523 OFFCURVE",
"104 510 CURVE",
"97 495 OFFCURVE",
"103 475 OFFCURVE",
"107 460 CURVE",
"96 446 OFFCURVE",
"95 424 OFFCURVE",
"106 410 CURVE",
"92 402 OFFCURVE",
"91 371 OFFCURVE",
"103 352 CURVE",
"95 336 OFFCURVE",
"100 316 OFFCURVE",
"113 305 CURVE",
"96 287 OFFCURVE",
"96 223 OFFCURVE",
"114 206 CURVE",
"100 197 OFFCURVE",
"97 171 OFFCURVE",
"107 155 CURVE",
"95 128 OFFCURVE",
"103 99 OFFCURVE",
"116 76 CURVE",
"116 59 OFFCURVE",
"109 43 OFFCURVE",
"117 26 CURVE",
"127 0 OFFCURVE",
"159 -12 OFFCURVE",
"184 5 CURVE",
"207 20 OFFCURVE",
"206 39 OFFCURVE",
"198 60 CURVE",
"207 82 OFFCURVE",
"205 108 OFFCURVE",
"185 128 CURVE",
"188 140 OFFCURVE",
"193 155 OFFCURVE",
"189 167 CURVE",
"205 182 OFFCURVE",
"205 213 OFFCURVE",
"198 232 CURVE",
"205 220 OFFCURVE",
"222 206 OFFCURVE",
"236 207 CURVE",
"241 199 OFFCURVE",
"255 188 OFFCURVE",
"267 187 CURVE",
"269 172 OFFCURVE",
"300 151 OFFCURVE",
"321 146 CURVE",
"332 122 OFFCURVE",
"348 106 OFFCURVE",
"364 101 CURVE",
"372 85 OFFCURVE",
"393 64 OFFCURVE",
"410 62 CURVE",
"420 41 OFFCURVE",
"460 12 OFFCURVE",
"483 14 CURVE",
"491 2 OFFCURVE",
"507 -5 OFFCURVE",
"521 -3 CURVE",
"565 -22 OFFCURVE",
"601 40 OFFCURVE",
"564 69 CURVE"
);
}
);
width = 600;
}
);
unicode = 0138;
},
{
glyphname = l;
layers = (
{
layerId = "44398CD6-F961-4ECB-B01A-EEBF1DAB2450";
paths = (
{
closed = 1;
nodes = (
"171 145 OFFCURVE",
"174 172 OFFCURVE",
"161 189 CURVE",
"167 206 OFFCURVE",
"171 230 OFFCURVE",
"160 245 CURVE",
"172 261 OFFCURVE",
"171 306 OFFCURVE",
"162 322 CURVE",
"170 337 OFFCURVE",
"173 371 OFFCURVE",
"164 386 CURVE",
"172 404 OFFCURVE",
"168 425 OFFCURVE",
"153 438 CURVE",
"162 448 OFFCURVE",
"164 483 OFFCURVE",
"157 491 CURVE",
"163 500 OFFCURVE",
"168 527 OFFCURVE",
"155 544 CURVE",
"177 563 OFFCURVE",
"166 599 OFFCURVE",
"155 608 CURVE",
"169 621 OFFCURVE",
"168 648 OFFCURVE",
"153 664 CURVE",
"158 680 OFFCURVE",
"153 697 OFFCURVE",
"140 707 CURVE",
"121 772 OFFCURVE",
"23 717 OFFCURVE",
"69 667 CURVE",
"66 658 OFFCURVE",
"66 637 OFFCURVE",
"70 628 CURVE",
"57 610 OFFCURVE",
"61 578 OFFCURVE",
"73 571 CURVE",
"66 563 OFFCURVE",
"67 530 OFFCURVE",
"74 514 CURVE",
"59 499 OFFCURVE",
"59 466 OFFCURVE",
"69 447 CURVE",
"59 431 OFFCURVE",
"62 410 OFFCURVE",
"74 396 CURVE",
"71 383 OFFCURVE",
"74 369 OFFCURVE",
"83 358 CURVE",
"75 334 OFFCURVE",
"74 319 OFFCURVE",
"85 288 CURVE",
"77 272 OFFCURVE",
"71 249 OFFCURVE",
"82 225 CURVE",
"73 210 OFFCURVE",
"69 170 OFFCURVE",
"81 156 CURVE",
"75 139 OFFCURVE",
"71 107 OFFCURVE",
"80 91 CURVE",
"68 67 OFFCURVE",
"70 21 OFFCURVE",
"94 6 CURVE",
"122 -10 OFFCURVE",
"163 8 OFFCURVE",
"158 43 CURVE",
"174 56 OFFCURVE",
"181 105 OFFCURVE",
"164 125 CURVE"
);
}
);
width = 238;
}
);
note = l;
unicode = 006C;
},
{
glyphname = lcaron;
layers = (
{
components = (
{
name = l;
}
);
layerId = "44398CD6-F961-4ECB-B01A-EEBF1DAB2450";
paths = (
{
closed = 1;
nodes = (
"350 686 OFFCURVE",
"345 711 OFFCURVE",
"328 723 CURVE",
"310 777 OFFCURVE",
"226 740 OFFCURVE",
"255 690 CURVE",
"248 676 OFFCURVE",
"250 658 OFFCURVE",
"260 646 CURVE",
"253 626 OFFCURVE",
"258 596 OFFCURVE",
"258 575 CURVE",
"249 556 OFFCURVE",
"237 538 OFFCURVE",
"250 516 CURVE",
"253 455 OFFCURVE",
"351 477 OFFCURVE",
"327 534 CURVE",
"340 552 OFFCURVE",
"337 577 OFFCURVE",
"337 598 CURVE",
"336 619 OFFCURVE",
"346 648 OFFCURVE",
"338 668 CURVE"
);
}
);
width = 400;
}
);
unicode = 013E;
},
{
glyphname = lslash;
layers = (
{
components = (
{
name = l;
}
);
layerId = "44398CD6-F961-4ECB-B01A-EEBF1DAB2450";
paths = (
{
closed = 1;
nodes = (
"1 260 OFFCURVE"
);
},
{
closed = 1;
nodes = (
"60 310 OFFCURVE",
"75 319 OFFCURVE",
"83 332 CURVE",
"98 333 OFFCURVE",
"117 350 OFFCURVE",
"127 362 CURVE",
"145 361 OFFCURVE",
"161 375 OFFCURVE",
"164 392 CURVE",
"183 388 OFFCURVE",
"201 397 OFFCURVE",
"209 414 CURVE",
"220 411 OFFCURVE",
"232 423 OFFCURVE",
"241 437 CURVE",
"277 466 OFFCURVE",
"232 523 OFFCURVE",
"195 479 CURVE",
"179 481 OFFCURVE",
"162 464 OFFCURVE",
"159 458 CURVE",
"141 457 OFFCURVE",
"116 445 OFFCURVE",
"110 427 CURVE",
"92 424 OFFCURVE",
"75 411 OFFCURVE",
"74 396 CURVE",
"57 397 OFFCURVE",
"40 387 OFFCURVE",
"34 371 CURVE",
"22 371 OFFCURVE",
"8 361 OFFCURVE",
"1 349 CURVE",
"-48 317 OFFCURVE",
"1 251 OFFCURVE",
"46 310 CURVE"
);
}
);
width = 247;
}
);
unicode = 0142;
},
{
glyphname = m;
layers = (
{
layerId = "44398CD6-F961-4ECB-B01A-EEBF1DAB2450";
paths = (
{
closed = 1;
nodes = (
"510 81 OFFCURVE",
"505 102 OFFCURVE",
"495 113 CURVE",
"501 131 OFFCURVE",
"498 159 OFFCURVE",
"488 173 CURVE",
"495 197 OFFCURVE",
"491 213 OFFCURVE",
"484 228 CURVE",
"488 238 OFFCURVE",
"489 250 OFFCURVE",
"486 260 CURVE",
"494 273 OFFCURVE",
"496 281 OFFCURVE",
"493 293 CURVE",
"500 323 OFFCURVE",
"504 334 OFFCURVE",
"497 356 CURVE",
"507 359 OFFCURVE",
"513 365 OFFCURVE",
"513 378 CURVE",
"531 382 OFFCURVE",
"539 381 OFFCURVE",
"542 397 CURVE",
"560 398 OFFCURVE",
"583 412 OFFCURVE",
"594 423 CURVE",
"611 420 OFFCURVE",
"627 427 OFFCURVE",
"638 439 CURVE",
"649 435 OFFCURVE",
"658 431 OFFCURVE",
"670 434 CURVE",
"671 426 OFFCURVE",
"706 412 OFFCURVE",
"715 415 CURVE",
"715 401 OFFCURVE",
"730 388 OFFCURVE",
"742 389 CURVE",
"740 374 OFFCURVE",
"736 341 OFFCURVE",
"746 334 CURVE",
"733 317 OFFCURVE",
"732 292 OFFCURVE",
"746 277 CURVE",
"735 258 OFFCURVE",
"733 245 OFFCURVE",
"744 234 CURVE",
"733 224 OFFCURVE",
"733 203 OFFCURVE",
"741 186 CURVE",
"735 174 OFFCURVE",
"727 158 OFFCURVE",
"733 147 CURVE",
"726 133 OFFCURVE",
"725 115 OFFCURVE",
"729 102 CURVE",
"716 88 OFFCURVE",
"713 68 OFFCURVE",
"720 51 CURVE",
"715 -16 OFFCURVE",
"822 -10 OFFCURVE",
"810 55 CURVE",
"828 70 OFFCURVE",
"831 96 OFFCURVE",
"819 114 CURVE",
"828 134 OFFCURVE",
"839 150 OFFCURVE",
"830 173 CURVE",
"842 189 OFFCURVE",
"840 213 OFFCURVE",
"826 229 CURVE",
"842 243 OFFCURVE",
"847 268 OFFCURVE",
"835 287 CURVE",
"850 304 OFFCURVE",
"848 323 OFFCURVE",
"833 333 CURVE",
"845 340 OFFCURVE",
"846 400 OFFCURVE",
"822 407 CURVE",
"841 438 OFFCURVE",
"792 474 OFFCURVE",
"768 460 CURVE",
"769 490 OFFCURVE",
"719 511 OFFCURVE",
"697 503 CURVE",
"681 518 OFFCURVE",
"639 537 OFFCURVE",
"594 504 CURVE",
"570 514 OFFCURVE",
"543 501 OFFCURVE",
"534 477 CURVE",
"514 484 OFFCURVE",
"496 471 OFFCURVE",
"489 448 CURVE",
"468 453 OFFCURVE",
"448 447 OFFCURVE",
"444 417 CURVE",
"440 433 OFFCURVE",
"435 449 OFFCURVE",
"420 447 CURVE",
"426 462 OFFCURVE",
"424 469 OFFCURVE",
"409 476 CURVE",
"408 490 OFFCURVE",
"402 499 OFFCURVE",
"384 500 CURVE",
"376 512 OFFCURVE",
"345 516 OFFCURVE",
"335 507 CURVE",
"327 518 OFFCURVE",
"315 522 OFFCURVE",
"302 517 CURVE",
"270 523 OFFCURVE",
"234 510 OFFCURVE",
"222 487 CURVE",
"207 486 OFFCURVE",
"191 476 OFFCURVE",
"179 463 CURVE",
"169 450 OFFCURVE",
"163 437 OFFCURVE",
"160 424 CURVE",
"161 435 OFFCURVE",
"156 474 OFFCURVE",
"148 484 CURVE",
"140 575 OFFCURVE",
"14 523 OFFCURVE",
"69 460 CURVE",
"53 425 OFFCURVE",
"65 391 OFFCURVE",
"80 369 CURVE",
"67 343 OFFCURVE",
"61 295 OFFCURVE",
"81 261 CURVE",
"72 242 OFFCURVE",
"81 176 OFFCURVE",
"91 159 CURVE",
"80 138 OFFCURVE",
"76 71 OFFCURVE",
"101 55 CURVE",
"89 -14 OFFCURVE",
"181 -18 OFFCURVE",
"177 51 CURVE",
"197 73 OFFCURVE",
"197 102 OFFCURVE",
"179 125 CURVE",
"186 138 OFFCURVE",
"187 185 OFFCURVE",
"170 198 CURVE",
"181 210 OFFCURVE",
"177 233 OFFCURVE",
"163 239 CURVE",
"181 263 OFFCURVE",
"168 296 OFFCURVE",
"160 311 CURVE",
"170 319 OFFCURVE",
"197 361 OFFCURVE",
"187 381 CURVE",
"207 380 OFFCURVE",
"233 395 OFFCURVE",
"237 416 CURVE",
"251 414 OFFCURVE",
"289 423 OFFCURVE",
"293 434 CURVE",
"306 429 OFFCURVE",
"318 429 OFFCURVE",
"329 429 CURVE",
"334 420 OFFCURVE",
"339 412 OFFCURVE",
"352 407 CURVE",
"352 387 OFFCURVE",
"371 369 OFFCURVE",
"388 360 CURVE",
"382 343 OFFCURVE",
"388 322 OFFCURVE",
"398 295 CURVE",
"376 257 OFFCURVE",
"388 231 OFFCURVE",
"397 209 CURVE",
"384 189 OFFCURVE",
"382 156 OFFCURVE",
"398 138 CURVE",
"389 108 OFFCURVE",
"393 102 OFFCURVE",
"412 78 CURVE",
"378 -26 OFFCURVE",
"524 -18 OFFCURVE",
"497 69 CURVE"
);
}
);
width = 888;
}
);
note = m;
unicode = 006D;
},
{
glyphname = n;
layers = (
{
layerId = "44398CD6-F961-4ECB-B01A-EEBF1DAB2450";
paths = (
{
closed = 1;
nodes = (
"256 428 OFFCURVE",
"256 428 OFFCURVE",
"256 428 CURVE",
"276 424 OFFCURVE",
"305 438 OFFCURVE",
"315 450 CURVE",
"324 441 OFFCURVE",
"339 443 OFFCURVE",
"350 443 CURVE",
"357 431 OFFCURVE",
"370 424 OFFCURVE",
"382 423 CURVE",
"381 401 OFFCURVE",
"395 370 OFFCURVE",
"409 358 CURVE",
"403 341 OFFCURVE",
"412 311 OFFCURVE",
"428 298 CURVE",
"418 274 OFFCURVE",
"410 250 OFFCURVE",
"425 223 CURVE",
"407 212 OFFCURVE",
"417 144 OFFCURVE",
"433 124 CURVE",
"411 103 OFFCURVE",
"412 54 OFFCURVE",
"423 27 CURVE",
"423 -15 OFFCURVE",
"506 -4 OFFCURVE",
"503 36 CURVE",
"516 49 OFFCURVE",
"517 81 OFFCURVE",
"506 105 CURVE",
"522 120 OFFCURVE",
"513 159 OFFCURVE",
"509 176 CURVE",
"523 195 OFFCURVE",
"521 229 OFFCURVE",
"510 248 CURVE",
"523 261 OFFCURVE",
"526 298 OFFCURVE",
"509 311 CURVE",
"521 349 OFFCURVE",
"516 363 OFFCURVE",
"491 376 CURVE",
"495 399 OFFCURVE",
"489 417 OFFCURVE",
"469 424 CURVE",
"485 456 OFFCURVE",
"457 490 OFFCURVE",
"436 491 CURVE",
"426 510 OFFCURVE",
"409 520 OFFCURVE",
"385 521 CURVE",
"375 547 OFFCURVE",
"325 547 OFFCURVE",
"313 536 CURVE",
"282 550 OFFCURVE",
"253 532 OFFCURVE",
"236 514 CURVE",
"214 519 OFFCURVE",
"169 491 OFFCURVE",
"168 450 CURVE",
"159 447 OFFCURVE",
"150 435 OFFCURVE",
"145 416 CURVE",
"150 445 OFFCURVE",
"147 459 OFFCURVE",
"134 472 CURVE",
"152 512 OFFCURVE",
"118 566 OFFCURVE",
"70 541 CURVE",
"39 525 OFFCURVE",
"40 483 OFFCURVE",
"62 458 CURVE",
"50 446 OFFCURVE",
"50 416 OFFCURVE",
"62 391 CURVE",
"53 379 OFFCURVE",
"55 342 OFFCURVE",
"64 323 CURVE",
"53 311 OFFCURVE",
"60 279 OFFCURVE",
"68 269 CURVE",
"49 248 OFFCURVE",
"51 218 OFFCURVE",
"69 198 CURVE",
"57 189 OFFCURVE",
"48 165 OFFCURVE",
"62 142 CURVE",
"54 126 OFFCURVE",
"55 109 OFFCURVE",
"66 95 CURVE",
"62 83 OFFCURVE",
"55 55 OFFCURVE",
"62 36 CURVE",
"60 -12 OFFCURVE",
"147 -11 OFFCURVE",
"147 36 CURVE",
"153 47 OFFCURVE",
"150 60 OFFCURVE",
"146 72 CURVE",
"157 85 OFFCURVE",
"157 113 OFFCURVE",
"152 123 CURVE",
"160 139 OFFCURVE",
"159 157 OFFCURVE",
"148 171 CURVE",
"153 187 OFFCURVE",
"157 214 OFFCURVE",
"149 229 CURVE",
"153 237 OFFCURVE",
"160 261 OFFCURVE",
"155 279 CURVE",
"164 302 OFFCURVE",
"166 317 OFFCURVE",
"166 333 CURVE",
"178 335 OFFCURVE",
"192 350 OFFCURVE",
"191 375 CURVE",
"207 377 OFFCURVE",
"222 382 OFFCURVE",
"228 399 CURVE",
"243 400 OFFCURVE",
"258 413 OFFCURVE",
"255 428 CURVE"
);
}
);
width = 566;
}
);
note = n;
unicode = 006E;
},
{
glyphname = o;
layers = (
{
layerId = "44398CD6-F961-4ECB-B01A-EEBF1DAB2450";
paths = (
{
closed = 1;
nodes = (
"340 7 OFFCURVE",
"358 16 OFFCURVE",
"370 33 CURVE",
"395 33 OFFCURVE",
"415 47 OFFCURVE",
"419 69 CURVE",
"443 75 OFFCURVE",
"458 91 OFFCURVE",
"452 120 CURVE",
"471 139 OFFCURVE",
"482 150 OFFCURVE",
"481 173 CURVE",
"494 184 OFFCURVE",
"504 207 OFFCURVE",
"496 230 CURVE",
"511 252 OFFCURVE",
"514 279 OFFCURVE",
"500 302 CURVE",
"502 345 OFFCURVE",
"494 382 OFFCURVE",
"461 389 CURVE",
"473 426 OFFCURVE",
"426 469 OFFCURVE",
"394 479 CURVE",
"390 494 OFFCURVE",
"361 514 OFFCURVE",
"339 514 CURVE",
"332 545 OFFCURVE",
"282 554 OFFCURVE",
"257 532 CURVE",
"236 544 OFFCURVE",
"190 532 OFFCURVE",
"178 503 CURVE",
"143 509 OFFCURVE",
"119 492 OFFCURVE",
"119 471 CURVE",
"99 473 OFFCURVE",
"67 446 OFFCURVE",
"73 413 CURVE",
"61 411 OFFCURVE",
"46 388 OFFCURVE",
"54 375 CURVE",
"41 367 OFFCURVE",
"32 349 OFFCURVE",
"35 330 CURVE",
"15 319 OFFCURVE",
"11 283 OFFCURVE",
"28 272 CURVE",
"8 252 OFFCURVE",
"13 214 OFFCURVE",
"25 196 CURVE",
"14 177 OFFCURVE",
"20 139 OFFCURVE",
"43 130 CURVE",
"41 102 OFFCURVE",
"58 80 OFFCURVE",
"79 75 CURVE",
"76 59 OFFCURVE",
"106 41 OFFCURVE",
"118 42 CURVE",
"126 27 OFFCURVE",
"143 17 OFFCURVE",
"164 22 CURVE",
"184 -1 OFFCURVE",
"226 0 OFFCURVE",
"252 6 CURVE",
"265 -1 OFFCURVE",
"303 -5 OFFCURVE",
"320 12 CURVE"
);
},
{
closed = 1;
nodes = (
"219 94 OFFCURVE",
"191 105 OFFCURVE",
"177 105 CURVE",
"169 119 OFFCURVE",
"155 127 OFFCURVE",
"140 129 CURVE",
"136 144 OFFCURVE",
"132 149 OFFCURVE",
"119 151 CURVE",
"134 185 OFFCURVE",
"121 215 OFFCURVE",
"100 229 CURVE",
"111 241 OFFCURVE",
"114 252 OFFCURVE",
"108 267 CURVE",
"116 277 OFFCURVE",
"117 291 OFFCURVE",
"113 302 CURVE",
"130 309 OFFCURVE",
"141 328 OFFCURVE",
"140 347 CURVE",
"155 359 OFFCURVE",
"163 380 OFFCURVE",
"156 398 CURVE",
"171 403 OFFCURVE",
"202 424 OFFCURVE",
"203 439 CURVE",
"221 436 OFFCURVE",
"248 447 OFFCURVE",
"262 461 CURVE",
"276 446 OFFCURVE",
"297 442 OFFCURVE",
"315 450 CURVE",
"315 428 OFFCURVE",
"344 415 OFFCURVE",
"357 419 CURVE",
"359 401 OFFCURVE",
"375 382 OFFCURVE",
"387 384 CURVE",
"387 341 OFFCURVE",
"395 333 OFFCURVE",
"420 318 CURVE",
"411 303 OFFCURVE",
"409 284 OFFCURVE",
"423 272 CURVE",
"406 259 OFFCURVE",
"400 236 OFFCURVE",
"407 217 CURVE",
"401 208 OFFCURVE",
"399 196 OFFCURVE",
"399 185 CURVE",
"387 179 OFFCURVE",
"376 166 OFFCURVE",
"376 148 CURVE",
"365 144 OFFCURVE",
"356 131 OFFCURVE",
"357 119 CURVE",
"339 124 OFFCURVE",
"322 115 OFFCURVE",
"310 103 CURVE",
"296 105 OFFCURVE",
"279 97 OFFCURVE",
"268 85 CURVE",
"266 91 OFFCURVE",
"236 91 OFFCURVE",
"226 82 CURVE"
);
}
);
width = 537;
}
);
note = o;
unicode = 006F;
},
{
glyphname = oslash;
layers = (
{
layerId = "44398CD6-F961-4ECB-B01A-EEBF1DAB2450";
paths = (
{
closed = 1;
nodes = (
"525 338 OFFCURVE",
"503 385 OFFCURVE",
"481 385 CURVE",
"487 400 OFFCURVE",
"481 414 OFFCURVE",
"467 414 CURVE",
"487 418 OFFCURVE",
"498 431 OFFCURVE",
"506 443 CURVE",
"559 487 OFFCURVE",
"491 565 OFFCURVE",
"444 506 CURVE",
"426 502 OFFCURVE",
"411 491 OFFCURVE",
"406 476 CURVE",
"399 505 OFFCURVE",
"375 526 OFFCURVE",
"345 522 CURVE",
"345 553 OFFCURVE",
"284 562 OFFCURVE",
"269 536 CURVE",
"246 546 OFFCURVE",
"208 536 OFFCURVE",
"193 507 CURVE",
"162 507 OFFCURVE",
"132 491 OFFCURVE",
"132 476 CURVE",
"116 476 OFFCURVE",
"86 446 OFFCURVE",
"86 414 CURVE",
"71 414 OFFCURVE",
"55 385 OFFCURVE",
"71 370 CURVE",
"55 370 OFFCURVE",
"40 338 OFFCURVE",
"55 324 CURVE",
"25 324 OFFCURVE",
"25 278 OFFCURVE",
"40 262 CURVE",
"25 248 OFFCURVE",
"25 217 OFFCURVE",
"40 186 CURVE",
"25 172 OFFCURVE",
"25 141 OFFCURVE",
"55 126 CURVE",
"55 112 OFFCURVE",
"71 80 OFFCURVE",
"86 80 CURVE",
"68 72 OFFCURVE",
"60 50 OFFCURVE",
"60 35 CURVE",
"30 19 OFFCURVE",
"10 -57 OFFCURVE",
"71 -57 CURVE",
"107 -57 OFFCURVE",
"144 -7 OFFCURVE",
"147 19 CURVE",
"153 11 OFFCURVE",
"169 12 OFFCURVE",
"177 19 CURVE",
"188 9 OFFCURVE",
"239 0 OFFCURVE",
"257 9 CURVE",
"278 1 OFFCURVE",
"323 5 OFFCURVE",
"330 19 CURVE",
"340 9 OFFCURVE",
"374 25 OFFCURVE",
"374 35 CURVE",
"392 32 OFFCURVE",
"421 53 OFFCURVE",
"421 65 CURVE",
"444 68 OFFCURVE",
"467 107 OFFCURVE",
"467 126 CURVE",
"483 131 OFFCURVE",
"489 156 OFFCURVE",
"481 172 CURVE",
"497 186 OFFCURVE",
"513 202 OFFCURVE",
"497 233 CURVE",
"513 248 OFFCURVE",
"524 285 OFFCURVE",
"513 309 CURVE"
);
},
{
closed = 1;
nodes = (
"144 274 OFFCURVE",
"132 293 CURVE",
"147 309 OFFCURVE",
"155 324 OFFCURVE",
"155 338 CURVE",
"170 354 OFFCURVE",
"177 370 OFFCURVE",
"177 385 CURVE",
"199 393 OFFCURVE",
"222 414 OFFCURVE",
"222 431 CURVE",
"238 431 OFFCURVE",
"269 431 OFFCURVE",
"269 446 CURVE",
"284 431 OFFCURVE",
"315 431 OFFCURVE",
"330 446 CURVE",
"328 431 OFFCURVE",
"343 421 OFFCURVE",
"358 421 CURVE",
"343 421 OFFCURVE",
"330 397 OFFCURVE",
"330 382 CURVE",
"310 372 OFFCURVE",
"294 361 OFFCURVE",
"294 331 CURVE",
"265 331 OFFCURVE",
"250 309 OFFCURVE",
"243 278 CURVE",
"227 278 OFFCURVE",
"208 262 OFFCURVE",
"208 233 CURVE",
"186 230 OFFCURVE",
"170 210 OFFCURVE",
"167 191 CURVE",
"155 187 OFFCURVE",
"143 175 OFFCURVE",
"138 150 CURVE",
"143 175 OFFCURVE",
"132 225 OFFCURVE",
"116 233 CURVE",
"133 233 OFFCURVE"
);
},
{
closed = 1;
nodes = (
"399 213 OFFCURVE",
"406 186 CURVE",
"391 186 OFFCURVE",
"382 172 OFFCURVE",
"382 156 CURVE",
"369 152 OFFCURVE",
"360 141 OFFCURVE",
"360 126 CURVE",
"345 126 OFFCURVE",
"334 122 OFFCURVE",
"326 112 CURVE",
"309 118 OFFCURVE",
"292 107 OFFCURVE",
"284 95 CURVE",
"272 105 OFFCURVE",
"254 103 OFFCURVE",
"238 95 CURVE",
"230 103 OFFCURVE",
"219 109 OFFCURVE",
"208 104 CURVE",
"229 114 OFFCURVE",
"248 135 OFFCURVE",
"246 157 CURVE",
"261 157 OFFCURVE",
"275 179 OFFCURVE",
"275 193 CURVE",
"290 193 OFFCURVE",
"315 202 OFFCURVE",
"315 233 CURVE",
"330 233 OFFCURVE",
"358 268 OFFCURVE",
"354 284 CURVE",
"369 289 OFFCURVE",
"391 324 OFFCURVE",
"391 338 CURVE",
"399 331 OFFCURVE",
"411 338 OFFCURVE",
"406 338 CURVE",
"406 338 OFFCURVE",
"408 309 OFFCURVE",
"428 309 CURVE",
"413 293 OFFCURVE",
"421 272 OFFCURVE",
"435 262 CURVE",
"416 249 OFFCURVE"
);
}
);
width = 537;
}
);
unicode = 00F8;
},
{
glyphname = oe;
layers = (
{
components = (
{
name = o;
}
);
layerId = "44398CD6-F961-4ECB-B01A-EEBF1DAB2450";
paths = (
{
closed = 1;
nodes = (
"820 147 OFFCURVE",
"769 139 OFFCURVE",
"748 114 CURVE",
"726 116 OFFCURVE",
"708 101 OFFCURVE",
"705 91 CURVE",
"695 96 OFFCURVE",
"683 96 OFFCURVE",
"672 92 CURVE",
"661 102 OFFCURVE",
"646 104 OFFCURVE",
"632 98 CURVE",
"630 108 OFFCURVE",
"600 112 OFFCURVE",
"592 103 CURVE",
"589 114 OFFCURVE",
"575 130 OFFCURVE",
"559 130 CURVE",
"555 151 OFFCURVE",
"537 159 OFFCURVE",
"534 162 CURVE",
"537 177 OFFCURVE",
"531 192 OFFCURVE",
"519 203 CURVE",
"529 215 OFFCURVE",
"529 237 OFFCURVE",
"528 247 CURVE",
"537 241 OFFCURVE",
"578 241 OFFCURVE",
"592 253 CURVE",
"612 245 OFFCURVE",
"634 246 OFFCURVE",
"653 254 CURVE",
"674 245 OFFCURVE",
"703 249 OFFCURVE",
"713 257 CURVE",
"728 240 OFFCURVE",
"780 247 OFFCURVE",
"797 260 CURVE",
"828 247 OFFCURVE",
"860 257 OFFCURVE",
"875 284 CURVE",
"930 306 OFFCURVE",
"900 383 OFFCURVE",
"875 394 CURVE",
"890 462 OFFCURVE",
"823 500 OFFCURVE",
"795 494 CURVE",
"791 526 OFFCURVE",
"761 531 OFFCURVE",
"740 533 CURVE",
"742 543 OFFCURVE",
"721 550 OFFCURVE",
"703 547 CURVE",
"692 551 OFFCURVE",
"672 550 OFFCURVE",
"663 539 CURVE",
"649 536 OFFCURVE",
"637 531 OFFCURVE",
"631 521 CURVE",
"621 525 OFFCURVE",
"587 515 OFFCURVE",
"585 500 CURVE",
"566 501 OFFCURVE",
"530 476 OFFCURVE",
"530 452 CURVE",
"489 443 OFFCURVE",
"485 414 OFFCURVE",
"488 391 CURVE",
"469 388 OFFCURVE",
"450 348 OFFCURVE",
"454 338 CURVE",
"444 331 OFFCURVE",
"423 288 OFFCURVE",
"439 261 CURVE",
"427 239 OFFCURVE",
"432 201 OFFCURVE",
"439 181 CURVE",
"435 171 OFFCURVE",
"442 150 OFFCURVE",
"448 148 CURVE",
"447 144 OFFCURVE",
"447 138 OFFCURVE",
"448 133 CURVE",
"451 116 OFFCURVE",
"461 105 OFFCURVE",
"476 100 CURVE",
"479 84 OFFCURVE",
"509 51 OFFCURVE",
"529 51 CURVE",
"542 25 OFFCURVE",
"566 17 OFFCURVE",
"598 20 CURVE",
"608 10 OFFCURVE",
"624 7 OFFCURVE",
"638 12 CURVE",
"653 0 OFFCURVE",
"690 2 OFFCURVE",
"703 14 CURVE",
"724 8 OFFCURVE",
"748 13 OFFCURVE",
"762 30 CURVE",
"779 29 OFFCURVE",
"804 48 OFFCURVE",
"819 57 CURVE",
"840 70 OFFCURVE",
"847 92 OFFCURVE",
"837 114 CURVE"
);
},
{
closed = 1;
nodes = (
"675 448 OFFCURVE",
"697 453 OFFCURVE",
"704 460 CURVE",
"706 447 OFFCURVE",
"735 433 OFFCURVE",
"741 437 CURVE",
"754 421 OFFCURVE",
"767 391 OFFCURVE",
"793 394 CURVE",
"784 379 OFFCURVE",
"799 343 OFFCURVE",
"812 338 CURVE",
"799 344 OFFCURVE",
"743 348 OFFCURVE",
"728 328 CURVE",
"697 356 OFFCURVE",
"655 341 OFFCURVE",
"632 328 CURVE",
"621 337 OFFCURVE",
"572 346 OFFCURVE",
"549 328 CURVE",
"548 328 OFFCURVE",
"547 328 OFFCURVE",
"545 329 CURVE",
"559 341 OFFCURVE",
"576 368 OFFCURVE",
"580 387 CURVE",
"604 396 OFFCURVE",
"617 414 OFFCURVE",
"629 436 CURVE",
"646 433 OFFCURVE",
"663 444 OFFCURVE",
"667 449 CURVE"
);
}
);
width = 922;
}
);
unicode = 0153;
},
{
glyphname = p;
layers = (
{
layerId = "44398CD6-F961-4ECB-B01A-EEBF1DAB2450";
paths = (
{
closed = 1;
nodes = (
"419 372 OFFCURVE",
"419 418 OFFCURVE",
"394 431 CURVE",
"393 453 OFFCURVE",
"389 478 OFFCURVE",
"372 494 CURVE",
"369 504 OFFCURVE",
"366 511 OFFCURVE",
"353 512 CURVE",
"351 519 OFFCURVE",
"341 527 OFFCURVE",
"330 527 CURVE",
"318 541 OFFCURVE",
"310 541 OFFCURVE",
"296 541 CURVE",
"291 548 OFFCURVE",
"269 559 OFFCURVE",
"252 553 CURVE",
"229 557 OFFCURVE",
"201 559 OFFCURVE",
"189 544 CURVE",
"170 546 OFFCURVE",
"153 540 OFFCURVE",
"144 527 CURVE",
"144 527 OFFCURVE",
"141 529 OFFCURVE",
"139 530 CURVE",
"127 580 OFFCURVE",
"48 555 OFFCURVE",
"59 509 CURVE",
"45 489 OFFCURVE",
"51 445 OFFCURVE",
"62 420 CURVE",
"50 405 OFFCURVE",
"48 368 OFFCURVE",
"59 350 CURVE",
"51 339 OFFCURVE",
"51 326 OFFCURVE",
"57 313 CURVE",
"39 291 OFFCURVE",
"52 260 OFFCURVE",
"62 239 CURVE",
"52 223 OFFCURVE",
"53 174 OFFCURVE",
"64 158 CURVE",
"58 138 OFFCURVE",
"41 124 OFFCURVE",
"56 97 CURVE",
"45 78 OFFCURVE",
"56 62 OFFCURVE",
"61 44 CURVE",
"50 31 OFFCURVE",
"51 -3 OFFCURVE",
"62 -14 CURVE",
"51 -41 OFFCURVE",
"51 -77 OFFCURVE",
"64 -102 CURVE",
"52 -107 OFFCURVE",
"55 -153 OFFCURVE",
"63 -163 CURVE",
"80 -226 OFFCURVE",
"171 -212 OFFCURVE",
"143 -123 CURVE",
"160 -107 OFFCURVE",
"152 -72 OFFCURVE",
"139 -60 CURVE",
"151 -48 OFFCURVE",
"154 -18 OFFCURVE",
"144 -4 CURVE",
"152 4 OFFCURVE",
"149 15 OFFCURVE",
"152 25 CURVE",
"161 17 OFFCURVE",
"180 14 OFFCURVE",
"195 18 CURVE",
"210 4 OFFCURVE",
"247 -2 OFFCURVE",
"265 10 CURVE",
"290 0 OFFCURVE",
"328 10 OFFCURVE",
"340 31 CURVE",
"361 34 OFFCURVE",
"391 66 OFFCURVE",
"391 88 CURVE",
"407 102 OFFCURVE",
"421 151 OFFCURVE",
"411 167 CURVE",
"429 182 OFFCURVE",
"432 201 OFFCURVE",
"426 218 CURVE",
"439 234 OFFCURVE",
"433 306 OFFCURVE",
"422 311 CURVE",
"427 324 OFFCURVE",
"423 346 OFFCURVE",
"412 356 CURVE"
);
},
{
closed = 1;
nodes = (
"254 94 OFFCURVE",
"225 94 OFFCURVE",
"214 91 CURVE",
"200 102 OFFCURVE",
"164 110 OFFCURVE",
"149 108 CURVE",
"152 119 OFFCURVE",
"151 142 OFFCURVE",
"145 151 CURVE",
"153 167 OFFCURVE",
"153 205 OFFCURVE",
"144 222 CURVE",
"155 239 OFFCURVE",
"153 293 OFFCURVE",
"144 310 CURVE",
"155 326 OFFCURVE",
"153 372 OFFCURVE",
"143 385 CURVE",
"150 400 OFFCURVE",
"154 439 OFFCURVE",
"141 460 CURVE",
"160 448 OFFCURVE",
"180 453 OFFCURVE",
"198 464 CURVE",
"210 460 OFFCURVE",
"235 461 OFFCURVE",
"242 466 CURVE",
"251 461 OFFCURVE",
"259 456 OFFCURVE",
"269 456 CURVE",
"275 448 OFFCURVE",
"289 434 OFFCURVE",
"301 430 CURVE",
"299 412 OFFCURVE",
"305 385 OFFCURVE",
"316 374 CURVE",
"307 350 OFFCURVE",
"318 298 OFFCURVE",
"336 283 CURVE",
"332 276 OFFCURVE",
"335 231 OFFCURVE",
"337 222 CURVE",
"315 204 OFFCURVE",
"317 180 OFFCURVE",
"321 165 CURVE",
"312 154 OFFCURVE",
"304 141 OFFCURVE",
"304 121 CURVE",
"290 119 OFFCURVE",
"271 106 OFFCURVE",
"264 91 CURVE"
);
}
);
width = 472;
}
);
note = p;
unicode = 0070;
},
{
glyphname = thorn;
layers = (
{
layerId = "44398CD6-F961-4ECB-B01A-EEBF1DAB2450";
paths = (
{
closed = 1;
nodes = (
"499 328 OFFCURVE",
"493 367 OFFCURVE",
"491 375 CURVE",
"497 405 OFFCURVE",
"481 435 OFFCURVE",
"461 436 CURVE",
"463 449 OFFCURVE",
"446 474 OFFCURVE",
"427 482 CURVE",
"422 499 OFFCURVE",
"393 520 OFFCURVE",
"359 502 CURVE",
"348 506 OFFCURVE",
"295 502 OFFCURVE",
"285 494 CURVE",
"270 505 OFFCURVE",
"236 500 OFFCURVE",
"219 490 CURVE",
"208 495 OFFCURVE",
"188 495 OFFCURVE",
"170 492 CURVE",
"176 505 OFFCURVE",
"175 521 OFFCURVE",
"170 541 CURVE",
"178 562 OFFCURVE",
"179 611 OFFCURVE",
"168 630 CURVE",
"179 652 OFFCURVE",
"169 700 OFFCURVE",
"126 700 CURVE",
"90 699 OFFCURVE",
"82 655 OFFCURVE",
"89 630 CURVE",
"78 619 OFFCURVE",
"78 576 OFFCURVE",
"89 561 CURVE",
"80 551 OFFCURVE",
"81 495 OFFCURVE",
"91 479 CURVE",
"83 471 OFFCURVE",
"84 451 OFFCURVE",
"92 440 CURVE",
"84 434 OFFCURVE",
"82 386 OFFCURVE",
"91 373 CURVE",
"83 364 OFFCURVE",
"84 338 OFFCURVE",
"90 324 CURVE",
"79 308 OFFCURVE",
"79 251 OFFCURVE",
"89 230 CURVE",
"81 217 OFFCURVE",
"86 197 OFFCURVE",
"94 180 CURVE",
"82 174 OFFCURVE",
"83 143 OFFCURVE",
"89 130 CURVE",
"82 118 OFFCURVE",
"81 104 OFFCURVE",
"90 92 CURVE",
"82 78 OFFCURVE",
"82 36 OFFCURVE",
"89 23 CURVE",
"87 15 OFFCURVE",
"88 7 OFFCURVE",
"90 -1 CURVE",
"79 -15 OFFCURVE",
"80 -48 OFFCURVE",
"90 -63 CURVE",
"76 -97 OFFCURVE",
"98 -127 OFFCURVE",
"138 -127 CURVE",
"177 -127 OFFCURVE",
"178 -75 OFFCURVE",
"164 -48 CURVE",
"178 -33 OFFCURVE",
"174 -1 OFFCURVE",
"170 13 CURVE",
"178 25 OFFCURVE",
"177 67 OFFCURVE",
"168 83 CURVE",
"179 78 OFFCURVE",
"197 75 OFFCURVE",
"205 84 CURVE",
"218 85 OFFCURVE",
"227 82 OFFCURVE",
"241 87 CURVE",
"260 81 OFFCURVE",
"291 84 OFFCURVE",
"308 95 CURVE",
"330 88 OFFCURVE",
"377 100 OFFCURVE",
"391 115 CURVE",
"406 117 OFFCURVE",
"419 128 OFFCURVE",
"423 142 CURVE",
"449 148 OFFCURVE",
"477 173 OFFCURVE",
"481 193 CURVE",
"491 202 OFFCURVE",
"498 243 OFFCURVE",
"493 254 CURVE",
"498 270 OFFCURVE",
"505 297 OFFCURVE",
"493 311 CURVE"
);
},
{
closed = 1;
nodes = (
"402 263 OFFCURVE",
"392 237 OFFCURVE",
"396 226 CURVE",
"378 227 OFFCURVE",
"361 217 OFFCURVE",
"353 197 CURVE",
"343 195 OFFCURVE",
"315 187 OFFCURVE",
"301 179 CURVE",
"284 184 OFFCURVE",
"243 181 OFFCURVE",
"227 172 CURVE",
"215 179 OFFCURVE",
"196 182 OFFCURVE",
"183 176 CURVE",
"186 188 OFFCURVE",
"187 201 OFFCURVE",
"181 212 CURVE",
"186 233 OFFCURVE",
"184 254 OFFCURVE",
"178 270 CURVE",
"186 280 OFFCURVE",
"191 326 OFFCURVE",
"181 344 CURVE",
"187 355 OFFCURVE",
"193 385 OFFCURVE",
"185 402 CURVE",
"199 398 OFFCURVE",
"215 403 OFFCURVE",
"221 409 CURVE",
"235 402 OFFCURVE",
"245 403 OFFCURVE",
"257 410 CURVE",
"276 400 OFFCURVE",
"311 399 OFFCURVE",
"328 410 CURVE",
"335 407 OFFCURVE",
"359 406 OFFCURVE",
"366 408 CURVE",
"372 394 OFFCURVE",
"376 391 OFFCURVE",
"387 385 CURVE",
"387 374 OFFCURVE",
"394 368 OFFCURVE",
"401 363 CURVE",
"397 353 OFFCURVE",
"402 322 OFFCURVE",
"409 310 CURVE",
"404 301 OFFCURVE",
"405 281 OFFCURVE",
"409 272 CURVE"
);
}
);
width = 600;
}
);
unicode = 00FE;
},
{
glyphname = q;
layers = (
{
layerId = "44398CD6-F961-4ECB-B01A-EEBF1DAB2450";
paths = (
{
closed = 1;
nodes = (
"32 224 OFFCURVE",
"28 202 OFFCURVE",
"41 182 CURVE",
"35 165 OFFCURVE",
"40 144 OFFCURVE",
"52 129 CURVE",
"56 106 OFFCURVE",
"77 94 OFFCURVE",
"96 91 CURVE",
"107 63 OFFCURVE",
"128 48 OFFCURVE",
"158 41 CURVE",
"173 18 OFFCURVE",
"219 5 OFFCURVE",
"237 10 CURVE",
"255 -1 OFFCURVE",
"276 -6 OFFCURVE",
"298 12 CURVE",
"308 5 OFFCURVE",
"320 6 OFFCURVE",
"331 14 CURVE",
"325 -4 OFFCURVE",
"329 -34 OFFCURVE",
"332 -47 CURVE",
"315 -64 OFFCURVE",
"321 -108 OFFCURVE",
"339 -124 CURVE",
"330 -161 OFFCURVE",
"346 -204 OFFCURVE",
"383 -193 CURVE",
"426 -184 OFFCURVE",
"424 -104 OFFCURVE",
"408 -80 CURVE",
"414 -67 OFFCURVE",
"415 -25 OFFCURVE",
"407 -7 CURVE",
"413 9 OFFCURVE",
"410 23 OFFCURVE",
"406 41 CURVE",
"420 41 OFFCURVE",
"454 54 OFFCURVE",
"447 81 CURVE",
"454 102 OFFCURVE",
"433 130 OFFCURVE",
"419 129 CURVE",
"427 154 OFFCURVE",
"421 188 OFFCURVE",
"412 203 CURVE",
"421 219 OFFCURVE",
"419 240 OFFCURVE",
"405 254 CURVE",
"410 272 OFFCURVE",
"422 278 OFFCURVE",
"415 299 CURVE",
"432 318 OFFCURVE",
"429 347 OFFCURVE",
"409 362 CURVE",
"426 381 OFFCURVE",
"437 416 OFFCURVE",
"419 438 CURVE",
"426 457 OFFCURVE",
"419 474 OFFCURVE",
"419 492 CURVE",
"418 506 OFFCURVE",
"425 514 OFFCURVE",
"420 528 CURVE",
"408 564 OFFCURVE",
"368 569 OFFCURVE",
"350 535 CURVE",
"313 557 OFFCURVE",
"274 559 OFFCURVE",
"234 550 CURVE",
"224 547 OFFCURVE",
"212 542 OFFCURVE",
"208 537 CURVE",
"197 537 OFFCURVE",
"187 536 OFFCURVE",
"175 531 CURVE",
"155 523 OFFCURVE",
"140 512 OFFCURVE",
"133 494 CURVE",
"108 492 OFFCURVE",
"94 471 OFFCURVE",
"93 458 CURVE",
"84 451 OFFCURVE",
"78 445 OFFCURVE",
"76 435 CURVE",
"64 434 OFFCURVE",
"58 426 OFFCURVE",
"52 415 CURVE",
"40 396 OFFCURVE",
"33 383 OFFCURVE",
"37 360 CURVE",
"23 339 OFFCURVE",
"26 314 OFFCURVE",
"33 296 CURVE",
"26 280 OFFCURVE",
"27 249 OFFCURVE",
"39 238 CURVE"
);
},
{
closed = 1;
nodes = (
"252 463 OFFCURVE",
"262 464 OFFCURVE",
"273 471 CURVE",
"278 467 OFFCURVE",
"293 467 OFFCURVE",
"302 472 CURVE",
"311 465 OFFCURVE",
"332 464 OFFCURVE",
"343 467 CURVE",
"339 458 OFFCURVE",
"339 414 OFFCURVE",
"344 407 CURVE",
"333 383 OFFCURVE",
"322 359 OFFCURVE",
"334 332 CURVE",
"324 318 OFFCURVE",
"324 299 OFFCURVE",
"332 285 CURVE",
"325 269 OFFCURVE",
"322 238 OFFCURVE",
"331 223 CURVE",
"324 211 OFFCURVE",
"324 195 OFFCURVE",
"331 183 CURVE",
"317 159 OFFCURVE",
"326 144 OFFCURVE",
"339 128 CURVE",
"333 123 OFFCURVE",
"329 113 OFFCURVE",
"329 108 CURVE",
"320 108 OFFCURVE",
"307 103 OFFCURVE",
"297 96 CURVE",
"283 103 OFFCURVE",
"265 106 OFFCURVE",
"252 98 CURVE",
"237 104 OFFCURVE",
"222 108 OFFCURVE",
"204 102 CURVE",
"193 118 OFFCURVE",
"177 129 OFFCURVE",
"159 132 CURVE",
"155 150 OFFCURVE",
"132 169 OFFCURVE",
"118 178 CURVE",
"119 186 OFFCURVE",
"117 195 OFFCURVE",
"113 202 CURVE",
"124 220 OFFCURVE",
"119 256 OFFCURVE",
"106 271 CURVE",
"111 285 OFFCURVE",
"111 312 OFFCURVE",
"105 325 CURVE",
"119 338 OFFCURVE",
"126 351 OFFCURVE",
"124 370 CURVE",
"138 381 OFFCURVE",
"155 397 OFFCURVE",
"162 412 CURVE",
"178 423 OFFCURVE",
"184 428 OFFCURVE",
"190 443 CURVE",
"207 441 OFFCURVE",
"240 450 OFFCURVE",
"242 465 CURVE"
);
}
);
width = 468;
}
);
note = q;
unicode = 0071;
},
{
glyphname = r;
layers = (
{
layerId = "44398CD6-F961-4ECB-B01A-EEBF1DAB2450";
paths = (
{
closed = 1;
nodes = (
"145 60 OFFCURVE",
"147 78 OFFCURVE",
"139 93 CURVE",
"148 108 OFFCURVE",
"145 134 OFFCURVE",
"138 150 CURVE",
"147 164 OFFCURVE",
"148 182 OFFCURVE",
"139 196 CURVE",
"147 211 OFFCURVE",
"148 221 OFFCURVE",
"141 236 CURVE",
"146 247 OFFCURVE",
"147 255 OFFCURVE",
"144 267 CURVE",
"141 275 OFFCURVE",
"138 278 OFFCURVE",
"132 288 CURVE",
"148 307 OFFCURVE",
"137 340 OFFCURVE",
"132 352 CURVE",
"145 361 OFFCURVE",
"154 387 OFFCURVE",
"150 406 CURVE",
"162 406 OFFCURVE",
"176 408 OFFCURVE",
"181 420 CURVE",
"192 419 OFFCURVE",
"202 422 OFFCURVE",
"211 428 CURVE",
"221 423 OFFCURVE",
"231 421 OFFCURVE",
"240 425 CURVE",
"248 416 OFFCURVE",
"255 414 OFFCURVE",
"269 414 CURVE",
"305 358 OFFCURVE",
"384 435 OFFCURVE",
"328 472 CURVE",
"318 496 OFFCURVE",
"298 498 OFFCURVE",
"281 497 CURVE",
"273 506 OFFCURVE",
"261 509 OFFCURVE",
"246 508 CURVE",
"235 523 OFFCURVE",
"223 531 OFFCURVE",
"204 521 CURVE",
"189 529 OFFCURVE",
"160 515 OFFCURVE",
"157 508 CURVE",
"130 508 OFFCURVE",
"131 499 OFFCURVE",
"121 493 CURVE",
"133 584 OFFCURVE",
"55 583 OFFCURVE",
"52 535 CURVE",
"31 527 OFFCURVE",
"35 497 OFFCURVE",
"44 479 CURVE",
"36 459 OFFCURVE",
"32 444 OFFCURVE",
"49 427 CURVE",
"39 411 OFFCURVE",
"37 395 OFFCURVE",
"45 378 CURVE",
"30 354 OFFCURVE",
"43 328 OFFCURVE",
"55 317 CURVE",
"44 301 OFFCURVE",
"47 264 OFFCURVE",
"59 249 CURVE",
"56 241 OFFCURVE",
"56 232 OFFCURVE",
"58 225 CURVE",
"42 210 OFFCURVE",
"40 185 OFFCURVE",
"53 168 CURVE",
"47 153 OFFCURVE",
"47 125 OFFCURVE",
"61 116 CURVE",
"53 104 OFFCURVE",
"57 79 OFFCURVE",
"62 67 CURVE",
"27 -14 OFFCURVE",
"145 -23 OFFCURVE",
"135 47 CURVE"
);
}
);
width = 357;
}
);
note = r;
unicode = 0072;
},
{
glyphname = s;
layers = (
{
layerId = "44398CD6-F961-4ECB-B01A-EEBF1DAB2450";
paths = (
{
closed = 1;
nodes = (
"424 125 OFFCURVE",
"430 156 OFFCURVE",
"408 171 CURVE",
"417 186 OFFCURVE",
"403 211 OFFCURVE",
"392 209 CURVE",
"395 228 OFFCURVE",
"381 242 OFFCURVE",
"370 242 CURVE",
"369 263 OFFCURVE",
"336 282 OFFCURVE",
"310 272 CURVE",
"301 289 OFFCURVE",
"276 293 OFFCURVE",
"258 292 CURVE",
"246 328 OFFCURVE",
"208 328 OFFCURVE",
"198 326 CURVE",
"191 344 OFFCURVE",
"164 346 OFFCURVE",
"152 344 CURVE",
"153 357 OFFCURVE",
"148 376 OFFCURVE",
"132 383 CURVE",
"147 394 OFFCURVE",
"152 411 OFFCURVE",
"145 428 CURVE",
"164 425 OFFCURVE",
"175 437 OFFCURVE",
"173 452 CURVE",
"189 442 OFFCURVE",
"216 449 OFFCURVE",
"230 461 CURVE",
"246 454 OFFCURVE",
"258 452 OFFCURVE",
"272 460 CURVE",
"280 445 OFFCURVE",
"290 434 OFFCURVE",
"317 437 CURVE",
"319 417 OFFCURVE",
"340 406 OFFCURVE",
"354 404 CURVE",
"357 391 OFFCURVE",
"370 381 OFFCURVE",
"391 379 CURVE",
"429 379 OFFCURVE",
"451 432 OFFCURVE",
"403 460 CURVE",
"408 477 OFFCURVE",
"379 496 OFFCURVE",
"360 494 CURVE",
"354 515 OFFCURVE",
"329 531 OFFCURVE",
"310 521 CURVE",
"301 538 OFFCURVE",
"260 543 OFFCURVE",
"249 532 CURVE",
"238 545 OFFCURVE",
"202 545 OFFCURVE",
"198 531 CURVE",
"189 545 OFFCURVE",
"152 545 OFFCURVE",
"138 522 CURVE",
"117 526 OFFCURVE",
"77 507 OFFCURVE",
"81 473 CURVE",
"61 477 OFFCURVE",
"48 443 OFFCURVE",
"58 415 CURVE",
"43 397 OFFCURVE",
"43 378 OFFCURVE",
"51 364 CURVE",
"40 357 OFFCURVE",
"50 318 OFFCURVE",
"73 305 CURVE",
"73 282 OFFCURVE",
"108 262 OFFCURVE",
"125 267 CURVE",
"132 251 OFFCURVE",
"173 229 OFFCURVE",
"199 239 CURVE",
"211 214 OFFCURVE",
"241 199 OFFCURVE",
"267 201 CURVE",
"278 188 OFFCURVE",
"294 183 OFFCURVE",
"310 188 CURVE",
"309 173 OFFCURVE",
"320 161 OFFCURVE",
"335 156 CURVE",
"317 143 OFFCURVE",
"320 114 OFFCURVE",
"327 105 CURVE",
"317 104 OFFCURVE",
"297 98 OFFCURVE",
"292 92 CURVE",
"279 92 OFFCURVE",
"253 88 OFFCURVE",
"242 80 CURVE",
"238 89 OFFCURVE",
"208 95 OFFCURVE",
"186 95 CURVE",
"178 119 OFFCURVE",
"147 119 OFFCURVE",
"134 121 CURVE",
"134 138 OFFCURVE",
"112 164 OFFCURVE",
"87 161 CURVE",
"58 203 OFFCURVE",
"13 152 OFFCURVE",
"36 123 CURVE",
"37 97 OFFCURVE",
"55 78 OFFCURVE",
"78 71 CURVE",
"87 51 OFFCURVE",
"126 24 OFFCURVE",
"154 28 CURVE",
"164 -3 OFFCURVE",
"230 -6 OFFCURVE",
"258 7 CURVE",
"275 -9 OFFCURVE",
"348 10 OFFCURVE",
"357 26 CURVE",
"372 26 OFFCURVE",
"398 49 OFFCURVE",
"395 71 CURVE",
"412 79 OFFCURVE",
"414 96 OFFCURVE",
"408 118 CURVE"
);
}
);
width = 447;
}
);
note = s;
unicode = 0073;
},
{
glyphname = germandbls;
layers = (
{
layerId = "44398CD6-F961-4ECB-B01A-EEBF1DAB2450";
paths = (
{
closed = 1;
nodes = (
"516 239 OFFCURVE",
"504 280 OFFCURVE",
"488 293 CURVE",
"494 327 OFFCURVE",
"443 374 OFFCURVE",
"409 360 CURVE",
"397 369 OFFCURVE",
"365 386 OFFCURVE",
"350 383 CURVE",
"343 391 OFFCURVE",
"335 395 OFFCURVE",
"327 402 CURVE",
"327 404 OFFCURVE",
"326 407 OFFCURVE",
"324 409 CURVE",
"337 412 OFFCURVE",
"346 421 OFFCURVE",
"351 433 CURVE",
"369 425 OFFCURVE",
"392 434 OFFCURVE",
"401 451 CURVE",
"426 441 OFFCURVE",
"456 459 OFFCURVE",
"456 487 CURVE",
"469 494 OFFCURVE",
"473 508 OFFCURVE",
"474 522 CURVE",
"484 528 OFFCURVE",
"486 548 OFFCURVE",
"482 559 CURVE",
"494 572 OFFCURVE",
"481 629 OFFCURVE",
"454 642 CURVE",
"432 682 OFFCURVE",
"393 710 OFFCURVE",
"337 693 CURVE",
"329 701 OFFCURVE",
"316 704 OFFCURVE",
"304 701 CURVE",
"283 725 OFFCURVE",
"235 714 OFFCURVE",
"222 695 CURVE",
"186 710 OFFCURVE",
"144 684 OFFCURVE",
"137 663 CURVE",
"118 659 OFFCURVE",
"85 651 OFFCURVE",
"83 615 CURVE",
"78 610 OFFCURVE",
"75 604 OFFCURVE",
"74 595 CURVE",
"54 587 OFFCURVE",
"44 564 OFFCURVE",
"51 544 CURVE",
"36 525 OFFCURVE",
"36 489 OFFCURVE",
"41 467 CURVE",
"36 446 OFFCURVE",
"34 425 OFFCURVE",
"40 403 CURVE",
"28 394 OFFCURVE",
"19 374 OFFCURVE",
"36 352 CURVE",
"31 338 OFFCURVE",
"33 322 OFFCURVE",
"42 311 CURVE",
"33 303 OFFCURVE",
"34 283 OFFCURVE",
"44 271 CURVE",
"37 260 OFFCURVE",
"38 238 OFFCURVE",
"54 228 CURVE",
"45 216 OFFCURVE",
"37 174 OFFCURVE",
"57 158 CURVE",
"54 149 OFFCURVE",
"58 143 OFFCURVE",
"62 133 CURVE",
"54 119 OFFCURVE",
"55 99 OFFCURVE",
"67 86 CURVE",
"65 76 OFFCURVE",
"66 64 OFFCURVE",
"72 54 CURVE",
"50 3 OFFCURVE",
"134 -25 OFFCURVE",
"147 29 CURVE",
"167 44 OFFCURVE",
"167 75 OFFCURVE",
"148 90 CURVE",
"150 101 OFFCURVE",
"147 111 OFFCURVE",
"140 119 CURVE",
"147 135 OFFCURVE",
"137 177 OFFCURVE",
"129 190 CURVE",
"138 211 OFFCURVE",
"137 258 OFFCURVE",
"119 273 CURVE",
"129 286 OFFCURVE",
"130 320 OFFCURVE",
"118 334 CURVE",
"129 348 OFFCURVE",
"129 395 OFFCURVE",
"117 408 CURVE",
"126 438 OFFCURVE",
"129 455 OFFCURVE",
"117 484 CURVE",
"122 494 OFFCURVE",
"122 500 OFFCURVE",
"121 509 CURVE",
"127 517 OFFCURVE",
"131 526 OFFCURVE",
"130 539 CURVE",
"148 552 OFFCURVE",
"160 568 OFFCURVE",
"163 590 CURVE",
"181 595 OFFCURVE",
"202 604 OFFCURVE",
"211 619 CURVE",
"233 608 OFFCURVE",
"262 620 OFFCURVE",
"270 632 CURVE",
"279 625 OFFCURVE",
"290 623 OFFCURVE",
"300 624 CURVE",
"316 606 OFFCURVE",
"346 610 OFFCURVE",
"365 620 CURVE",
"372 611 OFFCURVE",
"379 603 OFFCURVE",
"389 599 CURVE",
"390 589 OFFCURVE",
"396 580 OFFCURVE",
"402 569 CURVE",
"393 560 OFFCURVE",
"393 547 OFFCURVE",
"397 532 CURVE",
"379 534 OFFCURVE",
"358 526 OFFCURVE",
"347 511 CURVE",
"335 511 OFFCURVE",
"318 511 OFFCURVE",
"309 506 CURVE",
"296 500 OFFCURVE",
"288 491 OFFCURVE",
"283 479 CURVE",
"270 475 OFFCURVE",
"263 468 OFFCURVE",
"253 454 CURVE",
"241 445 OFFCURVE",
"233 430 OFFCURVE",
"239 412 CURVE",
"235 383 OFFCURVE",
"248 362 OFFCURVE",
"270 349 CURVE",
"280 326 OFFCURVE",
"314 303 OFFCURVE",
"341 306 CURVE",
"354 294 OFFCURVE",
"392 279 OFFCURVE",
"409 281 CURVE",
"405 263 OFFCURVE",
"414 246 OFFCURVE",
"431 238 CURVE",
"426 228 OFFCURVE",
"427 207 OFFCURVE",
"437 191 CURVE",
"422 183 OFFCURVE",
"414 160 OFFCURVE",
"409 143 CURVE",
"398 143 OFFCURVE",
"379 130 OFFCURVE",
"372 123 CURVE",
"364 124 OFFCURVE",
"358 123 OFFCURVE",
"350 120 CURVE",
"343 135 OFFCURVE",
"322 147 OFFCURVE",
"300 144 CURVE",
"240 167 OFFCURVE",
"224 63 OFFCURVE",
"288 68 CURVE",
"292 54 OFFCURVE",
"310 46 OFFCURVE",
"322 43 CURVE",
"331 33 OFFCURVE",
"344 34 OFFCURVE",
"354 35 CURVE",
"360 33 OFFCURVE",
"375 35 OFFCURVE",
"379 41 CURVE",
"386 38 OFFCURVE",
"399 42 OFFCURVE",
"403 47 CURVE",
"419 51 OFFCURVE",
"427 56 OFFCURVE",
"436 67 CURVE",
"460 77 OFFCURVE",
"471 93 OFFCURVE",
"477 115 CURVE",
"504 130 OFFCURVE",
"521 162 OFFCURVE",
"516 195 CURVE",
"520 207 OFFCURVE",
"517 217 OFFCURVE",
"509 221 CURVE"
);
}
);
width = 545;
}
);
unicode = 00DF;
},
{
glyphname = t;
layers = (
{
layerId = "44398CD6-F961-4ECB-B01A-EEBF1DAB2450";
paths = (
{
closed = 1;
nodes = (
"332 89 OFFCURVE",
"324 88 OFFCURVE",
"316 86 CURVE",
"309 93 OFFCURVE",
"296 96 OFFCURVE",
"285 94 CURVE",
"283 96 OFFCURVE",
"280 97 OFFCURVE",
"278 100 CURVE",
"278 116 OFFCURVE",
"272 129 OFFCURVE",
"258 137 CURVE",
"258 150 OFFCURVE",
"250 161 OFFCURVE",
"241 168 CURVE",
"241 178 OFFCURVE",
"235 188 OFFCURVE",
"229 195 CURVE",
"233 213 OFFCURVE",
"241 231 OFFCURVE",
"228 247 CURVE",
"234 262 OFFCURVE",
"231 293 OFFCURVE",
"221 306 CURVE",
"232 319 OFFCURVE",
"235 346 OFFCURVE",
"218 358 CURVE",
"230 376 OFFCURVE",
"229 402 OFFCURVE",
"218 418 CURVE",
"235 436 OFFCURVE",
"232 454 OFFCURVE",
"221 471 CURVE",
"237 461 OFFCURVE",
"242 462 OFFCURVE",
"259 469 CURVE",
"271 460 OFFCURVE",
"299 460 OFFCURVE",
"310 470 CURVE",
"356 440 OFFCURVE",
"405 538 OFFCURVE",
"331 539 CURVE",
"322 551 OFFCURVE",
"307 554 OFFCURVE",
"292 545 CURVE",
"285 554 OFFCURVE",
"273 556 OFFCURVE",
"260 548 CURVE",
"249 558 OFFCURVE",
"225 555 OFFCURVE",
"218 552 CURVE",
"224 572 OFFCURVE",
"226 589 OFFCURVE",
"217 595 CURVE",
"227 609 OFFCURVE",
"230 645 OFFCURVE",
"216 658 CURVE",
"251 714 OFFCURVE",
"151 743 OFFCURVE",
"155 675 CURVE",
"139 662 OFFCURVE",
"138 627 OFFCURVE",
"149 610 CURVE",
"139 609 OFFCURVE",
"139 584 OFFCURVE",
"145 567 CURVE",
"138 569 OFFCURVE",
"125 562 OFFCURVE",
"124 557 CURVE",
"111 565 OFFCURVE",
"82 561 OFFCURVE",
"73 557 CURVE",
"58 567 OFFCURVE",
"33 571 OFFCURVE",
"16 562 CURVE",
"-49 560 OFFCURVE",
"-20 456 OFFCURVE",
"37 487 CURVE",
"59 475 OFFCURVE",
"73 473 OFFCURVE",
"95 479 CURVE",
"105 471 OFFCURVE",
"125 470 OFFCURVE",
"140 475 CURVE",
"133 455 OFFCURVE",
"138 442 OFFCURVE",
"148 430 CURVE",
"137 421 OFFCURVE",
"130 389 OFFCURVE",
"142 368 CURVE",
"131 357 OFFCURVE",
"130 336 OFFCURVE",
"139 319 CURVE",
"132 304 OFFCURVE",
"135 284 OFFCURVE",
"147 271 CURVE",
"131 255 OFFCURVE",
"133 226 OFFCURVE",
"150 213 CURVE",
"148 193 OFFCURVE",
"145 169 OFFCURVE",
"161 154 CURVE",
"158 137 OFFCURVE",
"166 119 OFFCURVE",
"182 111 CURVE",
"183 102 OFFCURVE",
"188 93 OFFCURVE",
"195 86 CURVE",
"189 55 OFFCURVE",
"221 38 OFFCURVE",
"234 36 CURVE",
"234 26 OFFCURVE",
"260 12 OFFCURVE",
"272 10 CURVE",
"287 -3 OFFCURVE",
"311 -8 OFFCURVE",
"326 4 CURVE",
"347 2 OFFCURVE",
"364 9 OFFCURVE",
"376 19 CURVE",
"424 31 OFFCURVE",
"406 108 OFFCURVE",
"356 96 CURVE",
"348 94 OFFCURVE",
"342 93 OFFCURVE",
"340 86 CURVE"
);
}
);
width = 403;
}
);
note = t;
unicode = 0074;
},
